<?xml version="1.0" encoding="utf-8"?>
<!-- Generator: Adobe Illustrator 26.4.1, SVG Export Plug-In . SVG Version: 6.00 Build 0)  -->
<svg version="1.1" id="svg_null" xmlns="http://www.w3.org/2000/svg" xmlns:xlink="http://www.w3.org/1999/xlink" x="0px" y="0px"
	 viewBox="0 0 100 100" style="enable-background:new 0 0 100 100;" xml:space="preserve">
<style type="text/css">
	.st0{fill-rule:evenodd;clip-rule:evenodd;fill:#211E1C;}
	.st1{fill-rule:evenodd;clip-rule:evenodd;fill:#F2BC94;}
	.st2{fill-rule:evenodd;clip-rule:evenodd;fill:#DE8A0D;}
	.st3{fill-rule:evenodd;clip-rule:evenodd;fill:#FFFFFF;}
	.st4{fill:#211E1C;}
	.st5{fill:#FFFFFF;}
	.st6{fill:#DE8A0D;}
	.st7{fill:#722620;}
	.st8{fill-rule:evenodd;clip-rule:evenodd;fill:#722620;}
</style>
<ellipse id="_x32_873041a-72f0-4a51-b3ce-5adef1131130_00000152244601822296442660000015421753552723441333_" class="st0" cx="50.1" cy="50.2" rx="49.5" ry="49.6"/>
<ellipse id="shape.accent" class="st1" cx="50.5" cy="50.6" rx="31.7" ry="31.7"/>
<path id="shape.secondary" class="st2" d="M34.3,63.9v18.9h-2V63.9c-2.3-0.5-4-2.5-4-4.9V38.2c0-2.7,2.2-5,5-5s5,2.2,5,5V59
	C38.2,61.4,36.5,63.4,34.3,63.9z M21.2,65.8v26.3h-2V65.9c-3.2-0.3-5.7-3.1-5.7-6.4V26.9c0-3.6,2.9-6.4,6.4-6.4s6.4,2.9,6.4,6.4
	v32.7C26.3,62.6,24.1,65.2,21.2,65.8z"/>
<polygon class="st3" points="49.1,51.1 49.1,51.1 60,34.3 70.9,51.1 70.9,51.1 70.9,81.8 49.1,81.8 "/>
<polygon class="st4" points="60,84.7 47.1,84.7 40.1,73.9 47.1,84.8 60,84.8 "/>
<path class="st5" d="M47.1,84.8l-7-10.9L36.3,68L25.4,84.8v8.4c6.5,3.7,13.8,6.1,21.7,6.5V84.8z"/>
<path class="st6" d="M84.8,84.7H60v0.1H47.1v14.9c1,0.1,2,0.1,3,0.1c21.1,0,39.1-13.3,46.2-31.9H73.9L84.8,84.7z"/>
<polygon class="st7" points="60,84.7 60,67.9 36.2,67.9 36.3,68 36.3,68 40.1,73.9 47.1,84.7 "/>
<path class="st7" d="M70.9,51.1L60,67.9h13.9h22.4c2.1-5.5,3.3-11.5,3.3-17.7c0-5.6-0.9-10.9-2.6-15.9H60L70.9,51.1z"/>
<polygon class="st4" points="36.3,68 40.1,73.9 36.3,68 "/>
<polygon class="st7" points="84.8,84.7 73.9,67.9 60,67.9 60,84.7 "/>
<rect id="shape.primary_00000098216032849598975640000001463258123709260431_" x="55" y="49.8" class="st8" width="7.9" height="10.3"/>
</svg>
