<svg xmlns="http://www.w3.org/2000/svg" width="1351.516" height="709.473" viewBox="0 0 1351.516 709.473">
  <g id="bg-img-it" transform="translate(-2645.63 -1439.527)">
    <g id="_976597-appliances-computer-desktop-display-screen-tower-work_106540" data-name="976597-appliances-computer-desktop-display-screen-tower-work_106540" transform="translate(2742 1519.934)">
      <path id="パス_82" data-name="パス 82" d="M89.751,56.29V3H19.633V8.609H0v58.9H33.657V56.29H50.485V64.7H39.266v2.8H70.118V64.7H58.9V56.29ZM19.633,45.071H8.414V39.461H19.633Zm0-14.024H2.8V22.633H19.633Zm0-19.633v8.414H2.8V11.414ZM30.852,64.7H2.8V33.852H19.633v2.8H5.609V47.876H19.633V56.29H30.852ZM22.438,53.485V5.8H86.947v47.68ZM56.095,64.7h-2.8V56.29h2.8Z" transform="translate(0 -3)" fill="#c3b389"/>
      <ellipse id="楕円形_14" data-name="楕円形 14" cx="2.773" cy="2.773" rx="2.773" ry="2.773" transform="translate(5.547 50.736)" fill="#c3b389"/>
      <path id="パス_83" data-name="パス 83" d="M67.9,5H9V47.071H67.9Zm-2.8,39.266H11.8V7.8h53.29Z" transform="translate(16.243 0.609)" fill="#c3b389"/>
    </g>
    <g id="_976597-appliances-computer-desktop-display-screen-tower-work_106540-2" data-name="976597-appliances-computer-desktop-display-screen-tower-work_106540" transform="translate(2969.389 1846.074)">
      <path id="パス_82-2" data-name="パス 82" d="M89.751,56.29V3H19.633V8.609H0v58.9H33.657V56.29H50.485V64.7H39.266v2.8H70.118V64.7H58.9V56.29ZM19.633,45.071H8.414V39.461H19.633Zm0-14.024H2.8V22.633H19.633Zm0-19.633v8.414H2.8V11.414ZM30.852,64.7H2.8V33.852H19.633v2.8H5.609V47.876H19.633V56.29H30.852ZM22.438,53.485V5.8H86.947v47.68ZM56.095,64.7h-2.8V56.29h2.8Z" transform="translate(0 -3)" fill="#c3b389"/>
      <ellipse id="楕円形_14-2" data-name="楕円形 14" cx="2.773" cy="2.773" rx="2.773" ry="2.773" transform="translate(5.547 50.736)" fill="#c3b389"/>
      <path id="パス_83-2" data-name="パス 83" d="M67.9,5H9V47.071H67.9Zm-2.8,39.266H11.8V7.8h53.29Z" transform="translate(16.243 0.609)" fill="#c3b389"/>
    </g>
    <g id="_976597-appliances-computer-desktop-display-screen-tower-work_106540-3" data-name="976597-appliances-computer-desktop-display-screen-tower-work_106540" transform="translate(3870.732 2048.314)">
      <path id="パス_82-3" data-name="パス 82" d="M104.831,65.244V3h-81.9V9.552H0v68.8H39.312v-13.1H58.968v9.828h-13.1v3.276H81.9V75.071H68.8V65.244Zm-81.9-13.1H9.828V45.588h13.1Zm0-16.38H3.276V25.932H22.932Zm0-22.932v9.828H3.276V12.828Zm13.1,62.244H3.276V39.036H22.932v3.276H6.552v13.1h16.38v9.828h13.1Zm-9.828-13.1V6.276h75.347V61.968Zm39.312,13.1H62.243V65.244h3.276Z" transform="translate(0 -3)" fill="#c3b389"/>
      <ellipse id="楕円形_14-3" data-name="楕円形 14" cx="3.239" cy="3.239" rx="3.239" ry="3.239" transform="translate(6.479 59.261)" fill="#c3b389"/>
      <path id="パス_83-3" data-name="パス 83" d="M77.8,5H9V54.14H77.8ZM74.519,50.864H12.276V8.276H74.519Z" transform="translate(20.484 1.552)" fill="#c3b389"/>
    </g>
    <g id="_976599-all-in-one-appliances-desktop-display-electronics-pc-screen_106534" data-name="976599-all-in-one-appliances-desktop-display-electronics-pc-screen_106534" transform="translate(3746.792 1489.657)">
      <path id="パス_84" data-name="パス 84" d="M86.445,3H5.763A5.763,5.763,0,0,0,0,8.763V63.512a5.763,5.763,0,0,0,5.763,5.763H40.341v5.763H28.815v2.882H63.393V75.038H51.867V69.275H86.445a5.763,5.763,0,0,0,5.763-5.763V8.763A5.763,5.763,0,0,0,86.445,3ZM48.986,75.038H43.223V69.275h5.763ZM89.327,63.512a2.882,2.882,0,0,1-2.882,2.882H5.763a2.882,2.882,0,0,1-2.882-2.882V8.763A2.882,2.882,0,0,1,5.763,5.882H86.445a2.882,2.882,0,0,1,2.882,2.882Z" transform="translate(0 -3)" fill="#c3b389"/>
      <path id="パス_85" data-name="パス 85" d="M2,51.1H82.682V5H2ZM4.882,7.882H79.8V48.223H4.882Z" transform="translate(3.763 0.763)" fill="#c3b389"/>
      <ellipse id="楕円形_15" data-name="楕円形 15" cx="2.849" cy="2.849" rx="2.849" ry="2.849" transform="translate(43.53 54.975)" fill="#c3b389"/>
    </g>
    <g id="_976599-all-in-one-appliances-desktop-display-electronics-pc-screen_106534-2" data-name="976599-all-in-one-appliances-desktop-display-electronics-pc-screen_106534" transform="translate(3197.668 1546.419)">
      <path id="パス_84-2" data-name="パス 84" d="M86.445,3H5.763A5.763,5.763,0,0,0,0,8.763V63.512a5.763,5.763,0,0,0,5.763,5.763H40.341v5.763H28.815v2.882H63.393V75.038H51.867V69.275H86.445a5.763,5.763,0,0,0,5.763-5.763V8.763A5.763,5.763,0,0,0,86.445,3ZM48.986,75.038H43.223V69.275h5.763ZM89.327,63.512a2.882,2.882,0,0,1-2.882,2.882H5.763a2.882,2.882,0,0,1-2.882-2.882V8.763A2.882,2.882,0,0,1,5.763,5.882H86.445a2.882,2.882,0,0,1,2.882,2.882Z" transform="translate(0 -3)" fill="#c3b389"/>
      <path id="パス_85-2" data-name="パス 85" d="M2,51.1H82.682V5H2ZM4.882,7.882H79.8V48.223H4.882Z" transform="translate(3.763 0.763)" fill="#c3b389"/>
      <ellipse id="楕円形_15-2" data-name="楕円形 15" cx="2.849" cy="2.849" rx="2.849" ry="2.849" transform="translate(43.53 54.975)" fill="#c3b389"/>
    </g>
    <g id="_976599-all-in-one-appliances-desktop-display-electronics-pc-screen_106534-3" data-name="976599-all-in-one-appliances-desktop-display-electronics-pc-screen_106534" transform="translate(2645.63 1970.014)">
      <path id="パス_84-3" data-name="パス 84" d="M90.346,3H6.023A6.023,6.023,0,0,0,0,9.023V66.243a6.023,6.023,0,0,0,6.023,6.023H42.162v6.023H30.115V81.3H66.254V78.289H54.208V72.266H90.346a6.023,6.023,0,0,0,6.023-6.023V9.023A6.023,6.023,0,0,0,90.346,3ZM51.2,78.289H45.173V72.266H51.2ZM93.358,66.243a3.012,3.012,0,0,1-3.012,3.012H6.023a3.012,3.012,0,0,1-3.012-3.012V9.023A3.012,3.012,0,0,1,6.023,6.012H90.346a3.012,3.012,0,0,1,3.012,3.012Z" transform="translate(0 -3)" fill="#c3b389"/>
      <path id="パス_85-3" data-name="パス 85" d="M2,53.185H86.323V5H2ZM5.012,8.012h78.3V50.173H5.012Z" transform="translate(4.023 1.023)" fill="#c3b389"/>
      <ellipse id="楕円形_15-3" data-name="楕円形 15" cx="2.978" cy="2.978" rx="2.978" ry="2.978" transform="translate(45.495 57.455)" fill="#c3b389"/>
    </g>
    <g id="_976599-all-in-one-appliances-desktop-display-electronics-pc-screen_106534-4" data-name="976599-all-in-one-appliances-desktop-display-electronics-pc-screen_106534" transform="translate(3696.526 1708.696)">
      <path id="パス_84-4" data-name="パス 84" d="M90.346,3H6.023A6.023,6.023,0,0,0,0,9.023V66.243a6.023,6.023,0,0,0,6.023,6.023H42.162v6.023H30.115V81.3H66.254V78.289H54.208V72.266H90.346a6.023,6.023,0,0,0,6.023-6.023V9.023A6.023,6.023,0,0,0,90.346,3ZM51.2,78.289H45.173V72.266H51.2ZM93.358,66.243a3.012,3.012,0,0,1-3.012,3.012H6.023a3.012,3.012,0,0,1-3.012-3.012V9.023A3.012,3.012,0,0,1,6.023,6.012H90.346a3.012,3.012,0,0,1,3.012,3.012Z" transform="translate(0 -3)" fill="#c3b389"/>
      <path id="パス_85-4" data-name="パス 85" d="M2,53.185H86.323V5H2ZM5.012,8.012h78.3V50.173H5.012Z" transform="translate(4.023 1.023)" fill="#c3b389"/>
      <ellipse id="楕円形_15-4" data-name="楕円形 15" cx="2.978" cy="2.978" rx="2.978" ry="2.978" transform="translate(45.495 57.455)" fill="#c3b389"/>
    </g>
    <g id="_976600-android-appliances-display-electronics-ipad-portable-computer-tablet_106565" data-name="976600-android-appliances-display-electronics-ipad-portable-computer-tablet_106565" transform="translate(3581.006 1893.314)">
      <path id="パス_86" data-name="パス 86" d="M72.6,0H6.153A6.153,6.153,0,0,0,0,6.153V47.992a6.153,6.153,0,0,0,6.153,6.153H72.6a6.153,6.153,0,0,0,6.153-6.153V6.153A6.153,6.153,0,0,0,72.6,0Zm3.692,47.992A3.692,3.692,0,0,1,72.6,51.683H6.153a3.692,3.692,0,0,1-3.692-3.692V6.153A3.692,3.692,0,0,1,6.153,2.461H72.6a3.692,3.692,0,0,1,3.692,3.692Z" transform="translate(0 0)" fill="#c3b389"/>
      <path id="パス_87" data-name="パス 87" d="M0,44.3H54.145V0H0ZM2.461,2.461H51.683V41.839H2.461Z" transform="translate(12.306 4.922)" fill="#c3b389"/>
      <ellipse id="楕円形_16" data-name="楕円形 16" cx="2.434" cy="2.434" rx="2.434" ry="2.434" transform="translate(68.883 24.442)" fill="#c3b389"/>
    </g>
    <g id="_976600-android-appliances-display-electronics-ipad-portable-computer-tablet_106565-2" data-name="976600-android-appliances-display-electronics-ipad-portable-computer-tablet_106565" transform="translate(2856.676 2063.823) rotate(90)">
      <path id="パス_86-2" data-name="パス 86" d="M75.242,0H6.376A6.376,6.376,0,0,0,0,6.376v43.36a6.376,6.376,0,0,0,6.376,6.376H75.242a6.376,6.376,0,0,0,6.376-6.376V6.376A6.376,6.376,0,0,0,75.242,0Zm3.826,49.736a3.826,3.826,0,0,1-3.826,3.826H6.376a3.826,3.826,0,0,1-3.826-3.826V6.376A3.826,3.826,0,0,1,6.376,2.551H75.242a3.826,3.826,0,0,1,3.826,3.826Z" transform="translate(0 0)" fill="#c3b389"/>
      <path id="パス_87-2" data-name="パス 87" d="M0,45.91H56.112V0H0ZM2.551,2.551H53.562V43.36H2.551Z" transform="translate(12.753 5.101)" fill="#c3b389"/>
      <ellipse id="楕円形_16-2" data-name="楕円形 16" cx="2.522" cy="2.522" rx="2.522" ry="2.522" transform="translate(71.387 25.331)" fill="#c3b389"/>
    </g>
    <g id="_976600-android-appliances-display-electronics-ipad-portable-computer-tablet_106565-3" data-name="976600-android-appliances-display-electronics-ipad-portable-computer-tablet_106565" transform="translate(2742 1708.696) rotate(90)">
      <path id="パス_86-3" data-name="パス 86" d="M75.242,0H6.376A6.376,6.376,0,0,0,0,6.376v43.36a6.376,6.376,0,0,0,6.376,6.376H75.242a6.376,6.376,0,0,0,6.376-6.376V6.376A6.376,6.376,0,0,0,75.242,0Zm3.826,49.736a3.826,3.826,0,0,1-3.826,3.826H6.376a3.826,3.826,0,0,1-3.826-3.826V6.376A3.826,3.826,0,0,1,6.376,2.551H75.242a3.826,3.826,0,0,1,3.826,3.826Z" transform="translate(0 0)" fill="#c3b389"/>
      <path id="パス_87-3" data-name="パス 87" d="M0,45.91H56.112V0H0ZM2.551,2.551H53.562V43.36H2.551Z" transform="translate(12.753 5.101)" fill="#c3b389"/>
      <ellipse id="楕円形_16-3" data-name="楕円形 16" cx="2.522" cy="2.522" rx="2.522" ry="2.522" transform="translate(71.387 25.331)" fill="#c3b389"/>
    </g>
    <path id="_976606-appliances-electronics-headphones-loud-music-sound-speaker_106567" data-name="976606-appliances-electronics-headphones-loud-music-sound-speaker_106567" d="M80.708,43.345a39.089,39.089,0,0,0-9.862-25.4l2.092-2.182-1.2-1.046A43.093,43.093,0,0,0,41.859,3,43.093,43.093,0,0,0,11.974,14.716l-1.2,1.016,2.092,2.211a39.089,39.089,0,0,0-9.862,25.4,31.588,31.588,0,0,0,8.965,22.981v8.4h5.977a5.977,5.977,0,0,0,11.954,0V50.816a5.977,5.977,0,1,0-11.954,0H11.974V61.783A28.988,28.988,0,0,1,6,43.345a35.861,35.861,0,0,1,8.965-23.25l2,2.122.986-1.046a33.62,33.62,0,0,1,23.907-9.2,33.62,33.62,0,0,1,23.907,9.2l1.076,1.046,1.913-2.122a35.861,35.861,0,0,1,8.965,23.25,28.988,28.988,0,0,1-5.977,18.439V50.816H65.766a5.977,5.977,0,1,0-11.954,0V74.723a5.977,5.977,0,0,0,11.954,0h5.977v-8.4a31.588,31.588,0,0,0,8.965-22.981Zm-56.78,4.483a2.988,2.988,0,0,1,2.988,2.988V74.723a2.988,2.988,0,0,1-5.977,0V50.816A2.988,2.988,0,0,1,23.928,47.827ZM14.963,53.8h2.988V71.735H14.963Zm51.67-35.861A36.638,36.638,0,0,0,41.859,8.978a36.638,36.638,0,0,0-24.774,8.965l-2.122-2.092a40.254,40.254,0,0,1,26.9-9.862,40.254,40.254,0,0,1,26.9,9.862ZM59.789,77.712A2.988,2.988,0,0,1,56.8,74.723V50.816a2.988,2.988,0,1,1,5.977,0V74.723A2.988,2.988,0,0,1,59.789,77.712Zm8.965-5.977H65.766V53.8h2.988Z" transform="translate(2855.142 1597.677)" fill="#c3b389"/>
    <path id="_976606-appliances-electronics-headphones-loud-music-sound-speaker_106567-2" data-name="976606-appliances-electronics-headphones-loud-music-sound-speaker_106567" d="M88.186,47.227A42.85,42.85,0,0,0,77.375,19.381l2.293-2.391-1.31-1.147A47.24,47.24,0,0,0,45.6,3a47.239,47.239,0,0,0-32.76,12.842l-1.31,1.114,2.293,2.424A42.85,42.85,0,0,0,3.01,47.227a34.627,34.627,0,0,0,9.828,25.192v9.205H19.39a6.552,6.552,0,1,0,13.1,0V55.417a6.552,6.552,0,1,0-13.1,0H12.838V67.44A31.777,31.777,0,0,1,6.286,47.227,39.312,39.312,0,0,1,16.114,21.74l2.195,2.326,1.081-1.147A36.855,36.855,0,0,1,45.6,12.829a36.855,36.855,0,0,1,26.208,10.09l1.179,1.147,2.1-2.326A39.312,39.312,0,0,1,84.91,47.227,31.777,31.777,0,0,1,78.358,67.44V55.417H71.806a6.552,6.552,0,1,0-13.1,0V81.624a6.552,6.552,0,1,0,13.1,0h6.552V72.419A34.627,34.627,0,0,0,88.186,47.227ZM25.942,52.141a3.276,3.276,0,0,1,3.276,3.276V81.624a3.276,3.276,0,1,1-6.552,0V55.417A3.276,3.276,0,0,1,25.942,52.141Zm-9.828,6.552H19.39V78.349H16.114ZM72.756,19.381A40.163,40.163,0,0,0,45.6,9.553,40.163,40.163,0,0,0,18.44,19.381l-2.326-2.293A44.127,44.127,0,0,1,45.6,6.277,44.127,44.127,0,0,1,75.082,17.088Zm-7.5,65.52a3.276,3.276,0,0,1-3.276-3.276V55.417a3.276,3.276,0,1,1,6.552,0V81.624A3.276,3.276,0,0,1,65.254,84.9Zm9.828-6.552H71.806V58.693h3.276Z" transform="translate(3673.004 2060.823)" fill="#c3b389"/>
    <path id="_976606-appliances-electronics-headphones-loud-music-sound-speaker_106567-3" data-name="976606-appliances-electronics-headphones-loud-music-sound-speaker_106567" d="M88.186,47.227A42.85,42.85,0,0,0,77.375,19.381l2.293-2.391-1.31-1.147A47.24,47.24,0,0,0,45.6,3a47.239,47.239,0,0,0-32.76,12.842l-1.31,1.114,2.293,2.424A42.85,42.85,0,0,0,3.01,47.227a34.627,34.627,0,0,0,9.828,25.192v9.205H19.39a6.552,6.552,0,1,0,13.1,0V55.417a6.552,6.552,0,1,0-13.1,0H12.838V67.44A31.777,31.777,0,0,1,6.286,47.227,39.312,39.312,0,0,1,16.114,21.74l2.195,2.326,1.081-1.147A36.855,36.855,0,0,1,45.6,12.829a36.855,36.855,0,0,1,26.208,10.09l1.179,1.147,2.1-2.326A39.312,39.312,0,0,1,84.91,47.227,31.777,31.777,0,0,1,78.358,67.44V55.417H71.806a6.552,6.552,0,1,0-13.1,0V81.624a6.552,6.552,0,1,0,13.1,0h6.552V72.419A34.627,34.627,0,0,0,88.186,47.227ZM25.942,52.141a3.276,3.276,0,0,1,3.276,3.276V81.624a3.276,3.276,0,1,1-6.552,0V55.417A3.276,3.276,0,0,1,25.942,52.141Zm-9.828,6.552H19.39V78.349H16.114ZM72.756,19.381A40.163,40.163,0,0,0,45.6,9.553,40.163,40.163,0,0,0,18.44,19.381l-2.326-2.293A44.127,44.127,0,0,1,45.6,6.277,44.127,44.127,0,0,1,75.082,17.088Zm-7.5,65.52a3.276,3.276,0,0,1-3.276-3.276V55.417a3.276,3.276,0,1,1,6.552,0V81.624A3.276,3.276,0,0,1,65.254,84.9Zm9.828-6.552H71.806V58.693h3.276Z" transform="translate(3265.112 1942.111)" fill="#c3b389"/>
    <g id="_976607-appliances-computer-laptop-notebook-portable-computer_106543" data-name="976607-appliances-computer-laptop-notebook-portable-computer_106543" transform="translate(3910.72 1546.419)">
      <path id="パス_93" data-name="パス 93" d="M78.323,56.316V8.89A3.943,3.943,0,0,0,74.272,5H12.154A3.943,3.943,0,0,0,8.1,8.89V56.316H0V57.5a6.887,6.887,0,0,0,6.752,6.914H79.674A6.887,6.887,0,0,0,86.426,57.5V56.316ZM10.8,8.89A1.242,1.242,0,0,1,12.154,7.7H74.272a1.242,1.242,0,0,1,1.35,1.188V56.316H10.8ZM6.752,61.718a4.4,4.4,0,0,1-3.808-2.7H37.811v2.7Zm72.922,0H48.614v-2.7H83.482a4.4,4.4,0,0,1-3.808,2.7Z" transform="translate(0 -4.999)" fill="#c3b389"/>
      <path id="パス_94" data-name="パス 94" d="M5,50.213H64.418V7H5ZM7.7,9.7H61.717V47.512H7.7Z" transform="translate(8.504 -1.597)" fill="#c3b389"/>
    </g>
    <g id="_976607-appliances-computer-laptop-notebook-portable-computer_106543-2" data-name="976607-appliances-computer-laptop-notebook-portable-computer_106543" transform="translate(3382.284 1790.314)">
      <path id="パス_93-2" data-name="パス 93" d="M78.323,56.316V8.89A3.943,3.943,0,0,0,74.272,5H12.154A3.943,3.943,0,0,0,8.1,8.89V56.316H0V57.5a6.887,6.887,0,0,0,6.752,6.914H79.674A6.887,6.887,0,0,0,86.426,57.5V56.316ZM10.8,8.89A1.242,1.242,0,0,1,12.154,7.7H74.272a1.242,1.242,0,0,1,1.35,1.188V56.316H10.8ZM6.752,61.718a4.4,4.4,0,0,1-3.808-2.7H37.811v2.7Zm72.922,0H48.614v-2.7H83.482a4.4,4.4,0,0,1-3.808,2.7Z" transform="translate(0 -4.999)" fill="#c3b389"/>
      <path id="パス_94-2" data-name="パス 94" d="M5,50.213H64.418V7H5ZM7.7,9.7H61.717V47.512H7.7Z" transform="translate(8.504 -1.597)" fill="#c3b389"/>
    </g>
    <g id="_976630-appliances-camera-digital-camera-dslr-memories-photo-photography_106568" data-name="976630-appliances-camera-digital-camera-dslr-memories-photo-photography_106568" transform="translate(3483.681 1605.838)">
      <path id="パス_95" data-name="パス 95" d="M112.7,18.78H99.061L91.671,4H63.516l-7.39,14.78H29.559V11.39H11.085v7.39H5.542A5.542,5.542,0,0,0,0,24.322V87.136a5.542,5.542,0,0,0,5.542,5.542H112.7a5.542,5.542,0,0,0,5.542-5.542V24.322A5.542,5.542,0,0,0,112.7,18.78ZM14.78,15.085H25.864V18.78H14.78Zm99.763,72.051a1.847,1.847,0,0,1-1.847,1.847H5.542a1.847,1.847,0,0,1-1.847-1.847V24.322a1.847,1.847,0,0,1,1.847-1.847H58.417l7.39-14.78H89.38l7.39,14.78H112.7a1.847,1.847,0,0,1,1.847,1.847Z" transform="translate(0 -4)" fill="#c3b389"/>
      <rect id="長方形_76" data-name="長方形 76" width="3.814" height="59.119" transform="translate(25.745 22.002)" fill="#c3b389"/>
      <path id="パス_96" data-name="パス 96" d="M42.559,10A29.559,29.559,0,1,0,72.119,39.559,29.559,29.559,0,0,0,42.559,10Zm0,55.424A25.864,25.864,0,1,1,68.424,39.559,25.864,25.864,0,0,1,42.559,65.424Z" transform="translate(35.034 12.17)" fill="#c3b389"/>
      <path id="パス_97" data-name="パス 97" d="M34.475,13A18.475,18.475,0,1,0,52.949,31.475,18.475,18.475,0,0,0,34.475,13Zm0,33.254a14.78,14.78,0,1,1,14.78-14.78A14.78,14.78,0,0,1,34.475,46.254Z" transform="translate(43.119 20.254)" fill="#c3b389"/>
      <ellipse id="楕円形_19" data-name="楕円形 19" cx="3.337" cy="3.814" rx="3.337" ry="3.814" transform="translate(44.816 22.002)" fill="#c3b389"/>
    </g>
    <g id="_976630-appliances-camera-digital-camera-dslr-memories-photo-photography_106568-2" data-name="976630-appliances-camera-digital-camera-dslr-memories-photo-photography_106568" transform="translate(3080.557 1656.799)">
      <path id="パス_95-2" data-name="パス 95" d="M80.712,14.585H70.947L65.655,4H45.49L40.2,14.585H21.17V9.293H7.939v5.293H3.969A3.969,3.969,0,0,0,0,18.555V63.542a3.969,3.969,0,0,0,3.969,3.969H80.712a3.969,3.969,0,0,0,3.969-3.969V18.555A3.969,3.969,0,0,0,80.712,14.585ZM10.585,11.939h7.939v2.646H10.585Zm71.45,51.6a1.323,1.323,0,0,1-1.323,1.323H3.969a1.323,1.323,0,0,1-1.323-1.323V18.555a1.323,1.323,0,0,1,1.323-1.323H41.838L47.131,6.646H64.014l5.293,10.585H80.712a1.323,1.323,0,0,1,1.323,1.323Z" transform="translate(0 -4)" fill="#c3b389"/>
      <rect id="長方形_76-2" data-name="長方形 76" width="2.732" height="42.341" transform="translate(18.439 15.758)" fill="#c3b389"/>
      <path id="パス_96-2" data-name="パス 96" d="M34.17,10a21.17,21.17,0,1,0,21.17,21.17A21.17,21.17,0,0,0,34.17,10Zm0,39.695A18.524,18.524,0,1,1,52.694,31.17,18.524,18.524,0,0,1,34.17,49.695Z" transform="translate(21.402 5.878)" fill="#c3b389"/>
      <path id="パス_97-2" data-name="パス 97" d="M29.231,13A13.232,13.232,0,1,0,42.463,26.232,13.232,13.232,0,0,0,29.231,13Zm0,23.817A10.585,10.585,0,1,1,39.817,26.232,10.585,10.585,0,0,1,29.231,36.817Z" transform="translate(26.341 10.817)" fill="#c3b389"/>
      <ellipse id="楕円形_19-2" data-name="楕円形 19" cx="2.39" cy="2.732" rx="2.39" ry="2.732" transform="translate(32.097 15.758)" fill="#c3b389"/>
    </g>
    <g id="_976603-accessories-appliances-computer-keyboard-mouse_106542" data-name="976603-accessories-appliances-computer-keyboard-mouse_106542" transform="translate(3002.29 2049.988)">
      <path id="パス_89" data-name="パス 89" d="M85.955,14H4.227A4.227,4.227,0,0,0,0,18.227V46.409a4.227,4.227,0,0,0,4.227,4.227H85.955a4.227,4.227,0,0,0,4.227-4.227V18.227A4.227,4.227,0,0,0,85.955,14Zm1.409,32.409a1.409,1.409,0,0,1-1.409,1.409H4.227a1.409,1.409,0,0,1-1.409-1.409V18.227a1.409,1.409,0,0,1,1.409-1.409H85.955a1.409,1.409,0,0,1,1.409,1.409Z" transform="translate(0 16.364)" fill="#c3b389"/>
      <path id="パス_90" data-name="パス 90" d="M24.818,25.636H22v2.818h5.636V20H24.818Z" transform="translate(40 27.273)" fill="#c3b389"/>
      <rect id="長方形_63" data-name="長方形 63" width="9" height="2" transform="translate(59 59)" fill="#c3b389"/>
      <rect id="長方形_64" data-name="長方形 64" width="51" height="3" transform="translate(11 47)" fill="#c3b389"/>
      <rect id="長方形_65" data-name="長方形 65" width="2" height="3" transform="translate(6 47)" fill="#c3b389"/>
      <rect id="長方形_66" data-name="長方形 66" width="2" height="3" transform="translate(6 36)" fill="#c3b389"/>
      <rect id="長方形_67" data-name="長方形 67" width="5" height="3" transform="translate(6 53)" fill="#c3b389"/>
      <rect id="長方形_68" data-name="長方形 68" width="8" height="2" transform="translate(6 59)" fill="#c3b389"/>
      <rect id="長方形_69" data-name="長方形 69" width="39" height="2" transform="translate(17 59)" fill="#c3b389"/>
      <rect id="長方形_70" data-name="長方形 70" width="45" height="3" transform="translate(14 53)" fill="#c3b389"/>
      <rect id="長方形_71" data-name="長方形 71" width="62" height="2" transform="translate(6 42)" fill="#c3b389"/>
      <rect id="長方形_72" data-name="長方形 72" width="15" height="2" transform="translate(70 42)" fill="#c3b389"/>
      <rect id="長方形_73" data-name="長方形 73" width="57" height="3" transform="translate(11 36)" fill="#c3b389"/>
      <rect id="長方形_74" data-name="長方形 74" width="15" height="3" transform="translate(70 47)" fill="#c3b389"/>
      <path id="パス_91" data-name="パス 91" d="M31.636,23H28.818v2.818H26v2.818h8.455V25.818H31.636Z" transform="translate(47.273 32.727)" fill="#c3b389"/>
      <path id="パス_92" data-name="パス 92" d="M19.864,24.727H32.545A9.864,9.864,0,1,0,32.545,5H19.864a9.864,9.864,0,0,0,0,19.727Zm19.727-9.864a7.045,7.045,0,0,1-7.045,7.045H26.909V7.818h5.636a7.045,7.045,0,0,1,7.045,7.045ZM19.864,7.818h4.227V21.909H19.864a7.045,7.045,0,0,1,0-14.091Z" transform="translate(18.182)" fill="#c3b389"/>
      <rect id="長方形_75" data-name="長方形 75" width="5" height="3" transform="translate(34 13)" fill="#c3b389"/>
    </g>
    <g id="_976603-accessories-appliances-computer-keyboard-mouse_106542-2" data-name="976603-accessories-appliances-computer-keyboard-mouse_106542" transform="translate(3825.642 1826.314)">
      <path id="パス_89-2" data-name="パス 89" d="M85.955,14H4.227A4.227,4.227,0,0,0,0,18.227V46.409a4.227,4.227,0,0,0,4.227,4.227H85.955a4.227,4.227,0,0,0,4.227-4.227V18.227A4.227,4.227,0,0,0,85.955,14Zm1.409,32.409a1.409,1.409,0,0,1-1.409,1.409H4.227a1.409,1.409,0,0,1-1.409-1.409V18.227a1.409,1.409,0,0,1,1.409-1.409H85.955a1.409,1.409,0,0,1,1.409,1.409Z" transform="translate(0 16.364)" fill="#c3b389"/>
      <path id="パス_90-2" data-name="パス 90" d="M24.818,25.636H22v2.818h5.636V20H24.818Z" transform="translate(40 27.273)" fill="#c3b389"/>
      <rect id="長方形_63-2" data-name="長方形 63" width="9" height="2" transform="translate(59 59)" fill="#c3b389"/>
      <rect id="長方形_64-2" data-name="長方形 64" width="51" height="3" transform="translate(11 47)" fill="#c3b389"/>
      <rect id="長方形_65-2" data-name="長方形 65" width="2" height="3" transform="translate(6 47)" fill="#c3b389"/>
      <rect id="長方形_66-2" data-name="長方形 66" width="2" height="3" transform="translate(6 36)" fill="#c3b389"/>
      <rect id="長方形_67-2" data-name="長方形 67" width="5" height="3" transform="translate(6 53)" fill="#c3b389"/>
      <rect id="長方形_68-2" data-name="長方形 68" width="8" height="2" transform="translate(6 59)" fill="#c3b389"/>
      <rect id="長方形_69-2" data-name="長方形 69" width="39" height="2" transform="translate(17 59)" fill="#c3b389"/>
      <rect id="長方形_70-2" data-name="長方形 70" width="45" height="3" transform="translate(14 53)" fill="#c3b389"/>
      <rect id="長方形_71-2" data-name="長方形 71" width="62" height="2" transform="translate(6 42)" fill="#c3b389"/>
      <rect id="長方形_72-2" data-name="長方形 72" width="15" height="2" transform="translate(70 42)" fill="#c3b389"/>
      <rect id="長方形_73-2" data-name="長方形 73" width="57" height="3" transform="translate(11 36)" fill="#c3b389"/>
      <rect id="長方形_74-2" data-name="長方形 74" width="15" height="3" transform="translate(70 47)" fill="#c3b389"/>
      <path id="パス_91-2" data-name="パス 91" d="M31.636,23H28.818v2.818H26v2.818h8.455V25.818H31.636Z" transform="translate(47.273 32.727)" fill="#c3b389"/>
      <path id="パス_92-2" data-name="パス 92" d="M19.864,24.727H32.545A9.864,9.864,0,1,0,32.545,5H19.864a9.864,9.864,0,0,0,0,19.727Zm19.727-9.864a7.045,7.045,0,0,1-7.045,7.045H26.909V7.818h5.636a7.045,7.045,0,0,1,7.045,7.045ZM19.864,7.818h4.227V21.909H19.864a7.045,7.045,0,0,1,0-14.091Z" transform="translate(18.182)" fill="#c3b389"/>
      <rect id="長方形_75-2" data-name="長方形 75" width="5" height="3" transform="translate(34 13)" fill="#c3b389"/>
    </g>
    <g id="グループ_147" data-name="グループ 147" transform="translate(2092 -110.473)">
      <path id="パス_34" data-name="パス 34" d="M30.879,9A19.817,19.817,0,0,0,11,28.879V48.757A19.817,19.817,0,0,0,30.879,68.636,20.018,20.018,0,0,0,50.757,48.757V28.879A19.817,19.817,0,0,0,30.879,9Z" transform="translate(826.632 1568.954)" fill="none" stroke="#c3b389" stroke-width="4"/>
      <path id="パス_35" data-name="パス 35" d="M44.4,46.33A16.239,16.239,0,0,1,28.251,62.481,16.041,16.041,0,0,1,12.1,46.33V26.451A16.239,16.239,0,0,1,28.251,10.3,16.041,16.041,0,0,1,44.4,26.451Z" transform="translate(828.948 1571.692)" fill="none"/>
      <path id="パス_36" data-name="パス 36" d="M54.045,36.03a4.112,4.112,0,0,0-4.038,4.038v5.9a4.038,4.038,0,1,0,8.076,0v-5.9A4.112,4.112,0,0,0,54.045,36.03Zm-1.864-8.076h4.038v-5.9A12.128,12.128,0,0,0,44.106,9.939H12.114A7.834,7.834,0,0,1,4.038,1.864V0H0V1.864A12.128,12.128,0,0,0,12.114,13.977H44.106a8.223,8.223,0,0,1,8.076,8.076Z" transform="translate(805 1550)" fill="#c3b389" fill-rule="evenodd"/>
    </g>
  </g>
</svg>
