<svg xmlns="http://www.w3.org/2000/svg" width="109.781" height="75.477" viewBox="0 0 109.781 75.477">
  <g id="header__it-01" transform="translate(-654 -764.523)">
    <rect id="長方形_148" data-name="長方形 148" width="86" height="64" transform="translate(665 768)" fill="#fee59c"/>
    <rect id="長方形_149" data-name="長方形 149" width="104" height="7" rx="3.5" transform="translate(657 832)" fill="#fee59c"/>
    <g id="_976607-appliances-computer-laptop-notebook-portable-computer_106543" data-name="976607-appliances-computer-laptop-notebook-portable-computer_106543" transform="translate(654 764.523)">
      <path id="パス_93" data-name="パス 93" d="M99.489,70.184V9.942A5.009,5.009,0,0,0,94.343,5H15.438a5.009,5.009,0,0,0-5.146,4.94V70.184H0v1.51a8.748,8.748,0,0,0,8.577,8.783H101.2a8.748,8.748,0,0,0,8.577-8.783v-1.51ZM13.723,9.942a1.578,1.578,0,0,1,1.715-1.509H94.343a1.578,1.578,0,0,1,1.715,1.509V70.184H13.723Zm-5.146,67.1a5.592,5.592,0,0,1-4.837-3.431h44.29v3.431Zm92.628,0H61.752V73.615h44.29a5.592,5.592,0,0,1-4.837,3.431Z" transform="translate(0 -4.999)" fill="#0e2a3b"/>
      <path id="パス_94" data-name="パス 94" d="M5,61.891H80.475V7H5Zm3.431-51.46H77.044V58.46H8.431Z" transform="translate(12.153 -0.137)" fill="#0e2a3b"/>
    </g>
  </g>
</svg>
