<svg xmlns="http://www.w3.org/2000/svg" width="117.127" height="95.166" viewBox="0 0 117.127 95.166">
  <g id="header__it-05" transform="translate(-467.437 -761.834)">
    <rect id="長方形_150" data-name="長方形 150" width="114" height="80" rx="4" transform="translate(469 764)" fill="#fee59c"/>
    <rect id="長方形_151" data-name="長方形 151" width="12" height="9" transform="translate(520 845)" fill="#fee59c"/>
    <g id="_976599-all-in-one-appliances-desktop-display-electronics-pc-screen_106534" data-name="976599-all-in-one-appliances-desktop-display-electronics-pc-screen_106534" transform="translate(467.437 761.834)">
      <path id="パス_84" data-name="パス 84" d="M109.806,3H7.32A7.32,7.32,0,0,0,0,10.32V79.865a7.32,7.32,0,0,0,7.32,7.32H51.243v7.32H36.6v3.66H80.525v-3.66H65.884v-7.32h43.923a7.32,7.32,0,0,0,7.32-7.32V10.32A7.32,7.32,0,0,0,109.806,3ZM62.224,94.505H54.9v-7.32h7.32Zm51.243-14.641a3.66,3.66,0,0,1-3.66,3.66H7.32a3.66,3.66,0,0,1-3.66-3.66V10.32A3.66,3.66,0,0,1,7.32,6.66H109.806a3.66,3.66,0,0,1,3.66,3.66Z" transform="translate(0 -3)" fill="#0e2a3b"/>
      <path id="パス_85" data-name="パス 85" d="M2,63.563H104.486V5H2ZM5.66,8.66h95.166V59.9H5.66Z" transform="translate(5.32 2.32)" fill="#0e2a3b"/>
      <ellipse id="楕円形_15" data-name="楕円形 15" cx="3.619" cy="3.619" rx="3.619" ry="3.619" transform="translate(55.294 69.831)" fill="#0e2a3b"/>
    </g>
  </g>
</svg>
