<svg xmlns="http://www.w3.org/2000/svg" width="134.067" height="92.171" viewBox="0 0 134.067 92.171">
  <g id="header__it-03" transform="translate(-315.473 -712.296)">
    <rect id="長方形_152" data-name="長方形 152" width="129" height="50" rx="4" transform="translate(317.885 752.171)" fill="#fee59c"/>
    <rect id="長方形_153" data-name="長方形 153" width="45" height="23" rx="11.5" transform="translate(360.885 715.171)" fill="#fee59c"/>
    <g id="_976603-accessories-appliances-computer-keyboard-mouse_106542" data-name="976603-accessories-appliances-computer-keyboard-mouse_106542" transform="translate(315.473 712.296)">
      <path id="パス_89" data-name="パス 89" d="M127.783,14H6.284A6.284,6.284,0,0,0,0,20.284v41.9a6.284,6.284,0,0,0,6.284,6.284h121.5a6.284,6.284,0,0,0,6.284-6.284v-41.9A6.284,6.284,0,0,0,127.783,14Zm2.095,48.18a2.1,2.1,0,0,1-2.095,2.095H6.284A2.1,2.1,0,0,1,4.19,62.18v-41.9A2.1,2.1,0,0,1,6.284,18.19h121.5a2.1,2.1,0,0,1,2.095,2.095Z" transform="translate(0 23.706)" fill="#0e2a3b"/>
      <path id="パス_90" data-name="パス 90" d="M26.19,28.379H22v4.19h8.379V20H26.19Z" transform="translate(70.171 42.844)" fill="#0e2a3b"/>
      <rect id="長方形_63" data-name="長方形 63" width="13.38" height="2.973" transform="translate(87.711 80.278)" fill="#0e2a3b"/>
      <rect id="長方形_64" data-name="長方形 64" width="75.818" height="4.46" transform="translate(16.353 62.439)" fill="#0e2a3b"/>
      <rect id="長方形_65" data-name="長方形 65" width="2.973" height="4.46" transform="translate(8.92 62.439)" fill="#0e2a3b"/>
      <rect id="長方形_66" data-name="長方形 66" width="2.973" height="4.46" transform="translate(8.92 46.086)" fill="#0e2a3b"/>
      <rect id="長方形_67" data-name="長方形 67" width="7.433" height="4.46" transform="translate(8.92 71.358)" fill="#0e2a3b"/>
      <rect id="長方形_68" data-name="長方形 68" width="11.893" height="2.973" transform="translate(8.92 80.278)" fill="#0e2a3b"/>
      <rect id="長方形_69" data-name="長方形 69" width="57.979" height="2.973" transform="translate(25.273 80.278)" fill="#0e2a3b"/>
      <rect id="長方形_70" data-name="長方形 70" width="66.898" height="4.46" transform="translate(20.813 71.358)" fill="#0e2a3b"/>
      <rect id="長方形_71" data-name="長方形 71" width="92.171" height="2.973" transform="translate(8.92 55.005)" fill="#0e2a3b"/>
      <rect id="長方形_72" data-name="長方形 72" width="22.299" height="2.973" transform="translate(104.064 55.005)" fill="#0e2a3b"/>
      <rect id="長方形_73" data-name="長方形 73" width="84.738" height="4.46" transform="translate(16.353 46.086)" fill="#0e2a3b"/>
      <rect id="長方形_74" data-name="長方形 74" width="22.299" height="4.46" transform="translate(104.064 62.439)" fill="#0e2a3b"/>
      <path id="パス_91" data-name="パス 91" d="M34.379,23H30.19v4.19H26v4.19H38.569V27.19h-4.19Z" transform="translate(82.93 52.413)" fill="#0e2a3b"/>
      <path id="パス_92" data-name="パス 92" d="M24.664,34.327H43.517A14.664,14.664,0,1,0,43.517,5H24.664a14.664,14.664,0,0,0,0,29.327ZM53.991,19.664A10.474,10.474,0,0,1,43.517,30.138H35.138V9.19h8.379A10.474,10.474,0,0,1,53.991,19.664ZM24.664,9.19h6.284V30.138H24.664a10.474,10.474,0,0,1,0-20.948Z" transform="translate(31.896 -5)" fill="#0e2a3b"/>
      <rect id="長方形_75" data-name="長方形 75" width="7.433" height="4.46" transform="translate(50.545 11.893)" fill="#0e2a3b"/>
    </g>
  </g>
</svg>
