<svg xmlns="http://www.w3.org/2000/svg" width="36" height="36" viewBox="0 0 36 36">
  <g id="icon-document" transform="translate(-420.249 -890.181)">
    <path id="パス_115" data-name="パス 115" d="M2.941,0H5.881A16.908,16.908,0,0,1,22.79,16.908V25a2.941,2.941,0,0,1-2.941,2.941H2.941A2.941,2.941,0,0,1,0,25V2.941A2.941,2.941,0,0,1,2.941,0Z" transform="translate(427.217 894.217)" fill="#fff"/>
    <g id="页面-1" transform="translate(420.249 889.807)">
      <g id="File" transform="translate(0 0)">
        <g id="document_2_line">
          <rect id="矩形" width="36" height="36" transform="translate(0 0.374)" fill="none"/>
          <path id="形状结合" d="M18.528,2a3.031,3.031,0,0,1,2.143.888h0l6.69,6.69a3.031,3.031,0,0,1,.888,2.143h0V29.281a3.031,3.031,0,0,1-3.031,3.031H7.031A3.031,3.031,0,0,1,4,29.281H4V5.031A3.031,3.031,0,0,1,7.031,2h11.5Zm-2.4,3.031H7.031v24.25H25.218V14.125H18.4a2.273,2.273,0,0,1-2.273-2.273Zm4.547,15.156a1.516,1.516,0,1,1,0,3.031H11.578a1.516,1.516,0,1,1,0-3.031Zm-7.578-6.062a1.516,1.516,0,0,1,0,3.031H11.578a1.516,1.516,0,1,1,0-3.031h1.516Zm6.062-8.466v5.435h5.435Z" transform="translate(1.834 1.401)" fill="#0e2a3b"/>
        </g>
      </g>
    </g>
  </g>
</svg>
