<?xml version="1.0" encoding="UTF-8"?>
<svg id="_レイヤー_2" data-name="レイヤー 2" xmlns="http://www.w3.org/2000/svg" viewBox="0 0 35.5 21.3">
  <g id="logo">
    <g>
      <path d="M34.8,.7c-.5-.5-1-.7-1.7-.7H2.4C1.7,0,1.2,.2,.7,.7c-.5,.5-.7,1-.7,1.7V18.9c0,.7,.2,1.2,.7,1.7,.5,.5,1,.7,1.7,.7h30.8c.7,0,1.2-.2,1.7-.7,.5-.5,.7-1,.7-1.7V2.4c0-.7-.2-1.2-.7-1.7Z" fill="#0e2a3b"/>
      <rect x="2.4" y="2.4" width="30.8" height="16.6" fill="#ffe59c"/>
      <path d="M5,16.6h1.8c.2,0,.3,0,.3-.3v-1.8c0-.2,0-.3-.3-.3h-1.8c-.2,0-.3,0-.3,.3v1.8c0,.2,0,.3,.3,.3Z" fill="#0e2a3b"/>
      <path d="M5,11.8h4.1c.2,0,.3,0,.3-.3v-1.8c0-.2,0-.3-.3-.3H5c-.2,0-.3,0-.3,.3v1.8c0,.2,0,.3,.3,.3Z" fill="#0e2a3b"/>
      <path d="M5,7.1h1.8c.2,0,.3,0,.3-.3v-1.8c0-.2,0-.3-.3-.3h-1.8c-.2,0-.3,0-.3,.3v1.8c0,.2,0,.3,.3,.3Z" fill="#0e2a3b"/>
      <path d="M25.7,14.2H9.8c-.2,0-.3,0-.3,.3v1.8c0,.2,0,.3,.3,.3h16c.2,0,.3,0,.3-.3v-1.8c0-.2,0-.3-.3-.3Z" fill="#0e2a3b"/>
      <path d="M11.8,11.5c0,.2,0,.3,.3,.3h1.8c.2,0,.3,0,.3-.3v-1.8c0-.2,0-.3-.3-.3h-1.8c-.2,0-.3,0-.3,.3v1.8h0Z" fill="#0e2a3b"/>
      <path d="M9.8,7.1h1.8c.2,0,.3,0,.3-.3v-1.8c0-.2,0-.3-.3-.3h-1.8c-.2,0-.3,0-.3,.3v1.8c0,.2,0,.3,.3,.3Z" fill="#0e2a3b"/>
      <path d="M16.6,11.5c0,.2,0,.3,.3,.3h1.8c.2,0,.3,0,.3-.3v-1.8c0-.2,0-.3-.3-.3h-1.8c-.2,0-.3,0-.3,.3v1.8h0Z" fill="#0e2a3b"/>
      <path d="M14.5,7.1h1.8c.2,0,.3,0,.3-.3v-1.8c0-.2,0-.3-.3-.3h-1.8c-.2,0-.3,0-.3,.3v1.8c0,.2,0,.3,.3,.3Z" fill="#0e2a3b"/>
      <path d="M21.3,11.5c0,.2,0,.3,.3,.3h1.8c.2,0,.3,0,.3-.3v-1.8c0-.2,0-.3-.3-.3h-1.8c-.2,0-.3,0-.3,.3v1.8Z" fill="#0e2a3b"/>
      <path d="M30.5,14.2h-1.8c-.2,0-.3,0-.3,.3v1.8c0,.2,0,.3,.3,.3h1.8c.2,0,.3,0,.3-.3v-1.8c0-.2,0-.3-.3-.3Z" fill="#0e2a3b"/>
      <path d="M19.2,7.1h1.8c.2,0,.3,0,.3-.3v-1.8c0-.2,0-.3-.3-.3h-1.8c-.2,0-.3,0-.3,.3v1.8c0,.2,0,.3,.3,.3Z" fill="#0e2a3b"/>
      <path d="M24,7.1h1.8c.2,0,.3,0,.3-.3v-1.8c0-.2,0-.3-.3-.3h-1.8c-.2,0-.3,0-.3,.3v1.8c0,.2,0,.3,.3,.3Z" fill="#0e2a3b"/>
      <path d="M26,11.5c0,.2,0,.3,.3,.3h4.1c.2,0,.3,0,.3-.3V5c0-.2,0-.3-.3-.3h-1.8c-.2,0-.3,0-.3,.3v4.4h-2.1c-.2,0-.3,0-.3,.3v1.8h0Z" fill="#0e2a3b"/>
    </g>
  </g>
</svg>