<?xml version="1.0" encoding="UTF-8"?>
<svg id="_レイヤー_2" data-name="レイヤー 2" xmlns="http://www.w3.org/2000/svg" viewBox="0 0 39.4 16.9">
  <g id="logo">
    <g>
      <g>
        <path d="M.3,5.7v-1.9c-.1,0,1.9-.2,1.9-.2v-1.7c-.1,0,1.7-.1,1.7-.1v1.7c.1,0,3.8-.3,3.8-.3v1.9c.3,1.5,.3,2.8,.3,3.9,0,2.1-.8,2.4-1.7,2.6-.4,0-.8,0-1.1,0-.6,0-1-.2-1.1-.2v-1.9s.7,.4,1.7,.2c.2,0,.4-.3,.4-.8,0-.3,0-.7,0-1.3,0-.6,0-1.4-.2-2.3h-1.9c.2,2.5-.5,4.3-1.5,5.5-.9,.9-1.7,1.5-1.9,1.5l-.2-2.2c.3-.2,.7-.5,1-.9,.6-.8,.9-1.8,.8-3.7l-2,.2ZM6.1,.3v1.9c.1,0-.8,0-.8,0V.4c-.1,0,.8,0,.8,0Zm1.4-.1v1.9c.1,0-.8,0-.8,0V.3c-.1,0,.8,0,.8,0Z" fill="#ffe59c"/>
        <path d="M12.9,6.9l-.8,5.6-1.8-.2,.8-5.6,1.8,.2Zm-1.2,8c.8,0,1.4-.2,2.1-.7,.6-.5,1.2-1.3,1.4-2.6l.6-4.4,1.8,.2-.6,4.3c-.3,2-1.1,3.3-2.3,4-.6,.4-1.1,.6-1.6,.7-.8,.2-1.6,.3-1.7,.3l.3-2Z" fill="#ffe59c"/>
        <path d="M28.5,6.2c-.8,2.6-2,4.3-3.2,5.3-1.2,1-2.2,1.4-3.7,1.6l-.9-9.5,1.9-.2,.7,7.2c.3-.1,.7-.3,1.2-.7,.9-.8,1.6-1.8,2.1-3.5l2-.2Z" fill="#ffe59c"/>
        <path d="M35.5,14.8l.4-5.2c-.9,1.8-2.2,2.9-3.3,3.6-.9,.6-1.6,1-1.8,1l.2-2.2c.1,0,.7-.4,1.4-.9,.8-.6,1.8-1.7,2.6-3.3l-3.6-.3v-1.8c.1,0,4.8,.4,4.8,.4v-1.5c.1,0,2,.2,2,.2v1.5c-.1,0,1.2,.1,1.2,.1v1.8c-.1,0-1.5-.1-1.5-.1l-.5,6.8-1.9-.2Z" fill="#ffe59c"/>
      </g>
      <g>
        <path d="M.1,5.5v-1.9c-.1,0,1.9-.2,1.9-.2V1.8c-.1,0,1.7-.1,1.7-.1v1.7c.1,0,3.8-.3,3.8-.3v1.9c.3,1.5,.3,2.8,.3,3.9,0,2.1-.8,2.4-1.7,2.6-.4,0-.8,0-1.1,0-.6,0-1-.2-1.1-.2v-1.9s.7,.4,1.7,.2c.2,0,.4-.3,.4-.8,0-.3,0-.7,0-1.3,0-.6,0-1.4-.2-2.3h-1.9c.2,2.5-.5,4.3-1.5,5.5-.9,.9-1.7,1.5-1.9,1.5l-.2-2.2c.3-.2,.7-.5,1-.9,.6-.8,.9-1.8,.8-3.7l-2,.2ZM5.9,.1V2c.1,0-.8,0-.8,0V.2c-.1,0,.8,0,.8,0Zm1.4-.1V1.9c.1,0-.8,0-.8,0V0c-.1,0,.8,0,.8,0Z" fill="#0e2a3b"/>
        <path d="M12.7,6.7l-.8,5.6-1.8-.2,.8-5.6,1.8,.2Zm-1.2,8c.8,0,1.4-.2,2.1-.7,.6-.5,1.2-1.3,1.4-2.6l.6-4.4,1.8,.2-.6,4.3c-.3,2-1.1,3.3-2.3,4-.6,.4-1.1,.6-1.6,.7-.8,.2-1.6,.3-1.7,.3l.3-2Z" fill="#0e2a3b"/>
        <path d="M28.3,6c-.8,2.6-2,4.3-3.2,5.3-1.2,1-2.2,1.4-3.7,1.6l-.9-9.5,1.9-.2,.7,7.2c.3-.1,.7-.3,1.2-.7,.9-.8,1.6-1.8,2.1-3.5l2-.2Z" fill="#0e2a3b"/>
        <path d="M35.3,14.6l.4-5.2c-.9,1.8-2.2,2.9-3.3,3.6-.9,.6-1.6,1-1.8,1l.2-2.2c.1,0,.7-.4,1.4-.9,.8-.6,1.8-1.7,2.6-3.3l-3.6-.3v-1.8c.1,0,4.8,.4,4.8,.4v-1.5c.1,0,2,.2,2,.2v1.5c-.1,0,1.2,.1,1.2,.1v1.8c-.1,0-1.5-.1-1.5-.1l-.5,6.8-1.9-.2Z" fill="#0e2a3b"/>
      </g>
    </g>
  </g>
</svg>