<?xml version="1.0" encoding="UTF-8"?>
<svg id="_レイヤー_2" data-name="レイヤー 2" xmlns="http://www.w3.org/2000/svg" viewBox="0 0 23.8 28.3">
  <g id="logo">
    <g>
      <path d="M17.4,9c-3.6,0-6.4,2.9-6.4,6.4v6.4c0,3.6,2.9,6.4,6.4,6.4s6.4-2.9,6.4-6.4v-6.4c0-3.6-2.9-6.4-6.4-6.4Z" fill="#0e2a3b"/>
      <path d="M22.5,21.9c0,2.8-2.3,5.2-5.2,5.2s-5.2-2.3-5.2-5.2v-6.4c0-2.8,2.3-5.2,5.2-5.2s5.2,2.3,5.2,5.2v6.4Z" fill="#ffe59c"/>
      <path d="M17.4,11.6c-.7,0-1.3,.6-1.3,1.3v1.9c0,.7,.6,1.3,1.3,1.3s1.3-.6,1.3-1.3v-1.9c0-.7-.6-1.3-1.3-1.3Zm-.6-2.6h1.3v-1.9c0-2.1-1.7-3.9-3.9-3.9H3.9C2.4,3.2,1.3,2.1,1.3,.6V0H0V.6c0,2.1,1.7,3.9,3.9,3.9H14.2c1.4,0,2.6,1.2,2.6,2.6v1.9Z" fill="#0e2a3b" fill-rule="evenodd"/>
    </g>
  </g>
</svg>