<?xml version="1.0" encoding="UTF-8"?>
<svg id="_レイヤー_2" data-name="レイヤー 2" xmlns="http://www.w3.org/2000/svg" viewBox="0 0 36.7 37.2">
  <g id="logo">
    <g>
      <path d="M30.7,20.3c.2-.3,2.3-2.2,3.6-1.6s2.2,2,1.9,3.4-1.7,2.8-2.8,2.9-2.7-.4-2.7-.4c0,0,.2-1.1,.1-2s-.1-2.2-.3-2.4Z" fill="#fff"/>
      <path d="M4.8,15.9c-.2,0-.4-.1-.5-.3l-1.1-2.5c-.1-.3,0-.5,.3-.7,.3-.1,.5,0,.7,.3l1.1,2.5c.1,.3,0,.5-.3,.7,0,0-.1,0-.2,0Z" fill="#0e2a3b"/>
      <path d="M4.1,17.9c0,0-.2,0-.3,0L.2,15.8c-.2-.1-.3-.4-.2-.7,.1-.2,.4-.3,.7-.2l3.6,2.1c.2,.1,.3,.4,.2,.7,0,.2-.3,.2-.4,.2Z" fill="#0e2a3b"/>
      <path d="M.5,21.2c-.2,0-.4-.1-.5-.3,0-.3,0-.5,.3-.6l2.9-1.1c.3,0,.5,0,.6,.3,0,.3,0,.5-.3,.6l-2.9,1.1c0,0-.1,0-.2,0Z" fill="#0e2a3b"/>
      <path d="M17.9,22.3c.7,1.6,.3,3.4-3.5,3.2-2.6-.1-2.8-1.8-2.4-3.4h-.1c-1,.4-1.7,.9-2.1,1.5h0c0,0-2.5,.3-2.8-.7s0-.2,0-.4c-.1-1.8,.4-7.6,.7-9.5h0c1.6,.7,4.1,0,4.1,0,0-1.6-1.1-4.1-3.5-3.8,0-.2,0-.3,0-.5,.2-1.7,1.8-3.9,3.4-4.3,.3,1.3,2,2,4.4,1.8,2.4-.2,3-2,4.6-2,1.6,0,4.8,.4,5.1,3.1,.3,2.7,2.3,2.7,2.3,6,0,1,.6,4,.7,6.4,0,.8,0,1.6-.2,2.1-.6,2.2-3.7,2.7-6.8,2.2h-.1c-.6-.8-1.7-1.5-3.6-1.8h-.1Zm3.7-11.6s1-.5,1.7-1.2c-3-1.2-5.2,1.7-5.2,3.5,0,0,5.7,1.3,6.5-1.6-.9-.8-3-.7-3-.7Z" fill="#fff"/>
      <path d="M23.3,9.4c-.7,.7-1.7,1.2-1.7,1.2,0,0,2.1,0,3,.7-.8,2.9-6.5,1.6-6.5,1.6,0-1.8,2.1-4.7,5.2-3.5Z" fill="#ffe59c"/>
      <path d="M33.3,18.6v-.2c.7-3.9,0-8.9-2.4-12.4C27.9,1.7,22.9,.7,20.9,.6c-3.6-.2-8-.2-10,1-2,1.2-4.9,5.1-2.8,7.1h0c.2-1.7,1.8-3.9,3.4-4.3,.3,1.3,2,2,4.4,1.8,2.4-.2,3-2,4.6-2,1.6,0,4.8,.3,5.1,3.1,.3,2.7,2.3,2.7,2.3,6,0,1,.6,4,.7,6.4,0,.8,0,1.6-.2,2.1-.6,2.2-3.7,2.7-6.8,2.2h-.1c-.6-.8-1.7-1.5-3.6-1.8h-.1c.7,1.7,.3,3.5-3.5,3.3-2.6-.1-2.8-1.8-2.4-3.4h-.1c-1,.4-1.7,.9-2.1,1.5h0c0,0-2.5,.3-2.8-.7,0,0,0-.2,0-.4h0c-1,.7-2.1,2.8-2.1,4.5s.7,4.7,3,5.4c.4,2.4,5.2,1.8,7.9,4.2,3.4-2.5,9.3-.8,10.6-3.8,4.6,.2,7.8-4.9,7-7.9h0c-1.1,.1-2.1-.2-2.1-.2h-.2c.2-1.3,.2-3-.1-4.3h0c0-.3,1.2-1.5,2.5-1.8Z" fill="#ffe59c"/>
      <ellipse cx="20.4" cy="17" rx=".9" ry="1.5" fill="#0e2a3b"/>
      <ellipse cx="10.2" cy="17.2" rx=".9" ry="1.5" fill="#0e2a3b"/>
      <path d="M11.5,13s-2.5,.8-4.1,0c-.6-.3-1-.8-1.2-1.5,.2-.5,1.3-.8,1.3-.8,0,0-.6-.8-.5-1.1,.3-.1,.7-.2,1-.2,2.4-.3,3.5,2.2,3.5,3.8Z" fill="#ffe59c"/>
      <path d="M36.7,21c-.1-1.1-.7-2.1-1.7-2.6-.4-.2-.7-.3-1.2-.3,.7-4.3-.3-9.1-2.5-12.3C27.8,.7,21.6,.2,21,.1c-3.5-.2-8.2-.2-10.3,1.1-1.6,.9-3.5,3.3-3.7,5.3-.1,.9,0,1.7,.6,2.3-.2,0-.4,.1-.6,.2-.2,0-.3,.2-.3,.4,0,.3,0,.7,.3,1-.4,.2-.8,.5-1,.9,0,.1,0,.2,0,.3,.2,.7,.6,1.2,1.1,1.6-.3,2-.7,7.2-.7,9.2-1.1,.9-2.1,3-2.1,4.7s.6,4.8,3,5.8c.4,1.4,2.1,1.9,3.8,2.4,1.4,.4,3.1,.9,4.2,1.9,0,0,.2,.1,.3,.1s.2,0,.3,0c1.5-1.1,3.4-1.3,5.3-1.6,2.2-.3,4.3-.5,5.2-2.2,2,0,4-1,5.5-2.8,1.3-1.6,2-3.6,1.8-5.2,.7-.2,1.3-.5,1.8-1,.9-.9,1.3-2.1,1.2-3.3Zm-26.6,2.9c.3-.4,.7-.7,1.2-1,0,.8,0,1.5,.4,2,.5,.7,1.4,1.1,2.6,1.1,.2,0,.4,0,.5,0,1.7,0,2.8-.4,3.4-1.2,.4-.5,.5-1.2,.3-1.9,1.2,.3,2.1,.8,2.6,1.5,.8,1.2,.5,2.6-.2,3.3-.3,.3-1,.8-1.9,.2-.1,0-.3-.1-.5,0-.2,0-.3,.2-.3,.4-.2,.9-1.3,1.3-2.2,1.4-1.7,.2-3.8-.4-4.4-1.9,0-.1-.2-.3-.4-.3-.2,0-.3,0-.4,.1-.1,0-.4,.4-.9,0-.6-.6-1-2.2,.1-3.6Zm11.7-.4h0c-.6-.7-1.7-1.5-3.6-1.8-.1-.2-.2-.4-.4-.6-.2-.2-.5-.3-.7-.1-.2,.2-.3,.5-.1,.7,.2,.3,.3,.5,.4,.8,.2,.4,.4,1.2,0,1.7-.4,.6-1.5,.9-3.1,.8-.9,0-1.5-.3-1.8-.7-.3-.4-.4-1.1-.1-2,.2-1,.7-1.9,1-2.6v-.3c.8-1.3,.6-2.7,.2-4.1,0-.3-.3-.4-.6-.4-.3,0-.4,.3-.4,.6,.3,1.3,.5,2.4,0,3.5v.3c-.4,.6-.9,1.5-1.1,2.4-.9,.4-1.5,.9-2.1,1.5-.9,.1-2.1,0-2.2-.3,0,0,0,0,0-.3-.1-1.5,.3-6.5,.6-8.9,.5,.1,1,.2,1.5,.2,1.2,0,2.3-.3,2.3-.3,.2,0,.4-.3,.4-.5,0-1.1-.5-2.6-1.5-3.5-.6-.5-1.2-.8-1.9-.8,.2-1.3,1.4-3.1,2.6-3.6,.6,1.2,2.4,1.8,4.8,1.6,1.5-.1,2.3-.8,3-1.3,.6-.4,1-.7,1.6-.7,.7,0,4.3,0,4.6,2.6,.2,1.3,.7,2.1,1.2,2.8,.6,.8,1.1,1.5,1,3.2,0,.5,.1,1.3,.3,2.3,.2,1.3,.4,2.8,.5,4.2,0,.8,0,1.5-.1,2-.6,1.9-3.5,2.3-6.2,1.9ZM7.7,11.1c.2,0,.3-.2,.3-.3,0-.2,0-.3,0-.5-.1-.2-.3-.4-.3-.5,.1,0,.3,0,.4,0,.7,0,1.3,.1,1.8,.6,.7,.6,1.1,1.6,1.1,2.4-.7,.2-2.3,.4-3.3-.1h0c-.4-.2-.7-.5-.9-1,.2-.2,.6-.3,.9-.4ZM31.1,29.9c-1.3,1.6-3.1,2.5-5,2.5-.2,0-.4,.1-.5,.3-.6,1.4-2.4,1.6-4.6,1.9-1.8,.2-3.9,.5-5.5,1.5-1.3-1-2.8-1.4-4.3-1.8-1.9-.5-3-.9-3.2-1.8,0-.2-.2-.3-.3-.4-2.1-.7-2.6-3.5-2.6-5s.6-2.8,1.3-3.6c.4,.6,1.4,.7,2.1,.7s.1,0,.2,0c-.7,1.5-.4,3.2,.5,4.1,.5,.5,1.1,.6,1.7,.4,.9,1.4,2.8,2,4.5,2s.5,0,.7,0c1.4-.2,2.5-.7,2.9-1.6,.9,.3,1.9,.1,2.6-.6,.8-.8,1.3-2.4,.7-3.8,.4,0,.9,0,1.3,0,2.8,0,4.8-1,5.3-2.8,.2-.6,.2-1.3,.2-2.3,0-1.4-.3-3-.5-4.3-.1-.9-.3-1.7-.2-2.1,0-2-.6-3-1.2-3.8-.5-.6-.9-1.2-1-2.3-.3-2.7-3.1-3.6-5.6-3.5-.9,0-1.5,.5-2.1,.9-.7,.5-1.4,1-2.5,1.1-2.2,.2-3.7-.3-3.9-1.4,0-.1-.1-.2-.2-.3s-.2,0-.4,0c-1.5,.3-2.9,1.9-3.5,3.5,0-.3,0-.6,0-.9,.2-1.7,1.9-3.8,3.3-4.6,1.5-.9,5-1.2,9.8-.9,.6,0,6.4,.5,9.6,5.2,2.1,3.1,3,7.8,2.3,11.9-.7,.2-1.4,.7-1.9,1.2,0,0,0,0,0,0-.1-.3-.4-.4-.7-.3-.3,.1-.4,.4-.3,.7,.1,.3,.2,.5,.3,.8,.3,1.3,.3,2.9,.1,4,0,.2,0,.3,0,.4,0,.3,0,.5,.4,.6,0,0,0,0,.1,0,.2,0,.4-.1,.5-.3,.3,0,.8,.2,1.4,.2s0,0,.1,0c.2,1.3-.4,3-1.6,4.4Zm1.9-5.5c-.7,0-1.4,0-1.7-.1,.1-1.1,.1-2.5-.1-3.7,0,0,0,0,0-.1,.2-.3,1.1-1.2,2.1-1.4,.4,0,.8,0,1.1,.1,.7,.4,1.1,1.1,1.2,1.9,.1,.9-.2,1.8-.9,2.5-.5,.5-1,.7-1.7,.8Z" fill="#0e2a3b"/>
      <path d="M25.1,11.5c0-.2,0-.4-.2-.5-.5-.4-1.2-.6-1.8-.7,.2-.1,.4-.3,.5-.5,.1-.1,.2-.3,.2-.5,0-.2-.1-.3-.3-.4-1.3-.5-2.7-.4-3.8,.4-1.2,.8-2.1,2.3-2.1,3.6s.2,.4,.4,.5c.1,0,1.4,.3,2.9,.3s3.7-.4,4.2-2.2Zm-6.4,1c.1-.8,.7-1.7,1.6-2.3,.4-.3,1.1-.6,1.9-.5-.5,.3-.9,.5-.9,.5-.2,.1-.3,.3-.3,.6,0,.2,.3,.4,.5,.4,.5,0,1.7,0,2.4,.4-.8,1.6-4.1,1.2-5.3,1Z" fill="#0e2a3b"/>
      <path d="M33.6,20.3c-.8,.2-1.2,.6-1.3,1-.4,.9,0,1.8,.1,1.9,0,.2,.3,.3,.4,.3s.2,0,.2,0c.2-.1,.3-.4,.2-.7,0-.2-.3-.7-.1-1.1,0-.2,.3-.3,.6-.4,.3,0,.4-.3,.4-.6,0-.3-.3-.4-.6-.4Z" fill="#0e2a3b"/>
      <path d="M25.9,19c0-.3-.2-.5-.5-.5-.3,0-.5,.2-.5,.5-.2,1.7-1.1,2-1.9,2-.3,0-.5,.2-.5,.5,0,.3,.2,.5,.5,.5s0,0,0,0c1.2,0,2.6-.6,2.8-2.9Z" fill="#0e2a3b"/>
      <path d="M6.4,19.2c0-.3,.2-.5,.4-.5,.3,0,.5,.2,.5,.4,.2,1.6,1,1.9,1.7,1.9,.3,0,.5,.2,.4,.5,0,.3-.2,.4-.5,.4s0,0,0,0c-1.1,0-2.4-.6-2.6-2.8Z" fill="#0e2a3b"/>
    </g>
  </g>
</svg>