<svg xmlns="http://www.w3.org/2000/svg" width="77.904" height="74.665" viewBox="0 0 77.904 74.665">
  <g id="telescope" transform="translate(0.001 -10.642)">
    <path id="パス_114" data-name="パス 114" d="M0,0H46.185V18.258H0Z" transform="translate(7.311 11.998) rotate(19)" fill="#fff"/>
    <path id="パス_77" data-name="パス 77" d="M77.9,41.619,77.9,41.6l-5.981-2.01h0l-.024-.008-.3.915L64.3,38.039l.94-2.795L52.065,29.491a3.618,3.618,0,0,0-2.388-4.027L15.494,13.955l.258-.774v0h0l.008-.024L8.685,10.767a2.411,2.411,0,0,0-3.049,1.512L.123,28.665a2.41,2.41,0,0,0,1.512,3.048l6.979,2.355.074.025h0l.023.008.266-.813,20.109,6.77,3.366,1.131v5.792A3.215,3.215,0,0,0,34.2,49.853v2.219h-8.7v4.908h2.413l.493,0L24.066,81.089l-.76,4.193h0l0,.024h3.836l1.55-8.625v0h4.538V74.845H30.255l-1.22-.01.152-.872.3-1.7L32.236,56.98H34.2V85.307h3.773V56.979h1.944l2.757,15.281.292,1.7.135.778.015.1H38.952v1.832h4.514v0l1.549,8.625h3.862L44.56,61.356l-.785-4.377h2.9V52.1h0v-.024h-8.7V49.852a3.214,3.214,0,0,0,1.753-2.871V44.42l.007-.776L43.173,44.8a3.584,3.584,0,0,0,4.332-1.778L61.478,46.41l.94-2.795L69.71,46.08l-.3.875v0h0l-.008.023,5.953,2,.032.011h0l.023.008,2.474-7.356.008-.026Zm-41.81,6.4a1.29,1.29,0,0,1-1.283-1.3,1.077,1.077,0,0,1,.038-.292,1.269,1.269,0,0,1,1.245-.99,1.283,1.283,0,0,1,1.258.99,1.077,1.077,0,0,1,.038.292A1.3,1.3,0,0,1,36.085,48.024ZM7.065,19.3a.8.8,0,0,1-.565-1.05l1.359-4.027A.812.812,0,0,1,8.889,13.7l2.146.725a.815.815,0,0,1,.293,1.359L7.834,19.1a.8.8,0,0,1-.769.2ZM39.731,40.72v-.026l-7.191-2.414h-.089v.026l0,.012-3.275-1.1-18.9-6.364,4.764-14.176L48.813,28.042a.87.87,0,0,1,.547,1.08l-4.23,12.563a.852.852,0,0,1-1.08.534l-1.772-.6Z" transform="translate(0)" fill="#0e2a3b"/>
  </g>
</svg>
