<svg xmlns="http://www.w3.org/2000/svg" width="352.68" height="57.98" viewBox="0 0 352.68 57.98">
  <g id="text" transform="translate(182.9 -194.8)">
    <path id="パス_120" data-name="パス 120" d="M11.96,6.32a6.251,6.251,0,0,1-2.64,4.62V13.3a7.486,7.486,0,0,0,3.26-2.94A10.019,10.019,0,0,0,14,6.82V4.42H1.6v1.9ZM1.6,19.46a9.659,9.659,0,0,0,3.56-2.14C6.64,16,7.46,13.74,7.52,10.8V9.42H5.58v1.26c-.02,3.02-1.04,4.74-2.16,5.62A6.477,6.477,0,0,1,1.6,17.32Zm27.88-3.3V13.68a12.8,12.8,0,0,1-3.88,2.68V4.38H23.68V19.12A11.29,11.29,0,0,0,29.48,16.16ZM17.08,18.7h2.18a22.568,22.568,0,0,0,1.6-9V4.6H18.92V9.7a22.154,22.154,0,0,1-1.08,7.04C17.56,17.54,17.3,18.2,17.08,18.7Zm24.8-2.2H32.76v1.94H43.9V4.96H32.76V6.9h9.12ZM41.6,3.76h1.52V.8H41.6Zm2.38,0H45.5V.8H43.98Zm6.68.26H48.68v8.22h1.98Zm.9,15.48a9.483,9.483,0,0,0,4.24-2.1c1.6-1.36,2.66-3.46,2.68-6.64V4.02H56.5v6.74a7.03,7.03,0,0,1-1.86,4.96,6.528,6.528,0,0,1-3.08,1.66ZM70.86,6.56a20.264,20.264,0,0,1-5.38,8.18,18.016,18.016,0,0,1-2.96,2.2v2.2a17.573,17.573,0,0,0,3.84-2.64,25.255,25.255,0,0,0,2.86-3.02,28.447,28.447,0,0,0,5.22,5.4V16.4a21.123,21.123,0,0,1-4.06-4.56,22.135,22.135,0,0,0,3.14-7.22H63.26V6.56ZM71,3.76h1.52V.8H71Zm2.38,0H74.9V.8H73.38Zm9.94.62H81.24a67.186,67.186,0,0,1-2.3,8.3c-.42,1.18-.9,2.44-1.42,3.76v2.28h12.7a46.132,46.132,0,0,0-2.48-8.62H85.68a37.831,37.831,0,0,1,1.96,6.64H79.76a67.618,67.618,0,0,0,2.32-7.12C82.54,7.9,82.94,6.16,83.32,4.38ZM104.16.8h-1.52V3.76h1.52ZM93.88,19.2h2.06A34.994,34.994,0,0,0,98.06,9.06c.36-.02.66-.04.92-.04h.82c.9,0,1.4.48,1.5,1.78a28.069,28.069,0,0,1-.1,5.2c-.12.78-.5,1.22-1.14,1.28A8.094,8.094,0,0,1,98.04,17v1.96a9.08,9.08,0,0,0,2.14.2c3.14-.1,3.4-3.8,2.96-8.46-.18-2.62-1.14-3.52-2.84-3.52H98.18c.06-1.18.06-2.24.02-3.14H96.32c.02.94.02,2.04-.02,3.28-.98.06-1.78.1-2.42.16V9.44c.52-.06,1.3-.14,2.34-.22A32.99,32.99,0,0,1,93.88,19.2Zm9.08-14.56a21.531,21.531,0,0,1,2.1,7.12h2.12a24.177,24.177,0,0,0-2.14-7.12Zm2.06-.88h1.52V.8h-1.52ZM115,16.8V15.44h3.76V14.08H115V13.06h3.72V7.04H115V6h3.96V7.5h2.12c-.16,3.64-.66,6.66-2.3,8.92C117.52,16.56,116.24,16.68,115,16.8Zm-5.88.5.24,1.58c2.14-.2,5.02-.5,7.9-.84a4.393,4.393,0,0,1-.36.28,6.254,6.254,0,0,1,1.34,1.38c3.44-2.64,4.34-6.88,4.6-12.2h2.36c-.16,6.88-.36,9.42-.8,9.98a.758.758,0,0,1-.72.32c-.36,0-1.18,0-2.1-.08a4.917,4.917,0,0,1,.52,1.76,14.007,14.007,0,0,0,2.46-.02,1.767,1.767,0,0,0,1.42-.86c.64-.86.82-3.7,1.04-11.96l.02-.86H122.9c.02-1.36.04-2.8.04-4.28h-1.78c0,1.5,0,2.92-.02,4.28h-2.1V4.62H115V3.34c1.38-.14,2.7-.34,3.76-.56l-.88-1.4a62.214,62.214,0,0,1-8.58.98,5.536,5.536,0,0,1,.44,1.34c1.12-.04,2.34-.1,3.56-.2V4.62h-4.12V6h4.12V7.04h-3.58v6.02h3.58v1.02h-3.64v1.36h3.64v1.52C111.72,17.1,110.28,17.22,109.12,17.3Zm2.12-5.46V10.62h2.06v1.22Zm0-2.36V8.26h2.06V9.48ZM115,11.84V10.62h2.14v1.22Zm0-2.36V8.26h2.14V9.48Zm22.42-5.2c-1.28,1.02-2.16,1.76-4,3.26-.92.8-1.46,1.26-1.68,1.44-1.52,1.24-1.58,2.64-.18,4.12a11.686,11.686,0,0,0,1.1,1.16c.6.56,2.26,2.16,5.06,4.8h2.96c-.98-.86-2.68-2.4-4.24-3.84-1.38-1.24-2.82-2.68-3.26-3.12-.44-.42-.68-.74-.68-.96,0-.24.2-.52.58-.86.34-.36,1.64-1.46,3.32-2.8l4.08-3.2Zm8.88,15.04h2.42A40.924,40.924,0,0,0,146.66,14h-2.38A43.192,43.192,0,0,1,146.3,19.32Zm18.64-7.82-.26-1.68-1.86.54V6.84h1.98V5.12h-1.98V1.26H161.1V5.12h-2.24V6.84h2.24v4.02c-.94.26-1.82.5-2.52.68l.42,1.8,2.1-.64v4.64c0,.28-.08.36-.34.36-.22,0-.96,0-1.76-.02a5.937,5.937,0,0,1,.5,1.72,5.667,5.667,0,0,0,2.6-.36c.54-.28.72-.78.72-1.7V12.18Zm.22-5.86h2.56V8.08h1.78V5.64h3.16V8.08h1.82V5.64h2.46V3.96h-2.46V1.24h-1.82V3.96H169.5V1.24h-1.78V3.96h-2.56Zm.78,13.88h1.7v-.98h6.88v.88h1.76V8.86H165.94Zm1.7-2.62V14.46h2.58V16.9Zm0-4.02v-2.4h2.58v2.4Zm4.24,4.02V14.46h2.64V16.9Zm0-4.02v-2.4h2.64v2.4Zm15.22-8.6c-1.28,1.02-2.16,1.76-4,3.26-.92.8-1.46,1.26-1.68,1.44-1.52,1.24-1.58,2.64-.18,4.12a11.686,11.686,0,0,0,1.1,1.16c.6.56,2.26,2.16,5.06,4.8h2.96c-.98-.86-2.68-2.4-4.24-3.84-1.38-1.24-2.82-2.68-3.26-3.12-.44-.42-.68-.74-.68-.96,0-.24.2-.52.58-.86.34-.36,1.64-1.46,3.32-2.8l4.08-3.2Zm8.88,15.04h2.42A40.924,40.924,0,0,0,196.34,14h-2.38A43.192,43.192,0,0,1,195.98,19.32Zm26.76-15.6V5.88h-4.26V3.72ZM208.6,17.6l1.66.92a17.607,17.607,0,0,0,2.14-4.98l-1.66-.62A13.923,13.923,0,0,1,208.6,17.6Zm1.94-6.38h14.04V2.1H210.54ZM212.3,9.6V7.4h4.38V9.6Zm0-3.72V3.72h4.38V5.88Zm1.08,10.96c0,1.82.6,2.34,2.94,2.34h3.72c1.94,0,2.5-.66,2.74-3.42a5.547,5.547,0,0,1-1.7-.7c-.12,2.12-.26,2.44-1.18,2.44h-3.4c-1.04,0-1.24-.1-1.24-.66V13.2h-1.88Zm1.9-4.32a17.952,17.952,0,0,1,4.02,2.88l1.32-1.28a18.462,18.462,0,0,0-4.12-2.76Zm3.2-2.92V7.4h4.26V9.6Zm3.84,3.84a18.9,18.9,0,0,1,2.58,4.92l1.8-.76a18.759,18.759,0,0,0-2.72-4.86Zm16.42-6.5h-1.56V4.98h3.92C240.36,5.66,239.56,6.32,238.74,6.94Zm-10.6,5.54a9.511,9.511,0,0,1,1.16,1.46c1.28-.5,2.54-1.04,3.8-1.66-.32,1.26-.64,2.48-.94,3.38l1.86.28c.08-.28.18-.6.26-.94h7.68c-.3,1.66-.64,2.5-1.02,2.8a1.38,1.38,0,0,1-.86.18c-.5,0-1.78-.02-2.96-.14a3.965,3.965,0,0,1,.56,1.72c1.22.06,2.38.06,3,.02a2.423,2.423,0,0,0,1.7-.56c.64-.6,1.12-1.92,1.58-4.74l.1-.82H234.7c.1-.42.2-.86.32-1.3a53.647,53.647,0,0,0,9.02-1.3L242.9,9.62a50.256,50.256,0,0,1-6.98,1.14,39.735,39.735,0,0,0,3.4-2.22h6.82V6.94h-4.78a30.2,30.2,0,0,0,3.98-4.02l-1.52-.84a28.724,28.724,0,0,1-2.12,2.34V3.44h-4.52V1.22h-1.84V3.44H230.5V4.98h4.84V6.94H229v1.6h7.4c-.68.44-1.38.84-2.1,1.24l-.64-.08-.1.46A41.673,41.673,0,0,1,228.14,12.48ZM256.86,10a3.777,3.777,0,0,0-2.16-.8,3.7,3.7,0,0,0-3.72,1.78,4.393,4.393,0,0,0-.62,2.24,3.96,3.96,0,0,0,1.82,3.66,3.721,3.721,0,0,0,2.04.44,4.662,4.662,0,0,0,2.92-1.38l.14.06a6.948,6.948,0,0,1-1.54,3.46h2.2a8.976,8.976,0,0,0,1.38-5.4,7.2,7.2,0,0,0-.58-2.2V7.58h2.88V5.74h-2.88V3.8h-1.88V5.74h-7.68V7.58h7.68Zm-4.6,3.14a2.2,2.2,0,0,1,2.46-2.28,2.639,2.639,0,0,1,2.36,2.34,2.525,2.525,0,0,1-.72,1.5,3.277,3.277,0,0,1-1.48.72A2.067,2.067,0,0,1,252.26,13.14Zm13.78-6.6c2.4,0,4.9-.04,5.56-.04l-6.96,5.64v2.44l1.44-1.26a7.389,7.389,0,0,1,4.82-1.96c2.4-.06,3.6.86,3.6,2.82a3.194,3.194,0,0,1-1.42,2.64,4.581,4.581,0,0,0-3.32-2.96,2.933,2.933,0,0,0-3.2,1.22,2.222,2.222,0,0,0-.34,1.22,3.029,3.029,0,0,0,2.34,2.86,7.337,7.337,0,0,0,5.2-.5,4.837,4.837,0,0,0,2.64-4.44c-.06-2.24-.94-3.62-2.76-4.22a7.7,7.7,0,0,0-3.58.02l4.3-3.4V4.7h-8.32Zm3.22,11.02c-1.64-.62-1.56-2.28.12-2.16a2.812,2.812,0,0,1,2.04,2.1A3.307,3.307,0,0,1,269.26,17.56Zm13.56-4.04a3.13,3.13,0,1,0,0,6.26,3.13,3.13,0,0,0,0-6.26Zm-1.92,3.14a1.92,1.92,0,1,1,1.92,1.92A1.921,1.921,0,0,1,280.9,16.66ZM13.64,41.42a.99.99,0,0,1-1.98,0A.99.99,0,1,1,13.64,41.42Zm-2.56-1.58a2.2,2.2,0,0,0,0,3.14,2.127,2.127,0,0,0,1.56.64,2.21,2.21,0,1,0,0-4.42A2.127,2.127,0,0,0,11.08,39.84Zm-.1,5.84c-.14,4.36-1.42,6.44-3,7.88a9.844,9.844,0,0,1-4.9,2.32v1.98A14.789,14.789,0,0,0,7.6,56.22a9.7,9.7,0,0,0,2.44-2.02,11.987,11.987,0,0,0,2.88-8.16V43.68H1.78v2Zm6-1.72V57.44H28.44V43.96Zm2.1,11.5V45.94h7.24v9.52Zm18.4-12.68H35.44a11.4,11.4,0,0,1-3.26,5.96V51.3a14.311,14.311,0,0,0,4-4.54h5.54c-.22,3.78-1.52,5.66-3.2,7.16a12.344,12.344,0,0,1-4.86,2.64V58.6a15.389,15.389,0,0,0,6.86-3.82,12.142,12.142,0,0,0,3.2-8.02v-1.9H36.94A10.916,10.916,0,0,0,37.48,42.78Zm2.4-.02H41.4V39.8H39.88Zm2.38,0h1.52V39.8H42.26Zm15.9.78H47.76V45.4h10.4ZM47.2,50.22h9.56a6.7,6.7,0,0,1-3.68,4.72,12.853,12.853,0,0,1-4.04,1.2v2.04a16.274,16.274,0,0,0,4.72-1.34,9.882,9.882,0,0,0,2.62-1.76,9.022,9.022,0,0,0,2.66-6.76H47.2Zm26.34-4V44.34a33.815,33.815,0,0,0-6.24-.58H62.96V45.7H67.3A38.571,38.571,0,0,1,73.54,46.22ZM62.58,57.5h5.1a36.537,36.537,0,0,1,6.22.52V56.14a33.759,33.759,0,0,0-6.22-.58h-5.1Zm.86-6.04h3.24a36.417,36.417,0,0,1,6.24.52V50.1a33.986,33.986,0,0,0-6.24-.58H63.44Zm18.82-7.7H77.14v1.96h5.12ZM77.14,57.92a13.434,13.434,0,0,0,6.26-2.34,15.256,15.256,0,0,0,5.74-8.46H87.1a13.154,13.154,0,0,1-4.7,6.76,9.444,9.444,0,0,1-5.26,1.98ZM97.6,42.78H95.56a11.4,11.4,0,0,1-3.26,5.96V51.3a14.311,14.311,0,0,0,4-4.54h5.54c-.22,3.78-1.52,5.66-3.2,7.16a12.344,12.344,0,0,1-4.86,2.64V58.6a15.389,15.389,0,0,0,6.86-3.82,12.141,12.141,0,0,0,3.2-8.02v-1.9H97.06A10.917,10.917,0,0,0,97.6,42.78Zm2.4-.02h1.52V39.8H100Zm2.38,0h1.52V39.8h-1.52Zm4.9,2.9h7.66c-3.1,1.9-4.48,3.58-4.92,6.22a4.867,4.867,0,0,0,1.62,4.4,6.135,6.135,0,0,0,3.62,1.42,16.7,16.7,0,0,0,2.98-.04v-1.9a12.024,12.024,0,0,1-2.9.08,3.726,3.726,0,0,1-3.16-1.98,3.921,3.921,0,0,1-.12-2.56c.44-1.76,2-3.24,4.08-4.44a8.179,8.179,0,0,1,3.14-1.1V43.82h-12Zm8.64,5.1h1.52V47.6h-1.52Zm2.38,0h1.52V47.6H118.3Zm21.24-7.6V41.38h-9.7v1.78Zm-17.98,7.32a10.309,10.309,0,0,1,1.28,1.58,26.471,26.471,0,0,0,1.98-1.8v8.36h1.86V48.2a26.987,26.987,0,0,0,2.18-3.06l-1.76-.66A21.228,21.228,0,0,1,121.56,50.48Zm.2-5.98a8.5,8.5,0,0,1,1.06,1.5,26.4,26.4,0,0,0,5.28-5.06l-1.78-.74A18.1,18.1,0,0,1,121.76,44.5ZM129,48.62h6.32V56.3c0,.28-.12.38-.5.38-.36.02-1.7.02-2.98-.02a7.461,7.461,0,0,1,.6,1.86,12.5,12.5,0,0,0,3.78-.3c.76-.3,1-.84,1-1.9v-7.7h2.88V46.84H129Zm15.16-5.1V45.4c1.16-.06,2.42-.08,3.76-.06a29.011,29.011,0,0,1,4.52.48V43.88a38.974,38.974,0,0,0-4.34-.38C146.44,43.44,145.12,43.46,144.16,43.52Zm-1.54,7.58a23.691,23.691,0,0,1,3.66-1.2,10.312,10.312,0,0,1,2.14-.28c2.62.02,3.56.82,3.56,2.42,0,1.92-.78,3.08-3.04,3.8a15.185,15.185,0,0,1-4.18.6v1.84c3.54,0,7.04-.88,8.26-2.86a5.954,5.954,0,0,0,.88-3.36,3.862,3.862,0,0,0-2.64-3.9,9.854,9.854,0,0,0-2.84-.38,17.4,17.4,0,0,0-5.8,1.22Zm17.5-3.5h4.74v.96h-4.74Zm-3.68-2.18a5.081,5.081,0,0,1,1.14,1.3,17.872,17.872,0,0,0,2.8-2.18v.8h4.74v-1.1c.46.48.86.9,1.18,1.26l1.22-1.4a43.919,43.919,0,0,0-4.28-3.66h-1.68A15.088,15.088,0,0,1,156.44,45.42Zm.02,11.6a6.659,6.659,0,0,1,1.26,1.12,10,10,0,0,0,1.82-3.8v4.2h1.6v-.72h4.06v.6h1.64V53.1h-7.02c.06-.34.1-.7.14-1.04h6.56v-5.8H158.5v3.08C158.5,51.6,158.3,54.74,156.46,57.02Zm3.62-6.3c.02-.34.04-.68.04-1h4.74v1Zm.82-6.68a21.785,21.785,0,0,0,1.78-2,29.034,29.034,0,0,1,2.22,2Zm.24,12.38V54.46h4.06v1.96Zm6.84-2.76h1.74V42.62h-1.74Zm1.08,3.02a9.271,9.271,0,0,1,.6,1.88,9.722,9.722,0,0,0,3.56-.34c.7-.32.94-.86.94-1.96V40.62h-1.8V56.24c0,.34-.16.46-.48.48C171.48,56.72,170.32,56.74,169.06,56.68Zm13.98-15.82-1.78-.56a22.247,22.247,0,0,1-4.76,7.72,11.206,11.206,0,0,1,1.04,1.92,18.074,18.074,0,0,0,1.64-1.96V58.54h1.88V45.04A31.8,31.8,0,0,0,183.04,40.86Zm-1.14,7.18a11.2,11.2,0,0,1,1.44,1.26,20.7,20.7,0,0,0,2.72-4.02h1.12V58.56h1.9V53.92h5.72V52.18h-5.72V49.52h5.44v-1.7h-5.44V45.28H195V43.5h-8.04c.38-.84.72-1.72,1.04-2.58l-1.78-.48A21.25,21.25,0,0,1,181.9,48.04Zm26.78,2.18c.02,3.68-1.74,5.76-3.68,5.88v1.86c3.56-.14,5.74-3.74,5.66-7.52-.22-4.42-2.84-7.06-7.1-6.72-3.58.36-6,3.7-6.06,7.62.02,3,.98,5.4,3.42,5.5,3.46.14,4.04-4.76,4.04-11.14C207.16,45.72,208.58,47.64,208.68,50.22Zm-9.3,1.1c0-2.6,1.52-5.2,3.68-5.6.1,3.88-.32,9.34-2.08,9.24C199.92,54.88,199.38,53.48,199.38,51.32Zm31.6-9.16-1.6-.96a22.122,22.122,0,0,1-3.18,3.24l1.38.9A26.136,26.136,0,0,0,230.98,42.16Zm-17.84,14.6a9.1,9.1,0,0,1,1.24,1.54,18.64,18.64,0,0,0,7.02-4.5v4.74h1.88V53.86a18.727,18.727,0,0,0,7.1,4.3,7.837,7.837,0,0,1,1.26-1.56,17.635,17.635,0,0,1-6.78-3.5h6.34V51.46h-7.92V49.94h2.88V47.38a25.562,25.562,0,0,1,4.28,2.86l1.16-1.4a26.012,26.012,0,0,0-4.54-2.8l-.9,1.02V42.2h-3.24c.2-.52.44-1.12.66-1.72l-2.04-.28c-.1.58-.3,1.34-.48,2h-2.42v7.74h2.76v1.52h-7.8V53.1h6.2A18.161,18.161,0,0,1,213.14,56.76Zm.02-8,.92,1.54c1.3-.76,2.9-1.7,4.34-2.6l-.5-1.5C216.14,47.18,214.36,48.18,213.16,48.76Zm.52-6.26a14.524,14.524,0,0,1,3.16,3.08l1.36-1.18a13.864,13.864,0,0,0-3.24-2.98Zm6.68,6V46.74h4V48.5Zm0-3.12V43.64h4v1.74Zm14.56,8.46c0,3.04,1.28,4.54,3.9,4.6a10.1,10.1,0,0,0,4.78-1.46,17.851,17.851,0,0,0,1.94-1.34v-2.2a23.1,23.1,0,0,1-4.28,2.52,6.446,6.446,0,0,1-2.56.6c-1.42-.1-1.9-.76-1.9-2.66V42.92h-1.88Zm14.48-7.9v1.88l3.72-.02c.86,0,1.62-.02,2.54-.06.12.7.42,1.82.62,2.56.18.68.5,1.8.56,2.12h2c-.22-.78-.4-1.4-1.34-4.78,2.16-.16,3.2-.28,4.08-.4v-1.9a39.6,39.6,0,0,1-4.54.5c-.24-1.1-.44-2.06-.56-2.78H254.6c.12.62.32,1.68.6,2.84C252.58,45.98,252.5,45.98,249.4,45.94Zm.92,8.4c-.04,2.36,1.68,3.7,5.1,3.82a36.532,36.532,0,0,0,3.7-.12c.4-.04.96-.12,1.48-.22V55.86a28.621,28.621,0,0,1-5.04.42c-1.7-.04-2.62-.36-3.06-1.16a1.87,1.87,0,0,1-.28-1.06,6.1,6.1,0,0,1,.98-2.8h-1.98A6.5,6.5,0,0,0,250.32,54.34Zm18.06-7.88a17.71,17.71,0,0,1-3.48,4.72v2.8c1.44-1.6,2.38-2.64,2.74-3.02a4.1,4.1,0,0,1,2.32-1.36c.94-.12,1.32.24,1.4,1.32l-1.84,1.22a3.846,3.846,0,0,0-1.94,4.08c.36,1.26,1.62,2.04,3.38,2.12h5.12V56.48l-4.96.04c-1.92-.02-2.32-1.74-.72-3.06a1.617,1.617,0,0,1,.28-.18c.14-.08.38-.22.66-.4V54.9h1.82V52.18a37.182,37.182,0,0,1,3.98-1.78V48.32c-.72.3-2.1.88-4,1.8V50c-.08-1.72-1.84-2.42-3.7-1.56a15.352,15.352,0,0,0,1-1.98h5.28V44.62H271c.24-.72.44-1.34.6-1.96h-2a11.964,11.964,0,0,1-.58,1.96h-4.06v1.84Zm28.42-2.98V41.66H286.42v1.82Zm-17.76,4.44a17.648,17.648,0,0,1,1.02,1.88,23.4,23.4,0,0,0,1.96-2.32V58.52h1.76V44.8a31.894,31.894,0,0,0,1.96-3.98L284,40.26A21.518,21.518,0,0,1,279.04,47.92Zm5.74,8.02.34,1.88c2.8-.22,6.76-.56,10.54-.92a11.029,11.029,0,0,1,.62,1.68l1.78-.8a24.54,24.54,0,0,0-3.44-6.32l-1.64.7c.64.94,1.3,2.02,1.88,3.06l-6.08.46c.76-1.84,1.6-4.22,2.24-6.3h6.84v-1.8h-12.9v1.8h3.94a51.72,51.72,0,0,1-2.04,6.44Zm17.5-12.64v1.92q1.59-.09,3.48-.06a25.3,25.3,0,0,1,4.18.48V43.66a33.6,33.6,0,0,0-4.02-.38A35.162,35.162,0,0,0,302.28,43.3Zm-1.7,14.9,5.22-5c.38-.28.68-.4.86-.34a.4.4,0,0,1,.28.4v2.36c-.02,1.78.54,2.5,2.22,2.56a11.851,11.851,0,0,0,3.22-.34V55.8a8.006,8.006,0,0,1-2.62.44c-.78,0-.98-.46-.98-1.12V52.94c.02-.86-.48-1.44-1.3-1.3l2.46-2.36V47.36h-9.16v1.88h6.62l-6.82,6.3ZM318.2,47c-.56,3.82-1.38,7.92-2.18,11.08h2.08c.7-3.06,1.32-6.02,2.04-11.08h2.92l.02-1.84h-2.8q.18-1.44.24-2.1h-1.94c-.02.52-.06,1.22-.18,2.1h-2.58V47Zm2.7,8.04a2.655,2.655,0,0,0,1.52,2.62,5.3,5.3,0,0,0,2.16.48,27.158,27.158,0,0,0,3.88-.04V56.2c-.82.06-2.1.12-2.92.12-3.36,0-3.3-1.62-2.04-3.54h-1.88A3.8,3.8,0,0,0,320.9,55.04Zm2.02-7.4.04,1.88c2.46-.06,4.32-.04,5.22.02V47.62C326.98,47.6,325.24,47.6,322.92,47.64Zm11.64-4.06H332.6c-.08,1.94-.12,3.82-.12,5.9-.02,1.06-.02,2-.02,2.86,0,4.02,1.1,5.38,3.02,5.22a5.649,5.649,0,0,0,2.84-1.16V54.3a5.2,5.2,0,0,1-2.74,1.24c-1.2-.14-1.26-1.86-1.26-4.02.02-1.62.06-3.62.12-5.38C334.46,45.26,334.5,44.4,334.56,43.58Zm6.5,0c1.32,3.78,1.4,10.54,1.38,12.86h1.96a39.965,39.965,0,0,0-1.46-12.86Zm10.1,8.94a3.13,3.13,0,1,0,0,6.26,3.13,3.13,0,0,0,0-6.26Zm-1.92,3.14a1.92,1.92,0,1,1,1.92,1.92A1.921,1.921,0,0,1,349.24,55.66Z" transform="translate(-184.5 194)" fill="#0e2a3b"/>
  </g>
</svg>
