<?xml version="1.0" encoding="UTF-8"?>
<svg width="301" height="353" enable-background="new 0 0 301 353" viewBox="0 0 301 353" xmlns="http://www.w3.org/2000/svg">
	<symbol id="symbol">
		<g fill-rule="evenodd">
			<path d="m135.75,6.351c-4.125,3.743-11.018,3.901-17.227,4.19-16.165.753-31.742-.745-44.23-4.19 4.529-3.453 14.674-4.026 22.348-4.19 11.552-.247 26.142,1.304 39.112,4.19z" fill="currentColor" />
			<path d="m128.77,11.473c-2.443,2.368-8.673.949-11.64,2.793 7.706,3.044 16.66-4.394 23.745-2.793-.172,2.777-4.362,1.535-4.656,4.19 1.972,1.518 4.112-2.839 6.518-.931-.37,3.823-6.184,3.894-9.777,4.656-8.369,1.775-18.294,2.375-27.935,3.725 10.306.933 20.956.109 29.332-1.862 3.294-.775 6.657-3.638 9.312-1.397 .015,2.713-3.98,3.328-6.053,3.725-2.586.496-5.879.646-8.381.931-17.007,1.942-34.455,2.277-53.077-1.396-5.502-1.085-11.546-2.03-14.898-5.587 4.278-.412 8.189,3.193 13.502,3.259-1.744-3.999-9.566-1.918-11.174-6.053 1.955-2.554 5.321.202 7.45.931 12.377,4.245 37.687,6.637 54.473,2.794-2.158-1.941-5.898-.169-8.38,0-18.476,1.26-38.425-.607-51.214-6.984 1.118-4.412 4.944-.862 7.449,0 7.238,2.491 18.672,3.757 25.607,3.259-8.919-3.341-23.02-1.501-29.332-7.449h.931c.542.076.829-.103.931-.465 16.154,6.821 36.418,6.163 57.268,4.654zm-22.81,2.793v1.396c1.078.623 5.455,1.325 4.656-1.396-1.95.38-3.9-.633-4.66,0zm-12.576,8.38c-2.208-1.448-3.625-1.116-6.518-1.396-.384,2.707 5.554,3.017 6.518,1.396z" fill="currentColor" />
			<path d="m110.61,14.266c.798,2.722-3.579,2.019-4.656,1.396v-1.396c.77-.633 2.72.38 4.66,0z" />
			<path d="m60.328 20.784c1.708 5.174 1.953 9.722 0 14.433v-14.433z" fill="currentColor" />
			<path d="m86.866,21.25c2.893.281 4.31-.052 6.518,1.396-.964,1.621-6.902,1.311-6.518-1.396z" />
			<path d="m63.586,22.181h1.397c-.704,5.176 1.231,10.181-1.397,13.502-.368-1.956.241-8.818 0-13.502z" fill="currentColor" />
			<path d="m66.846,22.646c.595.646 2.198.285 2.793.931 .29,3.855-.192,10.141 0,15.364-1.945.393-2.199-.905-3.725-.931-.072-5.504.104-10.76.932-15.364z" fill="currentColor" />
			<path d="m144.13,23.578c.752-.131.802.44 1.397.466-1.28,4.059 1.584,9.918-1.397,12.105-.17-2.586.12-8.507 0-12.571z" fill="currentColor" />
			<path d="m71.967,24.043c2.236,2.259.704,11.114.465,15.364-1.851-3.156-.925-11.431-.465-15.364z" fill="currentColor" />
			<path d="m142.74,24.509v13.968c-1.473-.076-1.556,1.237-3.259.931 1.72-4.33-2.35-14.448 3.26-14.899z" fill="currentColor" />
			<path d="m74.295,24.975c2.727.156 2.893-.022 4.656.931-.074,7-.14,11.596-.465,15.364h-3.725c-1.098-5.517-.021-10.55-.466-16.295z" fill="currentColor" />
			<path d="m136.68,25.44h.932c1.348,2.349 2.002,11.883-.466,13.502-2.26-1.419-.65-9.994-.46-13.502z" fill="currentColor" />
			<path d="m134.36,25.906c.181,5.733-.333,10.665 0,15.364-1.491.527-3.088.947-5.122.931 .101-3.524-.459-11.593.466-15.83 1.85.155 2.57-.829 4.65-.465z" fill="currentColor" />
			<path d="m80.813,26.371h1.397c.924,5.382.293,11.089 0,14.899-3.974-1.976-.14-9.71-1.397-14.899z" fill="currentColor" />
			<path d="m84.072,26.837c2.966.091 2.914.391 5.587.465 .136,5.416-.216,11.215 0,15.364-1.538.678-3.541.373-5.587-.465-.509-4.292.542-10.749 0-15.364z" fill="currentColor" />
			<path d="m126.44,26.837c2.828.942 1.563,11.474.466,14.433-2.54-1.962-1.73-11.715-.47-14.433z" fill="currentColor" />
			<path d="m123.18,27.302c.875,4.547.247,9.788.466,15.83-.993,1.29-2.536-.861-2.793.931 7.751,1.972 17.43-2.429 24.21-5.587-12.65,10.586-39.29,10.269-58.67,7.916-9.629-1.169-19.782-3.232-24.21-8.846 10.971,6.105 28.673,7.947 44.23,7.915-3.4-2.842-.483-10.301-1.397-17.227h6.984c-.935,4.657 2.486,16.304-2.793,17.227 2.098,1.262 4.54-.581 7.449,0 2.045-4.008.403-11.703.931-17.227 1.4-.774 4-.351 5.59-.932z" fill="currentColor" />
			<path d="m91.521,27.768h1.862c-.201,5.345.533,12.102-.931,14.898-2.668-3.064-1.18-10.148-.931-14.898z" fill="currentColor" />
			<path d="m94.781,27.768c2.073.32 2.405-.032 4.656.465 .72,3.842-.222,10.965.466,15.83-2.611-.271-2.994.124-5.122-.465v-15.83z" fill="currentColor" />
			<path d="m114.34,27.768h1.396c.497,3.817 1.335,11.843-.465,14.898-2.99-3.427-.61-10.976-.94-14.898z" fill="currentColor" />
			<path d="m101.76,28.233h1.862c-1.143,5.166.957,10.238-.931,14.433-2.699-3.178-.43-8.42-.93-14.433z" fill="currentColor" />
			<path d="m170.67,39.873h-11.64c-.257-1.032.889-.663.931-1.396-.515-1.192-2.5-.915-4.19-.931-.674,1.76 1.279.894.932,2.328h-5.587c.531-3.945-3.085-3.744-3.725-6.518 6.53,1.565 16.48,3.693 23.29,6.517z" fill="currentColor" />
			<path d="m53.809,34.752c1.754.633-.12,3.423.466,5.121 3.155,9.151 33.729,12.4 49.352,13.037 16.208.66 40.382-1.032 47.956-11.64 14.353,1.583 17.281-2.068 30.263,1.396-1.34,1.919-5.793.726-6.984,2.794 1.136,4.114 6.544,4.85 10.243,5.587 12.25,2.44 28.26,3.405 36.315,10.243-2.203,4.805-8.296,5.23-12.57,6.053-27.173,5.231-49.245-1.992-74.959-9.312-8.687-2.473-16.913-5.582-27.935-2.328-1.919.566-4.225,3.013-6.052,3.259-2.661.358-8.031-1.749-11.64-2.794-10.249-2.968-22.831-7.724-33.057-9.777 2.028,3.416 6.776,3.17 10.243,4.19 10.608,3.12 22.677,6.718 33.057,10.243-7.674,1.604-16.878-5.767-25.142-5.122 3.034,2.031 8.103,3.404 12.571,4.656 4.28,1.2 9.97,1.466 11.174,4.656-3.902,1.365-8.201-1.131-12.105-2.328-11.816-3.623-25.323-8.043-37.247-10.243 3.081,2.676 7.698,3.466 11.64,4.656 11.889,3.59 25.352,6.785 37.247,11.174 .434,10.2-.427,20.675-.466,31.66-5.739-6.071-10.129-13.273-18.623-16.761-8.372-3.438-17.773-5.129-26.539-8.846 .766-1.741-.607-3.585-.931-5.587-2.274-.649-6.175.07-7.915,1.397-3.243-4.092-4.23-9.921-10.243-10.708-4.113-.539-7.039,1.524-11.64,1.397-.026-5.585-.04-10.447.466-14.433 4.926.179 10.012,3.627 13.036,2.793-2.009-3.578-8.438-2.736-12.105-4.656 2.478-3.866 7.536-.413 10.708.466 11.212,3.106 23.529,6.242 34.453,9.312-1.716-3.402-6.404-3.202-9.777-4.19-6.771-1.984-14.376-4.019-21.882-6.053-3.387-.918-7.28-1.542-9.777-3.725 6.597-.079 9.932,3.104 16.295,3.259-1.8-3.166-7.572-2.36-10.708-4.19 7.413-2.689 14.685-2.672 22.808-4.656zm111.27,10.243c1.548-.469 5.064,1.03 5.121-.931-.33-1.688-3.394-.642-5.121-.931v1.862zm-117.32.931c2.177-.503 3.03,1.858 4.656.466-.369-1.668-4.934-3.528-4.656-.466zm-10.709,3.724c.897,2.005 4.968,2.955 6.984,2.328-.592-2.31-5.083-2.838-6.984-2.328zm117.79,5.122c1.75.711 8.318,1.106 9.777,0-1.36-1.508-8.42-1.508-9.78,0zm-8.84,1.396c-.362.103-.541.39-.465.932-.002.467.377.554.465.931 18.393-.346 31.421.381 42.834.466 5.564.042 11.564.933 14.434-.931-15.09-1.448-36.12-.472-57.26-1.398zm26.07,4.657c6.187-.525 12.557-.125 18.623,0 2.67.055 6.41.979 8.381-.931-6.534-1.748-16.603-.543-27.47-.931-.03.81.11,1.447.47,1.862zm13.03,1.396c-.542.078-.506.736-.466,1.397 3.162-.432 6.744,1.581 7.915-.931-1.61-.85-6.43-.501-7.44-.466z" fill="currentColor" />
			<path d="m147.39,37.08c5.615,7.377-6.286,9.309-12.105,10.708-21.026,5.056-49.211,4.622-69.372-2.328-4.842-1.671-14.367-6.386-7.908-10.243 1.83.794 1.653,3.516 3.259,5.122 5.91,5.91 23.049,8.091 36.315,8.846 18.757,1.066 38.06-.803 47.956-8.381 1.23-.632.99-2.731 1.86-3.724z" fill="currentColor" />
			<path d="m165.08,43.132c1.728.289 4.791-.757 5.121.931-.057,1.961-3.573.462-5.121.931v-1.862z" />
			<path d="m52.413,46.392c-1.626,1.393-2.479-.969-4.656-.466-.278-3.062 4.287-1.202 4.656.466z" />
			<path d="m193.95,49.185c-3.764,1.02-12.39-.88-15.83-3.259 5.81-1.718 13.85-2.201 15.83,3.259z" fill="currentColor" />
			<path d="m44.032,51.979c-2.016.626-6.087-.323-6.984-2.328 1.901-.511 6.392.017 6.984,2.328z" />
			<path d="m164.62,54.772c-1.459,1.106-8.027.711-9.777,0 1.36-1.508 8.42-1.508 9.78,0z" />
			<path d="m203.26,57.565c-2.869,1.864-8.869.973-14.434.931-11.413-.084-24.441-.812-42.834-.466-.088-.377-.467-.464-.465-.931-.076-.542.103-.829.465-.932 21.14.927 42.17-.049 57.26,1.398z" />
			<path d="m119.46,58.031c-2.306,4.289-6.571,8.057-7.449,14.434-.447,3.25 1.464,8.638-1.396,11.174-1.14-8.769.49-22.23 8.85-25.608z" />
			<path d="m171.6,58.962c10.867.388 20.936-.817 27.47.931-1.971,1.91-5.711.986-8.381.931-6.066-.125-12.437-.525-18.623,0-.36-.414-.5-1.051-.47-1.862z" />
			<path d="m121.32,60.825h1.397c.228,2.562-2.728,5.517-3.725,8.846-.393,1.312 1.065,3.61-1.397,3.725-.3-5.723 2.43-8.428 3.72-12.571z" />
			<path d="m38.445,90.156c-3.188-2.924-9.032.785-13.967.466-.338-1.424.803-1.37.465-2.793 4.672-1.847 12.738-.298 14.899-4.656 .22-1.461-1.253-1.23-1.397-2.328-4.484.482-8.099,1.834-13.036,1.862-.154-1.706.517-2.587.931-3.725 4.832-.911 11.352-.133 13.502-3.725-1.888-5.449-11.678.453-15.364-.931-.362-1.035-.978-1.815-.931-3.259 4.222-1.365 10.787-.387 13.502-3.259-.056-1.806-1.372-2.353-2.328-3.259-4.617.507-9.882,2.839-14.433,1.862 1.991-3.44 10.462-.402 11.64-4.656 9.234,2.953 12.416,19.77 6.517,28.401z" fill="currentColor" />
			<path d="m192.55,62.687c-1.171,2.512-4.753.499-7.915.931-.04-.661-.076-1.319.466-1.397 1-.035 5.82-.384 7.44.466z" />
			<path d="m189.29,75.723c-22.554,2.046-42.169-6.325-62.388-11.64-.247-.375-.486-.756-.466-1.396 .377-.089.464-.467.931-.466 15.755,4.218 31.743,10.763 51.215,12.105 3.54.244 7.86-1.505 10.71,1.397z" />
			<path d="m13.303,65.015c7.029.198 10.875,10.231 10.708,18.158-.088,4.199-1.17,10.583-5.587,11.174-.962-2.027 3.594-4.684 1.862-7.449-2.385,2.116-1.82,7.181-6.052,7.449 1.954-3.574 4.813-10.355 2.328-15.364-2.277,1.503.366,4.247-.931,6.518-1.094-6.976-2.164-13.976-8.846-15.364 2.061-2.471 4.929,1.327 6.518,2.328 2.464-2.183-3.199-3.387-3.725-5.587 8.327.83 9.187,9.127 10.708,16.761 2.456-7.29-2.941-14.733-6.983-18.624zm3.259,12.57c-.044-1.818-.336-3.389-1.862-3.725-.953,1.295-.373,4.166 1.862,3.725z" fill="currentColor" />
			<path d="m34.72 66.412c-2.302 2.628-9.28 2.66-12.571 2.793 3.321-1.801 8.03-2.213 12.571-2.793z" fill="currentColor" />
			<path d="m123.18,69.67h.932c2.171-.263 3.6,1.328 5.121,1.862 4.17,1.465 10.544.735 12.105,4.656-6.354-1.096-11.446-3.453-17.692-4.656-.37-.413-.5-1.051-.47-1.862z" />
			<path d="m49.619,72.464c-2.04-.037-6.284,2.214-7.45,0 1.512-1.057 7.195-3.267 7.45,0z" fill="currentColor" />
			<path d="m106.89,70.602c1.965-.575 1.426,5.265-.465,5.121 .15-1.711-.4-4.121.47-5.121z" />
			<path d="m4.458,72.93c8.318-4.758 13.439,17.447 5.121,18.624-6.464.914-10.559-15.513-5.121-18.624z" fill="currentColor" />
			<path d="m201.86,73.861c.475,2.423-4.955,2.551-5.587.931 .34-1.992 4.07-1.479 5.59-.931z" />
			<path d="m14.7,73.861c1.526.336 1.818,1.907 1.862,3.725-2.235.44-2.815-2.431-1.862-3.725z" />
			<path d="m37.514 74.792c-2.539 2.012-8.9 2.516-12.105 2.328 3.521-1.971 8.185-2.13 12.105-2.328z" fill="currentColor" />
			<path d="m45.429,74.792c-.299,1.408-.728,2.687-2.328,2.793 .385-1.316-.656-1.206-.466-2.328 1.097.011 1.371-.801 2.794-.465z" fill="currentColor" />
			<path d="m109.68,183.74c-2.935-.818-2.79-5.089-3.259-7.449-3.77-18.971-6.841-41.925-10.708-60.992-2.09-10.305-9.185-18.708-15.83-25.142-10.71-4.343-23.018-7.09-33.522-11.64v-.931c.4-.375.277-1.275.931-1.396 23.86,5.168 45.61,12.552 51.214,36.315 2.61,11.064 3.573,24.151 6.053,36.781 1.773,9.032 3.19,17.355 5.121,27.004 .42,2.08 2.7,5.66 0,7.45z" fill="currentColor" />
			<path d="m151.12,78.982c-1.703-.16-3.677-.048-3.725-1.862 .89-.562 4.23-.45 3.72,1.862z" />
			<path d="m123.65,77.12h1.397c.783,12.373.259,21.785-.466,35.85-2.835-.845-.977-4.202-.931-6.053 .239-9.715.22-20.679 0-28.401v-1.399z" />
			<path d="m220.02,77.585c.573.203.956.596.932,1.397-11.567,3.787-26.446,5.3-38.179,5.122-4.986-.076-12.703-.294-17.227-2.328 6.14-1.235 12.872.439 20.021.465 11.24.042 23.93-1.68 34.46-4.656z" />
			<path d="m155.77,79.448c2.041-.023 3.785.25 4.656,1.397-1.092,1.857-3.388.418-4.656.465v-1.862z" />
			<path d="m105.96,80.845c2.836,8.465-.011,22.327.931,36.315-2.564-2.092-1.396-6.388-1.396-9.312 0-10.746.062-17.989.465-25.607v-1.398z" />
			<path d="m94.315,121.35c-23.968-8.002-47.817-16.123-72.631-23.279 9.789-3.478 21.469-2.503 21.882-15.83 5.281-.419 12.571,2.46 19.089,4.656 5.608,1.889 11.668,3.28 15.83,5.587 10.096,5.596 14.704,17.746 15.83,28.866z" fill="currentColor" />
			<path d="m37.514 82.707c-1.961 2.543-8.941 2.538-11.64 2.793 2.468-2.343 7.965-1.656 11.64-2.793z" fill="currentColor" />
			<path d="m151.58 90.622c-6.985 1.169-15.984-4.379-24.211-5.587v-1.396c7.54 1.011 17.1 3.993 24.21 6.983z" />
			<path d="m14.235,89.225c.827,1.467-.578,4.685-3.259,4.19 1.016-1.466 2.451-2.514 3.259-4.19z" fill="currentColor" />
			<path d="m226.54,89.225c2.023,2.224.492,10.294.931,12.571-2.86-2.467-.72-9.092-.93-12.575z" />
			<path d="m156.24,90.622c7.548,1.066 15.7.884 24.211,1.862-2.344,2.843-7.306,1.084-11.175.931-4.254-.169-8.546-.401-12.57-.931-.37-.414-.51-1.051-.47-1.862z" />
			<path d="m33.789 91.553c-2.319 1.474-7.594 2.244-10.243 1.862 2.645-1.39 6.085-1.984 10.243-1.862z" fill="currentColor" />
			<path d="m110.61,91.553c.541-.076.828.103.931.465 .26,6.905.245,17.668 0,24.21-2.519-2.135-1.397-6.967-1.397-11.174v-12.105c-.13-.757.44-.807.47-1.402z" />
			<path d="m191.62,93.416c-.596.637-2.198.637-2.794,0-.09-2.281 2.88-2.281 2.79,0z" />
			<path d="m213.97,96.209c.541-.076.829.103.932.465-.038,6.726.17,15.1 0,23.279-.046,2.201 1.092,5.602-1.397,6.519-.03-9.15-.34-21.18.47-30.261z" />
			<path d="m153.44,98.071h1.396c-.628,10.106-.221,16.195-.466,25.607-1.813-.72-1.456-3.968-1.396-6.052 .19-6.35.21-14.27.47-19.559z" />
			<path d="m190.69,98.071h1.397c.098,2.37.35,6.174-.466,8.846-1.96-1.3-.46-6.06-.93-8.849z" />
			<path d="m190.69,112.97c2.529,2.846 1.659,12.687 0,14.898-.5-5.27-.28-10.19 0-14.9z" />
			<path d="m150.65,130.66c-.497,6.466-.386,11.269-.466,19.555-7.667.432-16.347,3.682-24.676,5.587-5.113,1.17-10.632.542-14.433,3.725 12.974-.406 25.359-6.625 38.643-7.449-5.377,3.003-14.472,2.289-19.554,5.587 5.116,1.361 12.472-3.025 19.089-3.259-.448,1.415-2.711,1.014-3.725,1.862 .683,2.046 3.6.055 4.655.931 .318,7.751 8.761,7.38 14.899,9.312-4.061,2.303-8.895,3.832-7.45,11.64-8.136,3.056-20.651,2.336-22.813,10.708-2.146,8.314 1.178,14.898-.465,24.676-9.648,1.991-19.326,3.953-28.401,6.518 1.268,2.235 4.492.483 6.519,0 6.18-1.474 14.464-4.024 21.882-4.19-1.408,3.141-7.29,1.396-8.846,3.26 1.198,3.314 6.662-1.389 8.846,0-.794,12.777.189,25.387-.931,39.108-3.447,1.52-9.061.872-11.174,3.726 3.074.842 8.347-2.44 11.639-1.397 .513,2.376-3.307.418-2.793,2.794 .058,1.028 1.975.197 2.793.466v6.518c-12.803,3.803-26.256,6.955-39.575,10.243 .148-5.398.688-11.242.466-18.158 10.42-1.995 20.47-4.361 30.263-6.983-8.892-1.554-19.972,5.063-30.263,4.655 1.965-3.001 8.067-1.864 11.174-3.725-2.74-2.754-8.281,1.823-11.174.466 .82-8.92.302-22.512.466-35.384 10.074-4.049 23.571-4.675 33.522-8.847-9.763-.733-22.67,5.864-33.057,6.053 2.811-2.621 9.342-1.521 12.105-4.19-4.031-1.652-8.417,2.244-12.57,1.396 1.399-20.273.256-38.31 1.396-58.198 1-.863 3.411-.314 5.122-.465 .012,8.697 4.355,17.817 4.656,26.538 .255,7.39.304,12.648 4.656,17.227 2.383-.1 4.027-.938 5.122-2.328-.557-3.5.748-6.746 0-10.243-.38-1.778-2.244-3.114-2.793-4.656-2.918-8.191-1.885-17.373-4.656-26.538 7.076-1.615 15.066-2.316 20.951-5.122-5.592-1.101-13.856,2.744-21.417,3.725-1.741-10.83-3.75-21.392-5.587-32.125 12.007-1.184 24.318-6.901 34.919-.931 4.01,2.22 6.62,7.19 13.03,7.87zm-53.541,29.33h2.328c.516-2.69-2.548-1.94-2.328,0zm32.121,61.93c-.02.642.219,1.022.466,1.397 1.462.221 1.902-.581 2.328-1.397-.6-.64-2.2-.64-2.8,0zm0,33.98c-3.345,1.167-7.972,2.363-12.105,3.259-1.961.425-5.617-.389-6.053,2.328 1.913.881 3.655-.512 5.587-.932 4.841-1.051 10.581-1.243 14.433-4.19-.62-.15-.88-.66-1.86-.47z" fill="currentColor" />
			<path d="m231.66,123.68c-13.086,8.977-31.869,10.141-51.214,9.312-13.362-.573-28.216-2.179-38.179-8.846 23.46,8.45 67.04,10.66 89.39-.46z" fill="currentColor" />
			<path d="m91.056,150.22c-22.102-5.989-41.919-14.261-63.785-20.486v-1.396c.377-.089.464-.467.931-.466 .396-.085.439.182.465.466 15.91,4.608 31.413,10.317 47.49,15.83 4.985,1.71 10.846,2.4 14.899,6.06z" />
			<path d="m152.05,131.13c17.148,4.704 38.023,4.25 54.939,3.725-1.709,4.092-6.315,9.299-5.587,15.364 .366,3.051 1.955,5.202 5.121,6.518 .188,2.209-1.434,4.851.466,6.053 1.07-1.102.167-4.179.466-6.053 2.217-.2 3.481.554 4.655,1.397 .249,1.801-.831,2.273-.466,4.19-15.213,5.902-47.003,6.542-59.595-3.259-.24-8.34.1-17.73-.01-27.94zm3.72,24.21c1.085-6.209.156-14.432.466-21.417h-1.396c.58,5.05-1.26,17.86.93,21.42zm9.31,5.12c1.225-6.216.638-14.36.931-22.348-.595-.026-.645-.597-1.396-.466 .43,7.63-1.2,17.42.47,22.82zm31.66,2.79c2.889-5.311.713-16.888 1.396-25.607h-1.396c.19,7.99-.62,18.53 0,25.61z" fill="currentColor" />
			<path d="m213.97,132.99c2.055-.531 1.864,4.105.466,4.19-2.17.42-1.71-3.95-.47-4.19z" fill="currentColor" />
			<path d="m154.84,133.92h1.396c-.31,6.985.619,15.208-.466,21.417-2.19-3.56-.35-16.37-.93-21.42z" />
			<path d="m212.11,134.85c-.316,2.253-2.842,1.177-4.19.931v-1.397c.75-.61 4.1-1 4.19.47z" fill="currentColor" />
			<path d="m96.643,134.85c2.563,5.506 2.809,13.331 4.19,20.02-1.035.362-1.815.978-3.259.931 .052-.879 1.54-.323 1.397-1.396-.329-1.864-2.185-.027-2.794-.931 1.067-5.29.175-12.55.469-18.62z" fill="currentColor" />
			<path d="m164.62,137.65c.752-.131.802.44 1.396.466-.293,7.988.294,16.131-.931,22.348-1.68-5.41-.05-15.2-.47-22.82z" />
			<path d="m196.74,137.65h1.396c-.684,8.719 1.492,20.296-1.396,25.607-.62-7.09.19-17.63 0-25.61z" />
			<path d="m216.76,139.97c-2.409,3.799-5.067,7.348-4.19,14.433-3.886-.305-7.983-.397-8.847-3.725 2.04.288 3.448,1.208 5.588,1.397-.019-2.931-3.366-2.532-6.053-2.793-.15-8.4 5.71-14.07 13.5-9.32z" fill="currentColor" />
			<path d="m269.84,172.1c-.333-1.264 2.195.333 1.862-.931-6.319-3.303-14.896-4.347-21.882-6.984-1.202,1.257.489,2.247 1.862,2.328-6-.57-12.613-2.766-19.089-4.656-6.198-1.809-13.092-3.016-17.692-6.518 10.533,1.89 20.201,7.102 30.263,7.915-9.458-4.354-20.967-6.658-31.194-10.243 .486-5.101 1.909-9.265 4.656-12.105 14.304,1.842 39.8,10.741 57.267,15.83 7.801,2.272 20.486,3.788 21.417,10.708 2.05,15.28-19.85,7.87-27.48,4.64zm16.3,2.33c6.493,4.279 12.492-7.869 6.053-11.174h-.932c4.48,5.43 1.37,10.56-5.12,11.17zm-3.26-.47c.311-2.018-2.161-1.253-3.726-1.396-.11,1.79 2.56,2.33 3.73,1.4z" fill="currentColor" />
			<path d="m59.396,142.77c10.818,3.305 21.688,6.557 31.66,10.708-4.868.64-10.405-1.99-15.83-3.725-5.304-1.696-10.602-3.958-15.83-5.121v-1.87z" />
			<path d="m99.437,159.99h-2.328c-.22-1.94 2.844-2.69 2.328,0z" />
			<path d="m213.04,158.13c.973-.197 1.232.319 1.862.465 .216,1.458-.405,2.079-1.862,1.862v-2.33z" fill="currentColor" />
			<path d="m291.26,163.25h.932c6.439,3.306.44,15.454-6.053,11.174 6.49-.6 9.6-5.73 5.12-11.17z" />
			<path d="m252.15,166.51c4.191,1.241 8.526,2.337 12.571,3.725-3.49-.08-9.78-1.39-12.57-3.73z" fill="currentColor" />
			<path d="m178.12,168.38v4.19c-6.325.494-14.131,6.848-18.624.931 2.08-5.83 14.16-5.93 18.62-5.12z" fill="currentColor" />
			<path d="m184.17,180.01c2.104-3.327 8.009-2.855 9.312-6.984 .299-2.317-2.372-1.663-2.794-3.259-.131-.752.44-.802.466-1.397 3.666-3.073 27.713,3.318 16.761,8.846-5.07,2.56-16.94,2.07-23.75,2.79z" fill="currentColor" />
			<path d="m179.98,168.38c2.857.246 6.74-.532 8.846.466-.601,2.89.881,4.97-.931,6.518-2.027-.456-.416-4.551-.932-6.518-2.442,1.453-.843,4.279-.931,7.449-2.347.602-3.73,2.167-6.053,2.793-1.11-2.94.39-6.15-.01-10.71z" fill="currentColor" />
			<path d="m279.15,172.56c1.564.143 4.036-.622 3.726,1.396-1.17.93-3.84.39-3.73-1.4z" />
			<path d="m159.03,176.29c2.069-.207 2.463,1.261 3.725,1.862-.343,4.247.045,8.062-.932,10.708-3.581-1.907-.307-7.4-.931-11.174-2.801.459-.786,5.732-1.397,8.381-1.86-2.33-.65-7.03-.47-9.78z" fill="currentColor" />
			<path d="m178.12,176.29c-.227,4.377-.84,5.635-.932,9.777-3.635,1.642-8.211,2.342-12.104,3.725-.609-2.181.185-7.24.465-11.174 4.53-.44 7.25-2.68 12.56-2.34z" fill="currentColor" />
			<path d="m157.17,180.94c.274,1.982-.335,3.08-.466,4.656-2.964.17-4.759-.828-7.915-.465 1.279-.673.912-1.547-.466-1.862-2.271-.079-.573,1.638-1.396,2.328-.751-.614-4.102-1.005-4.19.466 4.047,2.219 8.255-.575 13.036.931 4.283,1.349 5.176,4.959 8.847,5.122 3.721.164 8.455-4.332 12.57-.932-.302,1.699.313,2.48.932,3.259 12.427,1.461 27.648,1.538 36.315-6.053-.043-2.439-.774-4.191-.466-6.983 7.734,1.888 17.775,1.469 18.624,10.243-6.08,6.646-17.209,8.244-28.401,9.777-.632.144-.386,1.166-.466,1.862h-6.052c-2.236-3.62-11.245-.335-14.899-1.862-.674,1.761 1.279.894.932,2.328-3.165.087-5.113-.327-6.984-.466 .303-.474 1.071-.481.932-1.396-1.64-1.76-3.06.638-3.725,1.396-6.369-3.143-29.611-3.61-34.453-11.174-4.75-7.48 9.76-11.04 17.72-11.2zm60.06,6.52c1.602.221 3.521.221 5.122,0-.13-1.9-5.76-2.7-5.12,0zm-64.25,1.87c-.673-2.69-3.322-.571-5.587-1.396-.33,3.03 4.38.92 5.59,1.4zm61.92-.47v1.396c1.567.295 4.324-.6 5.121.466-.216,1.492-1.772,1.642-1.862,3.259 1.753.001 5.064-1.511 7.449-2.328-.297-.945-2.177-.307-2.328-1.397 2.503-.38 3.978.781 5.587,0-2.13-2.73-10.92-1.13-13.97-1.4zm-66.11,1.86c-.551,2.035 4.275,2.035 3.725,0-1.07-.29-2.82-.92-3.73,0z" fill="currentColor" />
			<path d="m203.26,182.34h1.396c-.388,2.713.711,4.832 0,6.518-2.38-.65-.97-4.98-1.4-6.52z" />
			<path d="m112.94,186.07c-.708,1.464-3.393.952-5.122,1.396v-1.862c2-.08 3.98-1.13 5.12.46z" fill="currentColor" />
			<path d="m195.81,185.14c.374.246.756.485 1.396.465-.056,1.341.254,3.048-.466,3.725-1.15-.52-1.72-3.16-.93-4.18z" />
			<path d="m222.35,187.46c-1.602.221-3.521.221-5.122,0-.64-2.7 4.99-1.9 5.12,0z" />
			<path d="m147.39,187.93c2.265.826 4.914-1.294 5.587,1.396-1.21-.48-5.92,1.63-5.59-1.4z" />
			<path d="m228.87,190.26c-1.609.781-3.084-.38-5.587,0 .151,1.09 2.031.452 2.328,1.397-2.385.817-5.696,2.33-7.449,2.328 .09-1.618 1.646-1.768 1.862-3.259-.797-1.065-3.554-.171-5.121-.466v-1.396c3.05.27 11.84-1.33 13.97,1.4z" />
			<path d="m112.01,188.86c-.493,1.181.98,2.654 1.397,1.396 1.319,1.959-4.111,1.152-5.587,1.863v-2.794c1.16-.4 2.49-.61 4.19-.47z" fill="currentColor" />
			<path d="m152.51,190.72c.551,2.035-4.275,2.035-3.725,0 .92-.92 2.67-.29 3.73,0z" />
			<path d="m233.52 192.12c1.281 4.267-6.926 7.014-12.105 7.915 4.16-2.52 10.03-3.32 12.1-7.92z" fill="currentColor" />
			<path d="m114.34,193.05c-.126,1.581.36,3.775-.466,4.656h-2.793c-.415-1.448-1.556-2.169-1.862-3.725 1.44-.57 2.94-1.08 5.12-.93z" fill="currentColor" />
			<path d="m90.59,214.93c-20.059-5.706-42.122-13.436-62.388-20.486-.076-.541.103-.828.465-.931 14.979,4.51 31.976,10.175 47.49,15.364 5.035,1.69 10.632,2.47 14.433,6.06z" />
			<path d="m136.68,195.38h1.397c-.61,2.648 1.404,7.922-1.397,8.381 .23-3.26-.39-6.26 0-8.38z" fill="currentColor" />
			<path d="m139.48,197.24c3.436,2.901.432,8.072 2.328,11.174 5.48,8.966 16.71-4.427 23.279-3.725-.526,3.364.629,6.116-.466,9.312-1.314.072-1.167-1.315-1.862-1.862-1.604,1.501-3.604,2.604-6.519,2.794 3.485,2.978 8.822-.514 12.571-.932 5.632-.626 11.741,1.953 19.554.932 .066,1.796-.363,4.089.932,4.655 1.062-.645.174-3.24.466-4.655 2.675.119 5.936-.349 7.915.466-.374,2.355-2.887.768-3.26,2.327 1.6,2.484 3.614-1.299 6.053-.931 .78.772.371,2.733.466,4.19-19.696,1.875-33.571.492-53.542-4.19-.096-1.457.313-3.418-.466-4.19-1.543.009-.473,2.632-1.396,3.259-2.763-.496-4.35-2.169-6.519-3.259-.19-5.6.43-11.34.47-15.36zm2.32,15.36c.809,1.226 3.232.166 3.259-.931-.61-.56-3.2-.46-3.26.93zm24.68,4.2c.731.392 3.941.15 4.19-1.396-.87-.84-4.34-.33-4.19,1.4z" fill="currentColor" />
			<path d="m233.52,197.71c-.908,2.453.72,4.679-.466,6.983h-2.328c.14-3.13-.9-7.43 2.8-6.98z" fill="currentColor" />
			<path d="m142.27,199.1h1.397c.342,2.965-.143,5.431.931,8.381 6.445,3.314 9.53-3.053 14.898-3.725-4.22,5.9-19.74,9.55-17.23-4.66z" fill="currentColor" />
			<path d="m156.24,202.83c-1.971,2.276-6.132,4.654-10.243,3.259-.693-1.634-.529-4.125-.931-6.052 3.21-.35 7.51,2.04 11.17,2.79z" fill="currentColor" />
			<path d="m229.8,200.03c.623,4.048-2.407,3.896-1.396,6.052-2.218-.543-3.481,1.407-4.656.466 .802-1.915-.307-3.011.466-5.121 1.76-.57 3.1-1.56 5.59-1.4z" fill="currentColor" />
			<path d="m137.15,205.62c1.961.057.462,3.572.931,5.121-2.26.34-1.47-4.12-.93-5.12z" fill="currentColor" />
			<path d="m233.06,206.55c.163,3.86-.338,6.344 0,9.312-4.433.519-5.866-2.15-8.846-1.862-6.012.582-10.488,12.491-6.984,19.089 1.782,3.355 5.132,3.295 8.847,4.656-3.78,1.995-10.1,3.823-14.434,3.725-.965-9.79-.387-19.065.466-28.4 6.09-3.07 14.49-3.82 20.94-6.53z" fill="currentColor" />
			<path d="m145.06,211.67c-.026,1.097-2.45,2.156-3.259.931 .06-1.39 2.65-1.49 3.26-.93z" />
			<path d="m136.22,213.54h1.862c-.212,4.214-.015,6.615-.465,8.846-2.37-1.06-1.06-5.78-1.4-8.85z" fill="currentColor" />
			<path d="m209.32,213.54c.936,1.392.263,4.393.465,6.518-3.154.821-4.557.534-7.915.932 .56-2.645.014-3.733.466-6.053 2.13-.67 4.37-1.22 6.99-1.4z" fill="currentColor" />
			<path d="m170.67,215.4c-.249,1.547-3.459,1.788-4.19,1.396-.15-1.73 3.32-2.24 4.19-1.4z" />
			<path d="m139.01,215.4c2.767.803 4.922,2.217 7.449,3.259-.838,2.11-.33,5.567-.466,8.381-3.367.108-4.45-2.067-6.983-2.794v-8.85z" fill="currentColor" />
			<path d="m218.63,231.69c1.306-2.49 4.013,1.11 6.518.466-.202-3.212-4.329-2.499-6.983-3.259-.623-4.786 1.648-10.363 5.121-12.571 18.929,4.465 38.502,10.743 58.664,17.227 4.519,1.453 13.752,4.025 15.364,6.519 3.925,6.068-1.863,13.431-6.053,13.968-5.831.747-12.812-3.32-18.623-5.122-18.23-5.66-37.39-10.62-54.01-17.24zm14.43,1.4c-.362.104-.541.391-.465.932v.932c8.011,2.514 17.121,4.319 25.606,6.983 8.169,2.565 17.009,7.089 23.745,6.519-14.19-5.78-32.8-10.06-48.9-15.36zm54.47,16.3c2.954,7.742 13.833-3.924 7.449-8.381h-.931c2.82,4.49-.08,10.78-6.52,8.38z" fill="currentColor" />
			<path d="m200.93,223.78c-.369,3.756-.495,5.181 0,8.847-18.171,1.62-37.544.483-53.542-4.656-.291-1.538.197-5.893 0-8.846 15.88,4.16 35.92,5.58 53.54,4.66zm-33.98,7.45c.407-1.909 1.536-5.954 0-6.983-1.29.57-1.7,6.47 0,6.98zm23.74-.47c2.853,1.258 2.485-4.773.466-4.19 .36,1.92-.72,2.39-.47,4.19z" fill="currentColor" />
			<path d="m92.453,223.31c-2.182,2.228-6.265-1.415-9.312-1.397v-1.396c2.701-.43 6.812,1.51 9.312,2.8z" />
			<path d="m132.03,221.92c-.425.816-.865,1.618-2.328,1.397-.247-.375-.486-.756-.466-1.397 .6-.64 2.2-.64 2.8,0z" />
			<path d="m209.32,222.85c1.279,2.743-.309,6.312.465,8.846-2.332.616-5.34.558-7.915.932 .607-3.562-.592-5.867.466-9.312 1.57-.01 4.24-.4 6.99-.47z" fill="currentColor" />
			<path d="m166.95,224.24c1.536,1.029.407,5.074 0,6.983-1.7-.5-1.29-6.4 0-6.98z" />
			<path d="m136.22,224.71c.752-.132.801.439 1.397.466 .643,9.723-1.043,26.776.465,34.453 .96-6.907.894-12.1.465-17.227 2.178-1.342 4.719.402 7.449,0-.278,8.602-.457,14.327-.465,25.606-1.866.617-4.323.644-6.053,1.397-1.85.452-.191-2.603-1.862-2.328-1.453,1.496.734,6.632-1.397,7.449-1.45-14.67.59-31.68.01-49.82z" fill="currentColor" />
			<path d="m91.521,227.04c-.173,1.556-3.406,1.046-3.725,0 .848-2.26 2.424-1.12 3.725,0z" />
			<path d="m191.16,226.57c2.02-.583 2.387,5.448-.466,4.19-.25-1.8.83-2.27.47-4.19z" />
			<path d="m138.54,227.04c3.307.418 5.327,2.122 7.915,3.259-.814,1.979-.347,5.24-.466,7.915-.964.276-3.059-.575-3.259.466 .191,2.475 2.603-.147 2.794,2.327-2.706.268-4.499-1.419-6.519-.465-.69-3.46.42-9.27-.46-13.52z" fill="currentColor" />
			<path d="m281.95,248.46c-6.736.57-15.576-3.953-23.745-6.519-8.485-2.664-17.596-4.47-25.606-6.983v-.932c-.076-.541.103-.828.465-.932 16.1,5.29 34.71,9.57 48.89,15.36z" />
			<path d="m209.32,234.49c-.048,3.772-.436,7.885 1.862,9.312 6.744.211 11.825-3.606 17.691-3.725 .148,6.087 1.171,16.815-5.587,13.036v-9.312c-3.511,1.513.932,8.096-2.793,9.312 .101,1.917 2.736,1.299 1.862,4.19-3.893,1.177-6.71-2.545-11.174-2.328 .556,3.789 7.317,1.373 8.38,4.656-4.752-.651-6.898,2.479-13.036,1.862-.06-.835.57-.982.466-1.862-1.47.082-2.777.327-2.794,1.862 .959,2.806 5.112,1.466 7.449.931 1.135,1.094-.519,1.042-.931,1.862 1.444.313 7.324,3.733 9.312.466-.744-1.306-2.096.654-3.725,0 .395-.691 1.499-.674 2.328-.931 .685-1.771-2.081-.092-1.397-1.862 1.705-.624 2.88-1.776 4.656-2.328 .158,3.001.255,6.938 0,10.708-7.233-.614-13.563-5.202-20.021-3.725-1.327-3.298.611-7.069 0-11.174 2.135.191 4.582.961 6.519,0-.085-3.019-6.226.018-6.983-2.328 2.637-3.096 6.649.729 10.242-1.862-3.06-1.925-6.147-1.137-9.777-.931v-5.588c1.143-.409 2.686-.419 2.794-1.862-.471-1.311-1.978.129-2.794,0v-7.914c3.49.06 3.59-.67 7.45-.48zm8.38,19.09c.555-2.572-1.659-2.375-3.725-2.328 .1,1.9 1.93,2.09 3.72,2.33z" fill="currentColor" />
			<path d="m200.93,235.42c-.346,2.914-.633,5.886-.466,9.312-3.925.886-6.643,2.979-10.708,3.726v-12.571c2.3-.47 7.05-.52 11.18-.47z" fill="currentColor" />
			<path d="m230.27,239.14c1.088.153 1.923.56 2.793.932-1.443,5.99.596,16.4-.931,20.951-2.748-.656-2.341-5.045-2.328-7.449 .02-3.809.944-8.593.466-13.036-.56-.6-.19-.72 0-1.39z" fill="currentColor" />
			<path d="m294.05,241h.931c6.384,4.457-4.495,16.123-7.449,8.381 6.44,2.41 9.34-3.88 6.52-8.38z" />
			<path d="m159.96,242.4c-.354,1.684-6.556,2.77-6.518.465 2.78-.17 4.92-1.37 6.52-.46z" />
			<path d="m200.93,249.39c-.531,1.486-3.321.714-3.725,2.328 .533,2.048 2.678-.409 3.259,1.396-2.491,2.01-7.312,1.689-10.708,2.794 .059-.836-.57-.982-.466-1.862 .897-.966 3.884.159 3.725-1.862-.794-1.464-3.267.521-3.725-.466 1.402-2.646 5.996-4.015 9.312-3.259 1.37-1.57 1.77-.51 2.34.93z" fill="currentColor" />
			<path d="m213.97,251.25c2.065-.047 4.279-.244 3.725,2.328-1.79-.24-3.62-.43-3.73-2.33z" />
			<path d="m131.1,256.37c-3.853,2.947-9.592,3.14-14.433,4.19-1.932.42-3.674,1.812-5.587.932 .436-2.717 4.092-1.903 6.053-2.328 4.133-.896 8.76-2.092 12.105-3.259 .97-.19 1.23.32 1.86.47z" />
			<path d="m228.87,256.37v3.26c-2.136.43-2.249-1.165-4.189-.932v1.396c.907.955 3.126.6 4.189,1.397-.126,1.581.361,3.774-.465,4.655-2.498-1.086-3.565-.05-4.656,1.397-1.406-2.117.044-6.417-.466-8.381 1.79-1.28 3.05-3.62 5.6-2.81z" fill="currentColor" />
			<path d="m62.655,273.6c-11.69-3.363-23.396-6.712-33.988-11.174-.075-.541.103-.828.466-.931h.931c5.159,2.2 11.074,3.738 16.761,5.587 5.561,1.8 11.63,3.15 15.83,6.51z" />
			<path d="m250.75,264.75c1.92.098 4.084-.049 4.19,1.862-1,.55-4.34.21-4.19-1.86z" />
			<path d="m235.39,265.22c13.297,3.238 26.225,9.043 38.644,11.64-1.173,2.587-3.955,1.757-6.053,2.328-15.216,4.141-32.742,9.532-47.023,13.036 .818-3.22 10.078-2.023 11.174-6.519 1.964.818 5.674,1.649 7.449,0 .023-2.662-3.538-1.738-5.121-2.793-.396-2.568 3.744-.602 4.655-1.862 .463-2.791-3.715-.941-4.19-2.794-.362-2.535 3.825-.521 4.19-2.328 1.095-3.267-3.773-.571-3.725-2.793 .14-2.033 4.368.022 4.19-2.328 .311-2.639-3.327-1.328-4.656-2.328 0-1.25-.18-2.67.46-3.27zm6.05,6.51v2.328c2.195.811 6.563.988 6.519-1.862-2.31-1.77-3.51-1.25-6.52-.47zm7.92,3.73c.53,2.962 3.753,2.112 6.519,1.862 .104-.361.013-.919.465-.932-.6-2.99-5.26-2.34-6.98-.93zm-8.85,2.79c.486,2.193 6.691,2.987 6.984,0-.47-2.19-6.43-1.89-6.98,0zm16.29,0c.399,2.79 5.708,2.794 6.519.466 .14-2.9-5.93-2.25-6.52-.47zm-7.91,4.19c2.433-.205 6.137.86 6.053-1.862-1.16-2.42-8.34-1.75-6.05,1.86zm-7.92,1.86c1.62.784 6.146,1.024 6.053-1.396-.671-2.049-4.537-.94-5.587-1.397 .02,1.11-.79,1.38-.46,2.8z" fill="currentColor" />
			<path d="m192.55,269.41c2.57-.516 4.752,1.188 3.26,3.259-2.44.27-2.96-1.39-3.26-3.26z" />
			<path d="m143.2 269.87c1.146 1.633-3.384 1.566-4.19 2.794-2.12-2.6 3.27-1.68 4.19-2.79z" fill="currentColor" />
			<path d="m171.14,270.34c.47,1.4-1.037.825-1.862.932 .12.967 2.046.127 2.328.931-5.2,4.32-7.67-4.95-.47-1.86z" />
			<path d="m47.757 270.34c7.05 2.262 14.267 4.356 20.951 6.984-6.582 1.555-13.379-4.579-20.951-5.122v-1.86z" />
			<path d="m247.96,272.2c.045,2.851-4.323,2.673-6.519,1.862v-2.328c3.01-.78 4.21-1.3 6.52.47z" />
			<path d="m275.43,271.27c3.848.318 6.622,4.087 4.19,7.915-12.609,4.023-29.093,7.657-43.299,11.64-3.515.984-8.882,1.423-10.709,5.121 7.728-1.094 18.375-5.347 26.073-6.519 1.304,10.087-.889,16.525.931,25.142 .471-5.754.746-13.807.932-20.02 .062-2.092-1.884-5.216.931-6.053 3.063,1.104-1.014,9.818 1.862,13.036 1.083-3.573.158-9.154.466-13.502 6.994-2.007 13.739-4.264 21.417-5.587-.715,4.406-.412,9.831-.466,14.898 3.063-2.649.529-12.422 1.862-15.364 2.033,8.78.646,17.981 0,24.211-2.316-.069.114-3.851-.931-4.19-3.257.411-.195,6.221-.932,6.983-9.147,2.957-18.335,5.876-27.935,8.381-.207-4.51.198-14.57 0-19.089-3.151,2.906.382,14.38-2.328,20.02-2.133.115-.036-3.999-1.396-4.655-1.463.71-.775,3.57-.932,5.587-17.98,4.522-35.28,9.726-53.076,14.433-1.068-4.429 1.219-15.688-.466-20.485-1.812,5.52-.211,15.053-1.397,20.951-2.925-3.481.779-14.346-1.396-17.227-1.376,6.327-.18,11.092-1.396,18.158-1.836.128-.135-3.28-1.396-3.725-1.057.495-.178,2.926-.466,4.189-14.514,2.562-26.91,9.71-41.902,10.243 .092-2.363 1.546-7.369-.466-8.846-1.743,1.616.212,5.852-.466,9.312h-3.259c-.86-7.724.981-19.159-.466-27.47-2.446,7.021.278,19.212-1.396,27.004-1.967.104-3.007-.718-4.656-.931-.062-1.953.847-2.602 0-4.19-1.543.009-.473,2.631-1.396,3.259-11.534-3.83-22.214-8.515-33.057-13.036 .388-8.217 1.955-17.735 0-25.142-1.083,7.608.028,17.41-1.396,24.676-3.647-4.719.312-13.37-1.397-18.623-2.502,3.242-.131,11.382-1.862,17.227-3.529.165-.323-3.57-1.862-5.122-1.448.104-.787,2.317-.931,3.725-6.046-1.559-11.021-4.188-16.295-6.518-1.424-8.376 1.695-20.412-.931-29.332-1.085,7.916-.156,17.847-.466,26.538-4.272-7.481-.539-21.414-1.396-29.331 8.965,5.777 19.682,9.805 29.797,14.433 .829,4.086-.949,13.216.465,19.089 2.149-4.368.328-12.709.931-18.623 15.753,3.881 28.641,16.514 47.024,13.036 13.34-2.523 29.161-9.61 43.766-12.105 .078,7.55-.114,16.714 0,22.813 2.455-1.68.853-5.883.931-9.312 .113-4.913.029-10.505 1.396-14.433 2.867.703.742,6.396 1.397,9.312 2.89-.826.895-6.897.931-9.312 5.099-3.438 14.977-2.096 18.623-6.984-11.546,2.185-23.003,5.333-34.453,8.381-11.5,3.062-22.965,7.735-34.453,9.312-13.078,1.795-26.331-5.507-37.712-10.242-11.171-4.648-23.696-8.78-32.591-15.83 13.42,5.631 28.223,12.273 42.368,18.157 8.406,3.497 18.569,7.967 29.332,6.053 12.484-2.22 25.168-6.597 38.179-10.242 25.673-7.196 52.378-13.393 79.614-20.952 3.921-1.088 9.459-1.834 11.64-6.052 .04-2.68-3.42-1.86-3.68-4.23zm-15.83,22.81c-.488-1.686 1.056-5.401-.932-5.587-.51,1.09-1.4,5.87.93,5.59zm-40.97,3.73c1.257.917 2.982-.809 2.793-2.794-1.69.16-2.63,1.09-2.79,2.79zm-112.21,13.97c-.354-1.974.858-5.514-.931-6.053-.04.9-1.74,5.63.93,6.05zm106.15.46c.29,3.591-.763,8.522.931,10.709 5.44-.564 14.508-.135 18.624-1.862 1.022-4.011.336-9.818 0-13.968-7.53.69-13.91,2.53-19.55,5.12zm-80.54,27.47c2.51-1.852 1.397-6.355 1.397-10.242v-11.64c-.103-.363-.39-.542-.931-.466-.41,6.49-.57,14.46-.47,22.35zm11.64-6.52c.486-3.906 1.367-12.228-.466-15.364-.41,3.98-1.42,12.17.47,15.36zm5.58,11.64c2.22-2.012 1.373-6.797 1.396-11.175 .024-4.592-.019-9.734 0-13.967-.099-.522-.517-.726-.932-.932-.95,8.51-.38,19.11-.47,26.07zm6.99-4.65c1.177-4.041.142-10.778.932-16.296-.596-.025-.646-.597-1.397-.465 .31,4.09-.72,13.23.47,16.76z" fill="currentColor" />
			<path d="m162.76,274.53c-1.499.103-1.971-.823-3.725-.466 .2.731 1.464.398.931,1.862-8.42-.34 1.68-7.26 2.79-1.39z" />
			<path d="m191.16,274.06c-.415,2.17-6.016,1.864-6.519,0v-1.396c2-1.03 6.13-.68 6.52,1.4z" />
			<path d="m132.96,272.67c2.093,3.883-.637,7.891 2.328,11.174 .41,1.496-1.535.638-1.397,1.862 1.461,4.334 7.597-.82 7.916,4.656h6.052c-.071,1.158.731,1.441.932,2.328 8.895-1.254 16.666,2.129 26.072,2.327-.398,1.486.733,1.44.932,2.328 2.249-.234 5.741.775 5.587-1.862 8.094.865 18.146-2.161 23.745.466-.695,1.633-3.5,1.156-5.122,1.862-.553-2.323-4.716-3.018-6.518-1.396-.598,2.051 2.228,1.907.931,3.259-1.917-.365-2.389.715-4.19.466 .179-3.612-5.458-3.157-6.052-.466-.171,1.412 1.517.967 2.327,1.396-1.189,1.448-4.298.979-5.587,2.328-1.865-.599.128-.963 0-2.328-.835-1.825-5.691-1.934-6.053.466-.22,1.927 2.178,1.237 3.26,1.862-1.57,1.379-4.763,1.135-6.984,1.862 .222-3.588-5.307-2.346-6.518-.931 .371,1.025.935,1.858 2.328,1.862-.606,1.101-2.517.897-3.726,1.396-1.905-1.628-4.08-3.108-6.983-1.396-.092,1.333-.058,2.541 1.396,2.327-.599,1.264-2.313,1.411-4.189,1.397-1.592.078.105-1.639-1.397-2.328-2.595-.268-4.443.213-5.587,1.396-.347,1.434 1.278.895.932,2.328-1.166.594-1.458-.237-1.862.466-2.653-3.801-7.079-.964-10.709-1.397 3.367-5.768-5.579-2.622-7.915-2.793-.408-1.495 1.208-.966 1.396-1.862-1.743-4.798-6.771.709-10.243-1.862-.063-1.615 2.358-.745 2.328-2.328-1.664-4.358-6.721.382-8.846-.466-.179-1.575 2.061-.732 1.396-2.793-3.437-3.325-6.298,1.77-9.777-.466 .325-1.228 2.12-.984 2.328-2.328-2.354-3.595-6.382.574-9.312-.466-.122-1.519 1.449-1.345 1.863-2.327-.015-2.431-6.013-2.693-6.519-.466-3.868-1.409-7.465-3.089-10.708-5.122 16.517-6.29 36.736-9.54 52.146-14.44zm-7.45,10.7c2.323,1.747 5.202,2.736 6.984,0-.51-2.74-6.71-3.45-6.98,0zm-7.92,3.26c1.48,1.164 5.717,1.52 6.519-.466-.25-2.77-7.08-3.61-6.52.47zm-8.84,1.4c.609,2.053 5.557,2.666 6.518.466 .45-3.13-6.48-3.2-6.52-.47zm16.29,2.33c2.646-.174 5.427,1.428 6.052-1.396 .45-2.94-8.7-2.85-6.05,1.4zm-25.138,1.39c1.499.434 5.891,1.346 6.052-.931 .084-2.723-3.62-1.657-6.052-1.862-.518,1.47-.038,1.06.004,2.79zm16.298-.46c.09,1.845 6.544,2.393 6.518,0-.3-2.32-6.38-2.83-6.52,0zm15.83,1.4c1.754.834 6.75,2.105 6.518-1.397-1.59-1.64-6.63-2.17-6.52,1.4zm-24.21-.47c-.451,3.896 6.112,4 6.519.931-1.14-1.69-4.3-1.58-6.52-.93zm15.36,2.79c.948,1.607 6.325,2.398 6.519-.465-.09-2.78-6.94-2.63-6.52.47zm16.76,0c1.145,2.151 5.14,2.027 6.518.466-.46-3.59-5.45-3.52-6.52-.47zm-24.67-.46c-1.094,4.275 5.372,3.796 6.518,1.862-1.03-2.85-4.35-2.21-6.52-1.86zm41.9,2.33c2.737.679 4.227,1.267 6.052,0 .82-4.15-6.57-3.37-6.05,0zm-26.07.93c.583,1.901 7.217,2.506 6.519-.932-1.58-1.63-5.85-1.75-6.52.93zm16.29-1.4c-.951,3.854 5.689,4.131 6.053,1.396-.31-2.51-4.02-1.85-6.05-1.4zm19.09,2.79c.93,1.937 6.89,2.968 6.518-.931-1.33-1.36-6.37-1.58-6.52.93zm-44.23,1.4c.491,1.838 4.874,1.74 6.518.932 1.13-4.03-6.35-3.47-6.52-.93zm17.23.93c.284,2.039 6.373,2.221 6.053-.466-.29-2.03-6.37-2.22-6.05.47zm15.83,0c1.361,1.805 6.282,2.726 6.518-.466-.7-2.03-6.4-2.06-6.52.47zm-26.08,3.26c1.923.704 5.793,1.638 6.519-.931-.36-2.73-7.23-2.68-6.52.93zm17.7-.93c.542,1.903 5.425,1.888 6.519.466 .37-2.87-6.51-3.52-6.52-.47zm-8.85,2.33c.478,2.793 4.733,2.263 6.518,1.396 .93-3.85-5.7-3.38-6.52-1.4z" fill="currentColor" />
			<path d="m256.34,276.39c-.452.013-.361.57-.465.932-2.766.25-5.988,1.1-6.519-1.862 1.72-1.41 6.38-2.06 6.98.93z" />
			<path d="m153.91,276.86c-.164,3.313-6.653,2.813-6.518-.466 1.306.299 2.787-1.669 4.655-.466-1.06,2.8.86-.28 1.87.94z" />
			<path d="m179.52,275.46c.479,1.073 1.603,1.501 1.396,3.259-2.392.657-6.313.97-6.518-1.862 1.22-.96 2.72-1.63 5.12-1.4z" />
			<path d="m137.15,275.92v2.328c-1.561.319-1.702-.781-1.862-1.862 .41-.36 1.05-.5 1.86-.47z" fill="currentColor" />
			<path d="m160.43,276.39c.28,2.749-4.421,2.523-6.053,1.862 1.04-1.6 4.37-.9 6.05-1.86z" />
			<path d="m263.32,278.72c-.811,2.328-6.119,2.324-6.519-.466 .59-1.78 6.66-2.43 6.52.47z" />
			<path d="m88.728 278.72c-4.359 2.769-18.271 3.108-11.174 10.243-13.8-4.43 5.19-10.68 11.174-10.24z" fill="currentColor" />
			<path d="m231.2,278.72c1.584.699 1.586,6.499-.931,6.053-.893-1.126-.294-3.741-.466-5.587 .66.04 1.32.08 1.4-.46z" fill="currentColor" />
			<path d="m217.23,281.51c-1.851,1.536-4.225,1.263-6.518.466v-2.328c2.2-.81 6.57-.99 6.52,1.86z" />
			<path d="m254.94,280.58c.084,2.723-3.62,1.657-6.053,1.862-2.29-3.61 4.89-4.28 6.05-1.86z" />
			<path d="m135.75,280.12c1.883-.521 2.302,1.43 1.396,2.328-.82-.43-1.62-.87-1.4-2.33z" fill="currentColor" />
			<path d="m145.53,280.12c2.265-.342 1.47,4.128.931,5.121-1.229-1.254-4.565-.4-5.587-1.862 .98-2.62 5.82,1.49 4.66-3.26z" />
			<path d="m92.453 280.58c-1.722 1.848-5.14 1.999-7.915 2.793 1.499-2.07 4.715-2.42 7.915-2.79z" fill="currentColor" />
			<path d="m132.49,283.37c-1.782,2.736-4.661,1.747-6.984,0 .27-3.45 6.47-2.74 6.98,0z" />
			<path d="m241.44,281.51c1.05.457 4.916-.651 5.587,1.397 .093,2.421-4.433,2.181-6.053,1.396-.34-1.43.47-1.7.46-2.8z" />
			<path d="m186.5,282.44c-1.257,1.499-4.782,2.815-6.518,2.328 .95-1.81 4.8-2.8 6.52-2.33z" fill="currentColor" />
			<path d="m207.45,282.44c-.178,2.182.817,2.647-.466,3.725-2.007-.166-4.068-.277-4.656-1.862-.1-2.43 2.87-1.79 5.13-1.86z" />
			<path d="m124.11,286.17c-.801,1.985-5.039,1.63-6.519.466-.56-4.09 6.27-3.25 6.52-.47z" />
			<path d="m20.287,284.77h1.397c11.74,5.13 24.414,10.89 36.316,15.83 4.041,1.679 8.851,2.077 11.64,5.588-16.772-5.89-32.11-13.21-48.422-19.56-.006-.92-1.27-.59-.931-1.86z" fill="currentColor" />
			<path d="m186.97,285.24c2.062.11 3.847.499 4.19,2.328-.66,1.811-4.828,1.835-6.053.466-.21-1.77 2.93-.17 1.86-2.8z" />
			<path d="m115.27,288.5c-.961,2.2-5.909,1.587-6.518-.466 .04-2.73 6.97-2.66 6.52.47z" />
			<path d="m162.76,287.56c-1.237.005-2.659-.176-3.26.466-.279,1.832 3.223-.118 2.794,1.862-1.581-.126-3.774.36-4.656-.466-1.58-3.62 4.76-4.56 5.13-1.86z" />
			<path d="m131.1,288.96c-.625,2.824-3.406,1.223-6.052,1.396-2.66-4.25 6.49-4.34 6.05-1.4z" />
			<path d="m206.99,288.5h1.396c.391.54.614,1.248.466,2.328-1.823,1.266-6.241,1.417-6.519-1.397 .375-.246.756-.485 1.396-.465 1.841-.079-.148.715.932,1.396h1.862c.62-.15.38-1.17.46-1.86z" />
			<path d="m258.67,288.5c1.987.186.443,3.901.932,5.587-2.33.27-1.44-4.51-.93-5.59z" />
			<path d="m99.902,288.96c2.433.205 6.136-.86 6.052,1.862-.161,2.276-4.553,1.364-6.052.931-.038-1.73-.518-1.32.004-2.79z" />
			<path d="m122.72,291.29c.026,2.393-6.428,1.845-6.518,0 .14-2.83 6.22-2.32 6.52,0z" />
			<path d="m138.54,291.29c.231,3.503-4.764,2.231-6.518,1.397-.1-3.57 4.94-3.04 6.52-1.4z" />
			<path d="m114.34,293.15c-.406,3.069-6.97,2.966-6.519-.931 2.22-.65 5.38-.76 6.52.93z" />
			<path d="m129.7,294.55c-.193,2.863-5.571,2.072-6.519.465-.42-3.11 6.43-3.26 6.52-.47z" />
			<path d="m146.46,295.48c-1.378,1.562-5.373,1.686-6.518-.466 1.07-3.05 6.06-3.12 6.52.47z" />
			<path d="m215.83 293.15c-1.063 1.277-4.971 2.151-6.518 1.397 1.05-2.04 5.58-1.79 6.52-1.4z" fill="currentColor" />
			<path d="m121.78,296.41c-1.146,1.934-7.612,2.413-6.518-1.862 2.18-.35 5.5-.99 6.52,1.86z" />
			<path d="m163.22,296.88c-1.825,1.267-3.314.679-6.052,0-.52-3.37 6.87-4.15 6.05,0z" />
			<path d="m221.42,295.01c.189,1.985-1.536,3.711-2.793,2.794 .16-1.69 1.1-2.62 2.79-2.79z" />
			<path d="m137.62,296.88c.698,3.438-5.936,2.833-6.519.932 .67-2.68 4.94-2.56 6.52-.93z" />
			<path d="m153.44,297.81c-.363,2.734-7.004,2.458-6.053-1.396 2.03-.45 5.74-1.11 6.05,1.4z" />
			<path d="m173,298.27c.372,3.898-5.588,2.867-6.518.931 .15-2.51 5.19-2.29 6.52-.93z" />
			<path d="m128.77,301.53c-1.644.809-6.027.906-6.518-.932 .17-2.54 7.65-3.1 6.52.93z" />
			<path d="m145.53,301.07c.32,2.687-5.769,2.505-6.053.466-.32-2.7 5.76-2.51 6.05-.47z" />
			<path d="m161.82,301.07c-.235,3.191-5.156,2.271-6.518.466 .13-2.54 5.83-2.51 6.52-.47z" />
			<path d="m135.75,303.86c-.726,2.568-4.596,1.635-6.519.931-.71-3.61 6.16-3.66 6.52-.93z" />
			<path d="m153.44,304.33c-1.094,1.422-5.977,1.438-6.519-.466 .02-3.05 6.9-2.4 6.52.47z" />
			<path d="m105.49,305.72c1.789.539.577,4.079.931,6.053-2.67-.41-.97-5.14-.93-6.05z" />
			<path d="m232.13,307.12c.336,4.149 1.022,9.957 0,13.968-4.116,1.728-13.184,1.298-18.624,1.862-1.693-2.187-.641-7.118-.931-10.709 5.63-2.59 12.01-4.43 19.55-5.12zm-8.38,4.19c1.323-1.471 6.476.889 6.519-1.862-1.46-.82-7.53.21-6.52,1.86zm-8.85,1.86c-.336,1.119-1.32,2.815-.466,3.725 .973.638 2.503-2.135 5.121-1.396 .198.888 1.33.843.932,2.328-.261.67-.727,1.136-1.396,1.396-2.575.557-3.387-.648-4.656-1.396 .005,1.236-.176,2.658.466,3.259 5.175-.755 10.444-.474 14.898-.932 .44-2.733.422-3.836.466-7.449-5.3-.04-9.75.79-15.36.46z" />
			<path d="m230.27,309.45c-.043,2.751-5.195.392-6.519,1.862-1.01-1.65 5.06-2.68 6.52-1.86z" fill="currentColor" />
			<path d="m279.15,310.84c-3.672,4.319-10.086,4.84-15.364,6.519-26.561,8.448-54.938,15.296-82.874,23.279-11.014,3.147-22.728,8.267-33.521,9.312-11.329,1.097-17.576-2.676-26.073-6.053-11.214-4.457-22.073-8.799-33.056-13.502-5.305-2.271-12.187-2.904-14.899-8.381 4.85,3.996 13.556,4.137 17.692,8.847 16.354,2.896 30.062,13.789 47.489,17.227 1.247.246 3.354-1.002 4.19.931 35.892-8.494 70.677-20.577 105.69-28.4 8.673-4.52 20.919-5.465 29.798-9.777 .29-.01.6-.01.91-.01z" fill="currentColor" />
			<path d="m230.27,312.71c-.044,3.613-.025,4.716-.466,7.449-4.454.458-9.724.177-14.898.932-.642-.601-.461-2.022-.466-3.259 1.27.748 2.081,1.953 4.656,1.396 .67-.261 1.136-.727 1.396-1.396 .398-1.485-.733-1.44-.932-2.328-2.618-.738-4.148,2.034-5.121,1.396-.854-.909.13-2.605.466-3.725 5.6.32 10.05-.51 15.36-.47zm-6.06,3.72c-.551,2.035 4.275,2.035 3.725,0-1.31-.53-2.42-.53-3.73,0z" fill="currentColor" />
			<path d="m227.94,316.43c.551,2.035-4.275,2.035-3.725,0 1.3-.53 2.41-.53 3.72,0z" />
			<path d="m132.49,317.36c.542-.076.828.103.931.466v11.64c0,3.887 1.113,8.391-1.397,10.242-.09-7.89.07-15.86.47-22.35z" />
			<path d="m143.2,317.83c1.833,3.137.952,11.458.466,15.364-1.89-3.19-.88-11.38-.47-15.36z" />
			<path d="m149.72,318.76c.415.206.833.409.932.932-.019,4.232.024,9.375 0,13.967-.023,4.378.823,9.163-1.396,11.175 .09-6.97-.48-17.57.47-26.08z" />
			<path d="m155.77,323.42c.752-.132.802.439 1.397.465-.79,5.518.245,12.255-.932,16.296-1.19-3.53-.16-12.67-.47-16.76z" />
			<path d="m65.449,286.17c.392,1.937 3.084,1.572 4.656,2.328 .147,4.886-.231,10.385 0,13.968-17.06-5.447-34.816-14.224-52.146-20.952-1.02-7.516-.204-16.867-.466-25.142 10.121,1.984 18.261,5.95 27.935,8.381-.562-2.942-4.314-2.535-6.518-3.259-6.378-2.096-14.951-5.022-21.417-7.915 3.044-1.74 7.761,2.746 12.105,2.793-1.987-3.91-7.975-3.82-12.105-5.587 .487-18.918.393-41.935.931-61.922 17.506,4.066 32.633,10.511 49.352,15.364-1.222-3.062-5.959-3.54-9.312-4.655-10.5-3.494-22.585-7.579-33.522-10.708-.592-2.105 2.361.83 2.794-.931-1.649-2.075-5.228-2.222-8.381-2.793-.404,2.421 3.163.872 3.259,2.793-1.246-.462-2.455-.959-4.19-.931 .16-23.766.467-43.135.931-64.251 7.172,2.485 15.071,4.946 22.813,7.45 7.654,2.475 15.423,5.55 21.883,6.518-2.455-3.254-7.208-3.311-11.174-4.656-10.673-3.622-24.875-8.188-33.522-11.174 1.628-3.465 7.368,2.074 11.174,1.397-1.3-4.132-8.325-2.539-11.174-5.122 .292-5.76-.596-12.701.466-17.692 25.338,7.718 50.268,15.845 74.959,24.21 .18,11.1-.091,22.335 0,35.385-4.481.833-9.257-4.322-14.433-2.793 3.654,3.485 12.273,2.004 14.433,6.983-2.239,1.299-6.663-3.207-8.38-.931 1.649,1.92 4.83,2.309 7.915,2.794 .105,19.912-.936,35.11-.465,54.008-9.854-1.95-18.735-7.325-27.935-8.381 3.323,3.359 8.753,3.999 13.502,5.587s9.676,3.442 14.433,4.656c-1.038,19.987-.276,38.03-1.397,56.336-3.539-2.087-7.938-.583-13.036.931-2.877.854-5.914,3.12-7.915,3.259-5.1.355-8.023-4.562-13.036-3.725 1.749,3.996 10.869,3.095 12.105,6.053-1.273,2.287-5.203-2.642-7.449-.931 1.514,2.88 9.495,2.8 2.327,3.25zm10.708-142.01c-16.077-5.513-31.58-11.222-47.49-15.83-.026-.284-.069-.551-.465-.466-.467-.001-.554.377-.931.466v1.396c21.866,6.225 41.684,14.497 63.785,20.486-4.053-3.66-9.914-4.35-14.899-6.06zm-16.761.47c5.228,1.163 10.526,3.425 15.83,5.121 5.425,1.735 10.962,4.365 15.83,3.725-9.972-4.151-20.842-7.404-31.66-10.708v1.86zm16.761,64.25c-15.514-5.189-32.511-10.854-47.49-15.364-.362.103-.541.39-.465.931 20.266,7.05 42.329,14.78 62.388,20.486-3.801-3.6-9.398-4.38-14.433-6.06zm6.984,11.64v1.396c3.046-.018 7.13,3.625 9.312,1.397-2.5-1.3-6.611-3.24-9.312-2.8zm4.656,6.52c.319,1.046 3.551,1.556 3.725,0-1.302-1.12-2.878-2.26-3.725,0zm-40.971,40.04c-5.687-1.849-11.602-3.387-16.761-5.587h-.931c-.363.103-.541.39-.466.931 10.592,4.462 22.298,7.811 33.988,11.174-4.201-3.35-10.27-4.7-15.83-6.51zm.931,5.12c7.572.543 14.369,6.677 20.951,5.122-6.684-2.628-13.901-4.723-20.951-6.984v1.86z" fill="currentColor" />
			<path d="m210.25,177.69c2.033,2.702.94,6.422 1.396,11.174-7.288,3.954-23.074,5.367-33.056,3.259 .258-3.622.3-7.46.931-10.708 8.971,1.039 20.789.24 28.866-2.328 .554,3.743-.153,5.945.932,10.243 2.65-2.48-.97-8.39.93-11.63zm-5.59,11.17c.711-1.686-.388-3.805 0-6.518h-1.396c.43,1.54-.98,5.87 1.4,6.52zm-7.92.47c.72-.677.41-2.383.466-3.725-.641.02-1.022-.219-1.396-.465-.79,1.02-.22,3.66.93,4.19z" fill="currentColor" />
			<path d="m182.78,269.87c.49-2.041-1.574-1.529-1.396-3.259 3.174.465 8.562,2.11 13.036.466-.833-2.846-3.542-1.043-5.587-2.794-10.829,1.779-21.605.962-32.591,2.794 6.771-3.317 16.603-3.572 23.279-6.984-10.3-.805-21.124,5.859-32.591,6.984-.293-9.937.572-17.662 0-24.676 7.311-.295 14.495-.714 19.089-3.725-3.92-.572-11.847,2.676-18.623,2.327 .237-2.398-.888-7.316 0-10.708 12.062,4.648 28.062,4.185 40.971,6.053-.529,3.929.711,8.897-.465,13.036-1.494-1.834-6.996-1.731-7.449,1.396-2.184.145-4.685-.027-5.588,1.397 3.187,2.149 10.105-1.741 13.502-.932v5.587c-2.182.456-5.216.061-6.052,1.862 4.895,1.547 11.325-3.196 18.157-2.793v6.518c-2.205.112-1.844.335-2.328,1.862-1.835.595-1.209-1.273-1.862-1.862-.966.275-1.587.896-1.862,1.862 .735,2.982 4.175,1.43 6.053,1.397-.663,2.053.213,2.916 0,5.587 2.669.087.054-2.215 1.396-3.26 3.26,1.397 8.42.893 12.105,1.862-.051,1.158-.872,1.441 0,2.328 2.589-.326 4.98-1.511 6.519-.466 .409,1.496-1.535.639-1.396,1.862 .301,1.407 2.114,1.3 2.793,2.328 .042,3.144-.322,3.8 0,6.519-1.093.459-2.287.816-3.725.931-1.18,2.686 1.083,3.182 3.725,3.26 2.105-2.292.971-7.994.932-11.174 1.808-.444 4.022-2.075 6.983-.466-.303-3.888-6.806-1.575-6.983-5.587 1.457-.934 3.702.647 5.121-.932 1.448.104.787,2.317.931,3.725 2.537-1.414-.033-7.841 1.397-10.242 4.37,1.633 2.325,13.721.931,15.829-1.731.49-.913-1.57-1.862-1.862-1.699-.302-2.479.314-3.259.932 .024,1.838 2.214,1.511 2.793,2.793-.25,2.647-.579,3.996 0,6.519-8.377,4.414-21.001,6.315-31.659,6.983-.4-.375-.276-1.275-.932-1.396-4.27,3.638-6.5-1.861-11.174-.466-1.01-.078-.211,1.651-.466,2.328-11.955-.941-25.224-1.344-36.315-4.655-4.281-1.279-10.268-3.251-10.243-7.915 .973-1.016 1.329.232 2.793,0-.094-2.855-3.454-2.444-2.328-6.519 9.481-5.733 25.736-7.157 39.109-7.449-1.563,1.096-1.445,2.035-.466,3.725-6.157,3.879-15.14,8.803-23.744,9.777-3.205.363-4.866.541-5.588,3.725 .542,1.903 5.426,1.888 6.519.466 .033-1.586-1.369-1.734-2.328-2.328 1.402-1.236 4.343-.934 6.519-1.396 .697,2.669 5.091,2.562 6.519.931-.208-2.18-2.817.742-3.726-.931 .606-2.15 4.784-2.815 6.053-2.794 1.101,1.093-.075,2.287 0,3.725 1.459.882 5.19.727 5.587-.931 .185-2.047-2.117-1.607-3.259-2.328 2.115-2.386 6.236-2.766 7.915-5.587 .143-.946-1.345.095-1.396.465-.57-2.17 4.44-2.73 6.54-3.75zm-29.34-27c-.038,2.305 6.164,1.219 6.518-.465-1.6-.91-3.74.29-6.52.47zm42.37,29.8c1.492-2.07-.689-3.774-3.26-3.259 .3,1.87.82,3.53 3.26,3.26zm-24.21-.47c-.282-.804-2.208.036-2.328-.931 .825-.106 2.332.469 1.862-.932-7.19-3.09-4.72,6.18.47,1.86zm-11.64,3.72c.533-1.464-.73-1.131-.931-1.862 1.754-.357 2.226.568 3.725.466-1.11-5.87-11.21,1.05-2.8,1.39zm24.68-3.25v1.396c.503,1.864 6.104,2.17 6.519,0-.39-2.09-4.52-2.44-6.52-1.4zm15.83,0c-1.049-.594-3.997.133-4.19,1.862 .838,1.335 3.245,1.101 4.656,1.862-1.242.775-1.635,2.4-3.725,2.328-.035-.812.104-1.448.466-1.862-2.888,1.147-5,3.07-7.915,4.19-.042-1.271.775-.938 0-1.862h-3.26c-1.081.314-1.246,1.547-2.327,1.862-3.741,2.085-10.622,2.164-13.037,4.189 1.025,1.724 3.971-1.241 4.19.932-1.529,1.108-4.354.922-4.19,3.725h-2.327c-.776-.925.042-.592 0-1.862-1.486-.399-1.44.732-2.328.932 .232,2.561 3.182,2.404 6.053,2.327 .536-.55.526-1.646.465-2.793 2.545-1.048 3.96-.363 7.45-.466 3.408-3.886 9.797-4.791 13.967-7.915 .472,2.322 4.001,1.586 5.587,2.794-.268.818.563,2.735-.465,2.793-2.34-.166-4.222.124-5.587.932 3.167,8.18 11.549-3.396 5.587-6.984 .271-1.437 1.683-1.73 2.793-2.327 .205,2.225 6.552,3.007 6.519,0-1.007-1.05-1.588.385-3.259,0 .006-.926 1.27-.593.931-1.862-1.755-.358-2.226.567-3.725.465-.204-1.601.184-2.609.466-3.725-1.475-.201-2.367,2.558-3.26,1.396 .36-.11.53-.39.46-.93zm-48.42,3.25c-1.868-1.203-3.35.765-4.655.466-.136,3.279 6.354,3.779 6.518.466-1.02-1.22-2.94,1.86-1.87-.94zm22.35.94c.204,2.832 4.126,2.52 6.518,1.862 .206-1.758-.918-2.186-1.396-3.259-2.4-.23-3.9.44-5.12,1.4zm-20.02,1.39c1.632.661 6.333.887 6.053-1.862-1.68.96-5.01.26-6.05,1.86zm56.33,1.4v2.328c2.293.797 4.667,1.07 6.518-.466 .05-2.85-4.32-2.67-6.52-1.86zm-69.84,3.72c1.021,1.462 4.358.608 5.587,1.862 .539-.993 1.334-5.463-.931-5.121 1.16,4.76-3.68.65-4.66,3.26zm61.46.93c.588,1.585 2.649,1.696 4.656,1.862 1.283-1.077.288-1.543.466-3.725-2.27.07-5.24-.57-5.13,1.86zm-17.23,3.73c1.225,1.369 5.393,1.345 6.053-.466-.344-1.829-2.128-2.218-4.19-2.328 1.08,2.64-2.06,1.04-1.86,2.8zm-27.47,1.4c.882.826 3.075.34 4.656.466 .429-1.98-3.073-.03-2.794-1.862 .601-.642 2.022-.461 3.26-.466-.37-2.71-6.71-1.77-5.13,1.86zm53.08,0c2.262.908 6.443,1.557 5.587-1.396-1.651,1.481-.737-.583-1.396-1.396-2.43-.1-3.84.81-4.19,2.8zm-4.19.93h-1.862c-1.08-.682.909-1.476-.932-1.396-.641-.021-1.021.219-1.396.465 .277,2.814 4.695,2.663 6.519,1.397 .148-1.08-.075-1.788-.466-2.328h-1.396c-.07.7.17,1.72-.46,1.87z" fill="currentColor" />
			<path d="m236.32,259.16c.826-.946 2.99.707 4.189.931-1.01,1.13-2.72-.97-4.19-.93z" fill="currentColor" />
			<path d="m257.27,267.08c5.867,3.755 14.62,4.624 20.485,8.381-4.899.694-10.443-1.875-15.83-3.726-7.654-2.629-15.048-5.081-21.882-7.914-1.685-.699-5.136-.318-4.656-3.26 3.017.398 4.533,2.296 7.915,2.328 .365-2.072-2.497-.917-2.328-2.794 8.06,2.96 16.959,5.079 24.676,8.381-2.14,1.04-6.06-2.62-8.38-1.4zm-2.33-.47c-.106-1.911-2.271-1.765-4.19-1.862-.15,2.07 3.19,2.41 4.19,1.86z" fill="currentColor" />
			<path d="m267.98,269.87c1.567-1.384 3.444.882 5.122.932-1.07.89-3.38-.94-5.12-.93z" fill="currentColor" />
			<path d="m146.93,30.562c6.482,2.321 14.85,4.238 23.279,6.518 11.293,3.055 23.653,4.084 26.538,13.968 17.673.659 36.865,10.062 40.04,32.125 .785,5.455-.046,12.916 0,20.021 .052,7.786.855,17.501-2.327,21.882-3.332,4.585-11.39,5.22-16.762,7.915 .229,1.633.694,3.03.466,5.122 19.42,4.08 39.67,10.824 60.061,17.227 8.975,2.818 22.02,2.787 20.951,14.898-1.234,13.992-16.268,8.538-27.004,5.587-16.751-4.604-38.326-10.939-54.474-15.364-3.139,1.556-7.213,6.105-13.502,6.053 4.227,3.067 10.694,3.895 9.312,12.571 7.818,1.837 20.726,3.137 22.814,10.708 2.423,8.784-2.927,17.172 0,27.47 11.532,3.825 29.519,8.987 43.765,13.502 7.595,2.406 18.976,4.323 20.485,11.64 1.337,6.475-3.233,14.282-8.38,14.898-4.341.52-9.964-2.138-14.899-3.725-13.646-4.388-28.029-9.106-41.437-12.571-1.103,5.198-.011,9.967-.466,15.364 7.867,2.434 15.693,5.409 24.211,8.381 6.646,2.319 20.704,3.795 23.279,9.312 .87,1.867.032,10.684 0,16.762-.035,6.483.508,11.783 0,14.898-.294,1.799-2.104,6.528-2.794,7.449-3.528,4.707-22.581,8.243-31.66,10.708-22.443,6.096-44.104,12.354-65.182,18.624-10.548,3.138-22.673,6.98-32.591,9.312-10.65,2.504-20.094-1.71-28.4-5.121-15.579-6.398-33.982-14.357-48.887-20.021-3.336-4.535-3.908-9.934-3.725-17.227-11.779-6.176-25.179-11.188-39.109-16.761-7.258-2.904-14.417-4.9-15.365-13.502-.815-7.406.297-16.741.466-24.211 1.004-44.514.883-106.27 2.328-157.83-11.402.517-20.694-9.614-17.235-21.882 1.706-6.053 7.323-8.934 10.708-12.571 2.421-.063 4.098-.869 6.519-.931 1.037-7.919-1.354-18.505 5.587-22.814 4.23-2.626 11.523-2.598 17.692-3.725 6.203-1.133 12.146-2.397 17.692-3.259 .939-4.049-1.216-9.428 0-13.968 .465-1.736 2.353-3.164 3.725-5.122 1.303-1.858 2.188-4.032 3.259-5.121 6.519-6.624 18.444-6.085 29.797-7.45 10.293-1.237 28.034,1.699 36.781,2.794 8.255,1.033 11.186,12.013 14.433,17.692 .04,4.11.47,5.958.01,9.779zm-50.287-28.401c-7.674.164-17.819.738-22.348,4.19 12.489,3.446 28.066,4.943 44.23,4.19 6.209-.29 13.102-.448 17.227-4.19-12.97-2.886-27.56-4.437-39.107-4.19zm-25.142,4.656c-.103.363-.39.541-.931.465h-.931c6.312,5.948 20.413,4.108 29.332,7.449-6.935.499-18.37-.768-25.607-3.259-2.505-.862-6.332-4.412-7.449,0 12.789,6.376 32.738,8.244 51.214,6.984 2.482-.169 6.222-1.941 8.38,0-16.786,3.843-42.096,1.451-54.473-2.794-2.128-.729-5.495-3.485-7.45-.931 1.608,4.134 9.431,2.054 11.174,6.053-5.313-.066-9.224-3.671-13.502-3.259 3.353,3.558 9.396,4.502 14.898,5.587 18.622,3.673 36.069,3.339 53.077,1.396 2.502-.286 5.795-.436 8.381-.931 2.072-.397 6.067-1.012 6.053-3.725-2.655-2.241-6.018.622-9.312,1.397-8.376,1.971-19.026,2.795-29.332,1.862 9.641-1.35 19.566-1.95 27.935-3.725 3.594-.762 9.407-.833 9.777-4.656-2.406-1.908-4.546,2.449-6.518.931 .294-2.655 4.484-1.413 4.656-4.19-7.084-1.601-16.039,5.838-23.745,2.793 2.966-1.844 9.197-.425 11.64-2.793-20.86,1.511-41.124,2.169-57.279-4.654zm-11.173,28.4c1.953-4.711 1.708-9.259 0-14.433v14.433zm3.258.466c2.628-3.321.693-8.326 1.397-13.502h-1.397c.241,4.684-.368,11.546 0,13.502zm2.329,2.328c1.526.026 1.78,1.324 3.725.931-.192-5.223.29-11.509 0-15.364-.595-.646-2.198-.285-2.793-.931-.829,4.603-1.005,9.859-.932,15.364zm78.215-1.863c2.981-2.187.117-8.046 1.397-12.105-.596-.026-.646-.597-1.397-.466 .12,4.065-.17,9.986 0,12.571zm-71.697,3.26c.238-4.25 1.771-13.105-.465-15.364-.461,3.932-1.387,12.207.465,15.364zm67.047,0c1.703.306 1.786-1.007 3.259-.931v-13.968c-5.61.451-1.54,10.569-3.26,14.899zm-64.719,1.862h3.725c.325-3.769.392-8.365.465-15.364-1.763-.954-1.929-.775-4.656-.931 .445,5.745-.632,10.778.466,16.295zm62.389-2.328c2.468-1.619 1.813-11.153.466-13.502h-.932c-.2,3.508-1.81,12.083.46,13.502zm-7.45-12.571c-.925,4.237-.365,12.306-.466,15.83 2.033.016 3.631-.404 5.122-.931-.333-4.699.181-9.631 0-15.364-2.07-.364-2.79.62-4.65.465zm-47.49,14.899c.293-3.81.924-9.517 0-14.899h-1.397c1.257,5.189-2.577,12.923 1.397,14.899zm1.862.931c2.046.838 4.049,1.144 5.587.465-.216-4.149.136-9.948 0-15.364-2.673-.074-2.621-.375-5.587-.465 .542,4.615-.509,11.072 0,15.364zm42.838-.931c1.098-2.959 2.362-13.491-.466-14.433-1.26,2.718-2.07,12.471.47,14.433zm-9.32-13.037c-.528,5.524 1.114,13.219-.931,17.227-2.909-.581-5.351,1.262-7.449,0 5.28-.923 1.859-12.57 2.793-17.227h-6.984c.914,6.926-2.003,14.385 1.397,17.227-15.558.032-33.26-1.81-44.23-7.915 4.429,5.614 14.581,7.677 24.21,8.846 19.381,2.354 46.02,2.67 58.664-7.915-6.78,3.158-16.459,7.559-24.21,5.587 .258-1.792 1.8.358 2.793-.931-.219-6.042.41-11.283-.466-15.83-1.58.581-4.18.158-5.58.931zm-25.137,14.434c1.464-2.796.73-9.554.931-14.898h-1.862c-.25,4.749-1.738,11.833.931,14.898zm2.328.931c2.127.589 2.51.194 5.122.465-.688-4.865.254-11.988-.466-15.83-2.25-.498-2.583-.146-4.656-.465v15.83zm20.489-.931c1.8-3.056.962-11.082.465-14.898h-1.396c.33,3.921-2.05,11.47.93,14.898zm-12.57,0c1.888-4.195-.212-9.268.931-14.433h-1.862c.49,6.012-1.779,11.254.93,14.433zm44.69-9.312c.64,2.774 4.256,2.573 3.725,6.518h5.587c.348-1.434-1.605-.567-.932-2.328 1.69.017 3.676-.261 4.19.931-.042.734-1.188.364-.931,1.396h11.64c-6.82-2.823-16.77-4.951-23.29-6.517zm-116.39,6.053c3.136,1.83 8.908,1.024 10.708,4.19-6.363-.155-9.699-3.338-16.295-3.259 2.497,2.183 6.39,2.807 9.777,3.725 7.506,2.034 15.111,4.069 21.882,6.053 3.373.988 8.062.788 9.777,4.19-10.924-3.069-23.241-6.206-34.453-9.312-3.172-.879-8.231-4.332-10.708-.466 3.667,1.92 10.096,1.078 12.105,4.656-3.024.833-8.11-2.614-13.036-2.793-.506,3.986-.492,8.848-.466,14.433 4.601.127 7.526-1.936 11.64-1.397 6.012.788 7,6.617 10.243,10.708 1.74-1.327 5.641-2.046 7.915-1.397 .324,2.002 1.697,3.847.931,5.587 8.766,3.717 18.167,5.408 26.539,8.846 8.494,3.488 12.884,10.69 18.623,16.761 .039-10.985.9-21.46.466-31.66-11.895-4.388-25.359-7.583-37.248-11.173-3.941-1.19-8.559-1.98-11.64-4.656 11.924,2.2 25.431,6.621 37.247,10.243 3.905,1.197 8.203,3.692 12.105,2.328-1.205-3.189-6.894-3.456-11.174-4.656-4.468-1.252-9.537-2.625-12.571-4.656 8.264-.646 17.467,6.726 25.142,5.122-10.38-3.525-22.449-7.123-33.057-10.243-3.466-1.02-8.215-.774-10.243-4.19 10.226,2.053 22.808,6.809 33.057,9.777 3.608,1.045 8.979,3.152 11.64,2.794 1.828-.246 4.133-2.693 6.052-3.259 11.022-3.254 19.249-.145 27.935,2.328 25.714,7.32 47.787,14.543 74.959,9.312 4.274-.823 10.367-1.248 12.57-6.053-8.056-6.838-24.065-7.803-36.315-10.243-3.699-.737-9.107-1.473-10.243-5.587 1.191-2.068 5.645-.875 6.984-2.794-12.981-3.464-15.91.187-30.263-1.396-7.573,10.608-31.748,12.3-47.956,11.64-15.624-.637-46.197-3.886-49.352-13.037-.585-1.698 1.289-4.488-.466-5.121-8.116,1.983-15.388,1.966-22.806,4.655zm114.53,1.396c-9.896,7.578-29.199,9.447-47.956,8.381-13.267-.755-30.405-2.936-36.315-8.846-1.606-1.606-1.43-4.328-3.259-5.122-6.459,3.856 3.066,8.571 7.915,10.243 20.161,6.95 48.346,7.384 69.372,2.328 5.819-1.399 17.721-3.332 12.105-10.708-.88.993-.64,3.092-1.87,3.724zm32.59,5.122c3.44,2.379 12.066,4.279 15.83,3.259-1.98-5.46-10.02-4.977-15.83-3.259zm-80.546,58.664c2.824,4.47 3.708,10.88 4.656,17.227 5.294-1.689 12.909-1.058 17.227-3.725-2.971-1.741-6.46,2.078-9.777,0 1.245-1.859 4.012-2.196 6.984-2.328-.368-11.257.344-21.988.466-30.729 .038-2.759-1.146-6.497.931-8.38 1.054,14.177-.135,24.955 0,39.109 14.46,1.342 27.121,8.543 41.902,11.174 20.608,3.667 45.248,3.264 66.113-2.793 .669-3.606-1.245-13.177.931-16.761 .852,4.324.652,11.473 0,15.83 2.434-.05 2.705-2.262 5.122-2.328-.696-12.022-.637-22.173.931-33.987 .998,10.218-.473,18.535 0,31.66 2.516-3.833 1.397-10.011 1.397-15.83v-17.692c-8.448,3.837-23.529,9.966-36.316,7.915 11.045-2.732 27.248-3.593 35.851-10.243-.642-3.239-1.43-6.33-2.794-8.846-2.242-.362-2.743,3.44-4.655,1.862 .281-2.188 4.349-2.596 3.259-4.656-1.184-1.61-2.121-3.466-3.725-4.656-4.099,5.525-13.247,8.479-21.883,7.915 2.819-2.184 8.645-2.155 13.036-3.725 3.69-1.319 9.493-3.595 6.519-7.45-12.546,8.264-26.212,9.018-43.765,7.915-21.804-1.37-41.883-11.711-62.854-14.433-4.13,2.389-5.419,7.618-8.846,10.708-.213-4.976 5.816-8.316 5.122-10.708-23.728-.579-11.27,31.742-15.846,47.954zm-65.647-42.834c-1.178,4.254-9.648,1.215-11.64,4.656 4.551.977 9.816-1.355 14.433-1.862 .956.906 2.272,1.453 2.328,3.259-2.715,2.872-9.28,1.895-13.502,3.259-.047,1.444.569,2.224.931,3.259 3.687,1.384 13.477-4.518 15.364.931-2.15,3.592-8.67,2.814-13.502,3.725-.414,1.138-1.085,2.019-.931,3.725 4.938-.028 8.552-1.38 13.036-1.862 .144,1.098 1.617.866 1.397,2.328-2.161,4.358-10.227,2.81-14.899,4.656 .338,1.424-.803,1.369-.465,2.793 4.935.319 10.78-3.39 13.967-.466 5.9-8.632 2.718-25.449-6.517-28.401zm-11.64,21.882c-1.522-7.634-2.381-15.932-10.708-16.761 .526,2.201 6.189,3.405 3.725,5.587-1.589-1.001-4.458-4.799-6.518-2.328 6.682,1.388 7.752,8.389 8.846,15.364 1.297-2.271-1.346-5.015.931-6.518 2.486,5.009-.374,11.791-2.328,15.364 4.232-.269 3.667-5.333 6.052-7.449 1.731,2.765-2.825,5.422-1.862,7.449 4.417-.591 5.499-6.976 5.587-11.174 .167-7.926-3.68-17.96-10.708-18.158 4.041,3.892 9.438,11.335 6.983,18.624zm1.862-14.433c3.291-.133 10.269-.165 12.571-2.793-4.541.58-9.25.992-12.571,2.793zm20.02,3.259c1.166,2.214 5.41-.037 7.45,0-.255-3.267-5.938-1.057-7.45,0zm-32.59,19.089c8.318-1.177 3.197-23.381-5.121-18.624-5.438,3.112-1.343,19.539 5.121,18.624zm15.83-14.433c3.205.188 9.566-.316 12.105-2.328-3.92.198-8.584.357-12.105,2.328zm17.226-1.862c-.19,1.122.851,1.012.466,2.328 1.6-.106 2.028-1.385 2.328-2.793-1.423-.337-1.697.475-2.794.465zm67.045,101.03c-1.931-9.648-3.348-17.972-5.121-27.004-2.479-12.63-3.443-25.717-6.053-36.781-5.604-23.763-27.354-31.147-51.214-36.315-.654.121-.531,1.021-.931,1.396v.931c10.504,4.549 22.812,7.296 33.522,11.64 6.646,6.434 13.74,14.837 15.83,25.142 3.868,19.067 6.938,42.021 10.708,60.992 .469,2.36.324,6.631 3.259,7.449 2.7-1.79.42-5.37 0-7.45zm-31.195-83.806c-4.162-2.307-10.222-3.698-15.83-5.587-6.518-2.196-13.808-5.076-19.089-4.656-.414,13.327-12.093,12.352-21.882,15.83 24.813,7.157 48.663,15.277 72.631,23.279-1.126-11.12-5.734-23.27-15.83-28.866zm-52.611-6.984c2.699-.256 9.678-.25 11.64-2.793-3.675,1.137-9.172.45-11.64,2.793zm-14.898,7.916c2.681.494 4.086-2.723 3.259-4.19-.808,1.675-2.243,2.723-3.259,4.19zm12.57,0c2.648.382 7.924-.388 10.243-1.862-4.158-.123-7.598.471-10.243,1.862zm39.575,189.49c2.247-1.711 6.176,3.218 7.449.931-1.236-2.958-10.356-2.057-12.105-6.053 5.013-.837 7.937,4.08 13.036,3.725 2.001-.139 5.038-2.404 7.915-3.259 5.098-1.514 9.498-3.018 13.036-.931 1.121-18.306.359-36.349 1.397-56.336-4.757-1.214-9.684-3.067-14.433-4.656s-10.179-2.228-13.502-5.587c9.2,1.056 18.081,6.431 27.935,8.381-.471-18.897.571-34.096.465-54.008-3.085-.485-6.266-.874-7.915-2.794 1.717-2.276 6.142,2.23 8.38.931-2.16-4.979-10.779-3.499-14.433-6.983 5.176-1.529 9.952,3.627 14.433,2.793-.091-13.05.18-24.285 0-35.385-24.691-8.365-49.621-16.492-74.959-24.21-1.062,4.991-.174,11.932-.466,17.692 2.849,2.583 9.874.99 11.174,5.122-3.807.677-9.546-4.862-11.174-1.397 8.647,2.986 22.849,7.553 33.522,11.174 3.966,1.345 8.72,1.402 11.174,4.656-6.46-.968-14.229-4.043-21.883-6.518-7.742-2.503-15.641-4.965-22.813-7.45-.464,21.116-.771,40.485-.931,64.251 1.735-.028 2.945.469 4.19.931-.096-1.921-3.663-.372-3.259-2.793 3.153.572 6.731.718 8.381,2.793-.433,1.761-3.386-1.174-2.794.931 10.938,3.129 23.022,7.215 33.522,10.708 3.353,1.115 8.089,1.594 9.312,4.655-16.719-4.853-31.846-11.297-49.352-15.364-.538,19.988-.444,43.004-.931,61.922 4.131,1.767 10.118,1.677 12.105,5.587-4.345-.047-9.061-4.533-12.105-2.793 6.466,2.893 15.039,5.819 21.417,7.915 2.204.724 5.956.316 6.518,3.259-9.674-2.431-17.814-6.396-27.935-8.381 .262,8.274-.554,17.626.466,25.142 17.329,6.729 35.086,15.505 52.146,20.952-.231-3.583.147-9.082 0-13.968-1.572-.756-4.265-.392-4.656-2.328 7.169-.45-.812-.37-2.327-3.26zm74.499-160.16c-10.601-5.97-22.912-.252-34.919.931 1.837,10.734 3.846,21.296 5.587,32.125 7.561-.981 15.825-4.825 21.417-3.725-5.885,2.806-13.875,3.507-20.951,5.122 2.771,9.166 1.737,18.347 4.656,26.538 .549,1.542 2.413,2.878 2.793,4.656 .748,3.498-.557,6.743 0,10.243-1.094,1.389-2.739,2.228-5.122,2.328-4.352-4.579-4.401-9.836-4.656-17.227-.301-8.721-4.644-17.841-4.656-26.538-1.711.151-4.122-.397-5.122.465-1.141,19.888.003,37.925-1.396,58.198 4.153.848 8.539-3.049 12.57-1.396-2.763,2.669-9.294,1.569-12.105,4.19 10.386-.188 23.294-6.786 33.057-6.053-9.951,4.172-23.448,4.798-33.522,8.847-.164,12.872.354,26.464-.466,35.384 2.893,1.357 8.434-3.22 11.174-.466-3.106,1.86-9.209.724-11.174,3.725 10.292.408 21.371-6.209 30.263-4.655-9.793,2.622-19.843,4.988-30.263,6.983 .222,6.916-.317,12.76-.466,18.158 13.318-3.288 26.772-6.44 39.575-10.243v-6.518c-.818-.269-2.735.562-2.793-.466-.513-2.376 3.307-.418 2.793-2.794-3.292-1.043-8.565,2.239-11.639,1.397 2.113-2.854 7.727-2.206 11.174-3.726 1.12-13.722.137-26.331.931-39.108-2.184-1.389-7.648,3.314-8.846,0 1.556-1.864 7.438-.119 8.846-3.26-7.418.166-15.702,2.717-21.882,4.19-2.026.483-5.251,2.235-6.519,0 9.075-2.564 18.753-4.526 28.401-6.518 1.643-9.778-1.681-16.362.465-24.676 2.162-8.373 14.678-7.652 22.813-10.708-1.444-7.808 3.39-9.337 7.45-11.64-6.139-1.932-14.581-1.56-14.899-9.312-1.056-.876-3.973,1.115-4.655-.931 1.014-.849 3.276-.448 3.725-1.862-6.617.234-13.973,4.62-19.089,3.259 5.082-3.298 14.177-2.584 19.554-5.587-13.284.824-25.669,7.043-38.643,7.449 3.801-3.183 9.32-2.555 14.433-3.725 8.329-1.905 17.009-5.155 24.676-5.587 .08-8.286-.031-13.089.466-19.555-6.4-.66-9.01-5.63-13.02-7.89zm4.65,1.39c9.963,6.667 24.816,8.273 38.179,8.846 19.345.829 38.128-.335 51.214-9.312-22.35,11.12-65.93,8.91-89.39.46zm9.78,34.92c12.592,9.8 44.382,9.161 59.595,3.259-.365-1.917.715-2.389.466-4.19-1.174-.843-2.438-1.597-4.655-1.397-.299,1.874.604,4.951-.466,6.053-1.899-1.202-.278-3.843-.466-6.053-3.166-1.316-4.755-3.467-5.121-6.518-.729-6.065 3.878-11.272 5.587-15.364-16.916.526-37.791.979-54.939-3.725 .11,10.22-.23,19.61 0,27.94zm62.39-21.88c1.398-.085 1.589-4.721-.466-4.19-1.24.24-1.7,4.61.47,4.19zm-6.52-2.79v1.397c1.349.246 3.874,1.322 4.19-.931-.09-1.48-3.44-1.09-4.19-.47zm-111.74,19.09c.609.904 2.465-.933 2.794.931 .143,1.074-1.345.517-1.397,1.396 1.444.047 2.224-.569 3.259-.931-1.381-6.689-1.627-14.514-4.19-20.02-.291,6.06.601,13.32-.463,18.62zm107.08-4.19c2.687.261 6.034-.137 6.053,2.793-2.14-.188-3.548-1.109-5.588-1.397 .863,3.328 4.961,3.42 8.847,3.725-.877-7.085 1.781-10.634 4.19-14.433-7.79-4.75-13.65.92-13.5,9.32zm94.05,18.15c-.931-6.921-13.616-8.436-21.417-10.708-17.467-5.088-42.963-13.987-57.267-15.83-2.747,2.84-4.17,7.004-4.656,12.105 10.228,3.585 21.736,5.888 31.194,10.243-10.062-.812-19.729-6.024-30.263-7.915 4.601,3.502 11.494,4.709 17.692,6.518 6.476,1.89 13.089,4.085 19.089,4.656-1.373-.081-3.064-1.071-1.862-2.328 6.985,2.637 15.562,3.681 21.882,6.984 .333,1.264-2.195-.333-1.862.931 7.64,3.25 29.54,10.66 27.48-4.64zm-84.27-6.98c1.457.216 2.078-.405 1.862-1.862-.63-.146-.89-.663-1.862-.465v2.32zm51.68,9.78c-4.045-1.387-8.38-2.484-12.571-3.725 2.79,2.33 9.08,3.64 12.57,3.72zm-105.22,3.26c4.493,5.917 12.299-.437 18.624-.931v-4.19c-4.46-.81-16.54-.71-18.62,5.12zm48.42,3.72c10.952-5.528-13.095-11.919-16.761-8.846-.025.595-.597.645-.466,1.397 .422,1.596 3.093.942 2.794,3.259-1.303,4.129-7.207,3.657-9.312,6.984 6.81-.72 18.68-.23 23.75-2.79zm-27.94,1.86c2.322-.626 3.706-2.191 6.053-2.793 .088-3.17-1.512-5.996.931-7.449 .516,1.967-1.096,6.062.932,6.518 1.812-1.548.33-3.628.931-6.518-2.105-.998-5.988-.22-8.846-.466 .41,4.57-1.09,7.78.01,10.71zm-20.48,6.99c.611-2.648-1.403-7.922 1.397-8.381 .624,3.774-2.65,9.268.931,11.174 .977-2.646.589-6.461.932-10.708-1.262-.601-1.655-2.069-3.725-1.862-.19,2.75-1.4,7.45.46,9.78zm6.05-7.45c-.28,3.934-1.074,8.993-.465,11.174 3.894-1.383 8.47-2.083 12.104-3.725 .092-4.143.705-5.4.932-9.777-5.3-.33-8.02,1.91-12.56,2.34zm43.77,10.71c-1.085-4.298-.378-6.5-.932-10.243-8.077,2.568-19.896,3.367-28.866,2.328-.631,3.249-.673,7.086-.931,10.708 9.981,2.107 25.768.694 33.056-3.259-.456-4.752.637-8.473-1.396-11.174-1.9,3.23 1.72,9.14-.93,11.63zm-69.84,2.79c4.842,7.563 28.084,8.031 34.453,11.174 .665-.759 2.085-3.156 3.725-1.396 .14.915-.629.923-.932,1.396 1.871.139 3.819.553 6.984.466 .348-1.435-1.605-.567-.932-2.328 3.654,1.527 12.663-1.758 14.899,1.862h6.052c.08-.696-.166-1.719.466-1.862 11.192-1.534 22.321-3.131 28.401-9.777-.849-8.774-10.89-8.355-18.624-10.243-.309,2.792.423,4.544.466,6.983-8.667,7.591-23.889,7.514-36.315,6.053-.618-.779-1.233-1.56-.932-3.259-4.115-3.4-8.85,1.096-12.57.932-3.671-.163-4.563-3.772-8.847-5.122-4.781-1.506-8.989,1.288-13.036-.931 .089-1.471 3.439-1.08 4.19-.466 .823-.689-.875-2.406 1.396-2.328 1.378.315 1.745,1.189.466,1.862 3.156-.363 4.951.636 7.915.465 .131-1.576.74-2.673.466-4.656-7.98.18-22.49,3.74-17.71,11.2zm-31.66-6.52v1.862c1.729-.444 4.413.068 5.122-1.396-1.14-1.58-3.12-.53-5.12-.46zm0,3.73v2.794c1.477-.71 6.906.096 5.587-1.863-.417,1.257-1.89-.216-1.397-1.396-1.7-.14-3.03.07-4.19.47zm113.6,10.7c5.18-.901 13.387-3.647 12.105-7.915-2.07,4.6-7.94,5.4-12.1,7.91zm-112.21-6.05c.307,1.555 1.448,2.277 1.862,3.725h2.793c.826-.881.339-3.075.466-4.656-2.17-.14-3.67.37-5.12.94zm27.47,9.78c2.801-.459.787-5.732 1.397-8.381h-1.397c-.39,2.12.23,5.12 0,8.38zm2.33,8.84c2.169,1.09 3.756,2.763 6.519,3.259 .924-.627-.146-3.25 1.396-3.259 .779.772.37,2.733.466,4.19 19.971,4.683 33.846,6.065 53.542,4.19-.095-1.457.314-3.418-.466-4.19-2.438-.368-4.453,3.415-6.053.931 .373-1.56 2.886.028 3.26-2.327-1.979-.814-5.24-.347-7.915-.466-.292,1.415.596,4.011-.466,4.655-1.295-.566-.865-2.859-.932-4.655-7.812,1.021-13.922-1.558-19.554-.932-3.749.418-9.086,3.909-12.571.932 2.914-.189 4.915-1.293 6.519-2.794 .695.547.548,1.935 1.862,1.862 1.095-3.195-.061-5.947.466-9.312-6.569-.702-17.799,12.69-23.279,3.725-1.896-3.102 1.107-8.272-2.328-11.174-.04,4.03-.66,9.77-.47,15.37zm91.72-7.91h2.328c1.186-2.305-.442-4.531.466-6.983-3.71-.45-2.67,3.85-2.8,6.98zm-71.23-.93c-5.368.672-8.453,7.039-14.898,3.725-1.073-2.95-.589-5.416-.931-8.381h-1.397c-2.51,14.21 13.01,10.56 17.23,4.66zm-14.44-3.73c.401,1.927.237,4.418.931,6.052 4.111,1.396 8.272-.982 10.243-3.259-3.65-.74-7.95-3.13-11.17-2.79zm79.15,1.4c-.772,2.11.336,3.206-.466,5.121 1.175.941 2.438-1.009 4.656-.466-1.011-2.156 2.02-2.004 1.396-6.052-2.49-.16-3.83.83-5.59,1.4zm-57.73,3.26c.245,2.574-.368,6.245 0,7.449 3.946,1.335 8.215-1.919 11.174-1.396 .015,1.411-2.343.451-2.328,1.862 3.458,1.043 8.814.188 13.036.466 1.08-1.312-1.128-4.184 1.397-4.656 .615,1.363-.298,2.403 0,4.656 7.889.129 15.818.3 20.02-3.259-.504,1.337-.756,2.211 1.397,1.862 1.425-1.228-2.007-.984-.466-2.328 4.36,1.494 8.323-1.246 12.105-1.862v-5.122c-17.52,3.77-35.5,3.98-56.34,2.33zm-28.4,6.05c-.469-1.549 1.03-5.064-.931-5.121-.54,1-1.33,5.46.93,5.12zm74.03,2.33c-.853,9.335-1.431,18.61-.466,28.4 4.334.099 10.653-1.729 14.434-3.725-3.715-1.361-7.064-1.301-8.847-4.656-3.504-6.598.973-18.507 6.984-19.089 2.979-.288 4.413,2.381 8.846,1.862-.338-2.968.163-5.451 0-9.312-6.44,2.72-14.84,3.47-20.94,6.53zm-74.49,9.31c.45-2.23.253-4.632.465-8.846h-1.862c.34,3.08-.97,7.8 1.4,8.85zm64.71-7.45c-.452,2.319.094,3.408-.466,6.053 3.358-.397 4.761-.11 7.915-.932-.202-2.125.471-5.126-.465-6.518-2.62.19-4.86.74-6.99,1.4zm-63.32,9.31c2.533.727 3.616,2.902 6.983,2.794 .136-2.813-.372-6.271.466-8.381-2.527-1.042-4.683-2.456-7.449-3.259v8.85zm133.62,24.68c5.811,1.802 12.792,5.869 18.623,5.122 4.189-.537 9.978-7.899 6.053-13.968-1.612-2.493-10.846-5.065-15.364-6.519-20.162-6.483-39.735-12.762-58.664-17.227-3.473,2.208-5.744,7.785-5.121,12.571 2.654.76 6.781.047 6.983,3.259-2.505.645-5.212-2.956-6.518-.466 16.63,6.63 35.79,11.59 54.01,17.24zm-125.24-29.8c.197,2.953-.291,7.308 0,8.846 15.998,5.14 35.371,6.276 53.542,4.656-.495-3.666-.369-5.091 0-8.847-17.62.92-37.66-.5-53.54-4.66zm54.94,4.19c-1.058,3.444.142,5.749-.466,9.312 2.575-.374 5.583-.315 7.915-.932-.773-2.533.814-6.103-.465-8.846-2.75.08-5.42.47-6.99.47zm-66.11,51.22c2.131-.817-.056-5.953 1.397-7.449 1.671-.274.013,2.78 1.862,2.328 1.729-.754 4.187-.78 6.053-1.397 .008-11.279.187-17.005.465-25.606-2.73.402-5.271-1.342-7.449,0 .429,5.127.495,10.319-.465,17.227-1.509-7.677.177-24.73-.465-34.453-.596-.026-.645-.598-1.397-.466 .58,18.14-1.46,35.15 0,49.82zm2.79-33.99c2.02-.954 3.812.732 6.519.465-.191-2.475-2.603.147-2.794-2.327 .2-1.041 2.295-.189 3.259-.466 .119-2.675-.349-5.936.466-7.915-2.588-1.137-4.608-2.841-7.915-3.259 .86,4.27-.25,10.08.45,13.52zm37.25,33.06c.052-.37 1.539-1.411 1.396-.465-1.679,2.821-5.8,3.201-7.915,5.587 1.142.721 3.443.281 3.259,2.328-.396,1.657-4.128,1.812-5.587.931-.075-1.438 1.101-2.632 0-3.725-1.269-.021-5.446.644-6.053,2.794 .908,1.673 3.518-1.249 3.726.931-1.428,1.631-5.821,1.738-6.519-.931-2.176.463-5.116.16-6.519,1.396 .959.594 2.361.742 2.328,2.328-1.093,1.422-5.977,1.438-6.519-.466 .722-3.184 2.383-3.361 5.588-3.725 8.604-.975 17.587-5.898 23.744-9.777-.979-1.689-1.098-2.629.466-3.725-13.373.292-29.628,1.716-39.109,7.449-1.125,4.074 2.234,3.663 2.328,6.519-1.465.232-1.82-1.016-2.793,0-.025,4.664 5.961,6.636 10.243,7.915 11.092,3.312 24.36,3.714 36.315,4.655 .255-.677-.544-2.406.466-2.328 4.674-1.396 6.904,4.104 11.174.466 .655.121.531,1.021.932,1.396 10.658-.668 23.282-2.569 31.659-6.983-.579-2.522-.25-3.871 0-6.519-.579-1.282-2.769-.955-2.793-2.793 .779-.617 1.56-1.233 3.259-.932 .949.292.131,2.353 1.862,1.862 1.395-2.108 3.439-14.196-.931-15.829-1.431,2.401 1.14,8.828-1.397,10.242-.144-1.407.518-3.621-.931-3.725-1.419,1.579-3.664-.002-5.121.932 .178,4.012 6.681,1.699 6.983,5.587-2.961-1.609-5.176.021-6.983.466 .039,3.18 1.174,8.882-.932,11.174-2.642-.078-4.904-.574-3.725-3.26 1.438-.114 2.632-.472 3.725-.931-.322-2.719.042-3.375 0-6.519-.679-1.028-2.492-.921-2.793-2.328-.139-1.224 1.806-.366 1.396-1.862-1.538-1.045-3.93.14-6.519.466-.872-.887-.051-1.17 0-2.328-3.686-.97-8.846-.465-12.105-1.862-1.343,1.045 1.272,3.347-1.396,3.26 .213-2.671-.663-3.534 0-5.587-1.878.032-5.317,1.585-6.053-1.397 .275-.966.896-1.587 1.862-1.862 .653.589.027,2.457 1.862,1.862 .484-1.527.123-1.75 2.328-1.862v-6.518c-6.832-.403-13.263,4.34-18.157,2.793 .836-1.802 3.87-1.406 6.052-1.862v-5.587c-3.396-.81-10.315,3.081-13.502.932 .903-1.425 3.404-1.253 5.588-1.397 .453-3.128 5.955-3.23 7.449-1.396 1.176-4.139-.064-9.107.465-13.036-12.909-1.868-28.908-1.404-40.971-6.053-.888,3.392.237,8.31 0,10.708 6.776.349 14.703-2.899 18.623-2.327-4.594,3.011-11.778,3.43-19.089,3.725 .572,7.014-.293,14.739 0,24.676 11.467-1.125 22.291-7.789 32.591-6.984-6.677,3.412-16.509,3.667-23.279,6.984 10.985-1.832 21.762-1.015 32.591-2.794 2.045,1.751 4.754-.052 5.587,2.794-4.474,1.645-9.862-.001-13.036-.466-.178,1.729 1.887,1.218 1.396,3.259-2.09,1.02-7.1,1.58-6.51,3.73zm25.6-38.65v7.914c.816.129 2.323-1.311 2.794,0-.108,1.443-1.651,1.453-2.794,1.862v5.588c3.63-.206 6.718-.994 9.777.931-3.593,2.592-7.605-1.233-10.242,1.862 .758,2.346 6.898-.69 6.983,2.328-1.937.961-4.384.191-6.519,0 .611,4.104-1.327,7.876 0,11.174 6.457-1.478 12.787,3.11 20.021,3.725 .255-3.771.158-7.707 0-10.708-1.776.552-2.951,1.704-4.656,2.328-.684,1.771 2.082.091 1.397,1.862-.829.257-1.934.239-2.328.931 1.629.654 2.98-1.306 3.725,0-1.987,3.268-7.867-.152-9.312-.466 .412-.82 2.065-.769.931-1.862-2.337.535-6.49,1.875-7.449-.931 .017-1.535 1.324-1.78 2.794-1.862 .104.88-.525,1.027-.466,1.862 6.138.616 8.284-2.514 13.036-1.862-1.062-3.283-7.824-.867-8.38-4.656 4.464-.217 7.281,3.505 11.174,2.328 .874-2.892-1.762-2.273-1.862-4.19 3.725-1.216-.718-7.799 2.793-9.312v9.312c6.758,3.779 5.735-6.949 5.587-13.036-5.866.118-10.947,3.936-17.691,3.725-2.298-1.427-1.91-5.539-1.862-9.312-3.85-.17-3.95.56-7.45.48zm-12.1.93v12.571c4.065-.746 6.783-2.84 10.708-3.726-.167-3.426.12-6.397.466-9.312-4.14-.04-8.89.01-11.18.47zm40.51,4.66c.479,4.443-.446,9.228-.466,13.036-.013,2.404-.42,6.793 2.328,7.449 1.526-4.551-.513-14.961.931-20.951-.87-.372-1.705-.778-2.793-.932-.19.66-.56.78 0,1.39zm-31.66,7.92c-3.315-.756-7.909.612-9.312,3.259 .458.987 2.931-.998 3.725.466 .159,2.021-2.827.896-3.725,1.862-.104.88.524,1.026.466,1.862 3.396-1.104 8.217-.784 10.708-2.794-.581-1.806-2.726.651-3.259-1.396 .403-1.614 3.193-.842 3.725-2.328-.58-1.44-.98-2.5-2.33-.93zm24.67,10.7c.51,1.964-.94,6.264.466,8.381 1.091-1.447 2.158-2.483 4.656-1.397 .826-.881.339-3.074.465-4.655-1.063-.798-3.282-.442-4.189-1.397v-1.396c1.94-.233 2.054,1.361 4.189.932v-3.26c-2.56-.79-3.82,1.55-5.6,2.81zm17.23.93c-1.199-.224-3.363-1.877-4.189-.931 1.47-.04 3.18,2.06 4.19.93zm25.14,8.39c-7.717-3.302-16.616-5.421-24.676-8.381-.169,1.877 2.693.722 2.328,2.794-3.382-.032-4.898-1.93-7.915-2.328-.479,2.941 2.972,2.561 4.656,3.26 6.834,2.833 14.228,5.285 21.882,7.914 5.387,1.851 10.931,4.42 15.83,3.726-5.865-3.757-14.618-4.626-20.485-8.381 2.33-1.22 6.25,2.44 8.39,1.4zm-30.73,0c1.329,1 4.967-.311 4.656,2.328 .178,2.351-4.051.295-4.19,2.328-.049,2.222 4.819-.474 3.725,2.793-.365,1.808-4.553-.207-4.19,2.328 .476,1.853 4.653.003 4.19,2.794-.911,1.261-5.051-.706-4.655,1.862 1.583,1.055 5.145.131 5.121,2.793-1.775,1.649-5.485.818-7.449,0-1.096,4.495-10.355,3.299-11.174,6.519 14.281-3.504 31.808-8.896 47.023-13.036 2.098-.571 4.88.259 6.053-2.328-12.419-2.597-25.347-8.401-38.644-11.64-.64.61-.46,2.03-.47,3.27zm38.18,2.32c-1.678-.05-3.555-2.315-5.122-.932 1.74-.01 4.05,1.82 5.12.93zm-134.09,1.87c.807-1.228 5.336-1.161 4.19-2.794-.92,1.1-6.31.18-4.19,2.79zm140.14,2.79c-2.181,4.218-7.719,4.964-11.64,6.052-27.236,7.56-53.941,13.756-79.614,20.952-13.011,3.646-25.694,8.022-38.179,10.242-10.763,1.914-20.925-2.556-29.332-6.053-14.145-5.884-28.948-12.526-42.368-18.157 8.896,7.05 21.42,11.182 32.591,15.83 11.381,4.735 24.634,12.037 37.712,10.242 11.488-1.576 22.953-6.25 34.453-9.312 11.45-3.048 22.907-6.196 34.453-8.381-3.646,4.889-13.524,3.547-18.623,6.984-.036,2.414 1.959,8.485-.931,9.312-.655-2.915 1.47-8.608-1.397-9.312-1.367,3.928-1.283,9.52-1.396,14.433-.078,3.429 1.524,7.632-.931,9.312-.114-6.1.078-15.264 0-22.813-14.604,2.495-30.426,9.582-43.766,12.105-18.383,3.478-31.271-9.155-47.024-13.036-.604,5.914 1.218,14.255-.931,18.623-1.415-5.873.363-15.003-.465-19.089-10.116-4.628-20.833-8.655-29.797-14.433 .857,7.917-2.876,21.85 1.396,29.331 .31-8.691-.62-18.622.466-26.538 2.626,8.92-.493,20.956.931,29.332 5.274,2.33 10.25,4.959 16.295,6.518 .145-1.407-.517-3.62.931-3.725 1.539,1.552-1.667,5.287 1.862,5.122 1.731-5.845-.64-13.984 1.862-17.227 1.709,5.253-2.25,13.904 1.397,18.623 1.425-7.266.314-17.067 1.396-24.676 1.955,7.406.388,16.925 0,25.142 10.842,4.521 21.522,9.206 33.057,13.036 .924-.628-.146-3.25 1.396-3.259 .847,1.589-.062,2.237 0,4.19 1.649.213 2.689,1.035 4.656.931 1.675-7.792-1.049-19.982 1.396-27.004 1.447,8.311-.395,19.746.466,27.47h3.259c.678-3.46-1.277-7.695.466-9.312 2.012,1.477.558,6.482.466,8.846 14.992-.533 27.389-7.681 41.902-10.243 .288-1.264-.591-3.694.466-4.189 1.262.444-.439,3.853 1.396,3.725 1.217-7.066.021-11.831 1.396-18.158 2.176,2.881-1.528,13.745 1.396,17.227 1.187-5.898-.414-15.432 1.397-20.951 1.685,4.798-.603,16.057.466,20.485 17.796-4.707 35.096-9.91 53.076-14.433 .156-2.017-.531-4.877.932-5.587 1.36.656-.736,4.771 1.396,4.655 2.71-5.64-.823-17.113 2.328-20.02 .198,4.519-.207,14.579 0,19.089 9.6-2.505 18.787-5.424 27.935-8.381 .736-.763-2.325-6.572.932-6.983 1.045.34-1.386,4.121.931,4.19 .646-6.229 2.033-15.431 0-24.211-1.333,2.942 1.201,12.715-1.862,15.364 .054-5.067-.249-10.492.466-14.898-7.678,1.323-14.423,3.58-21.417,5.587-.308,4.348.617,9.929-.466,13.502-2.876-3.218 1.201-11.933-1.862-13.036-2.814.837-.868,3.961-.931,6.053-.186,6.213-.461,14.266-.932,20.02-1.819-8.616.373-15.055-.931-25.142-7.698,1.172-18.346,5.425-26.073,6.519 1.827-3.698 7.194-4.137 10.709-5.121 14.206-3.982 30.689-7.616 43.299-11.64 2.432-3.828-.343-7.597-4.19-7.915 .21,2.38 3.67,1.56 3.67,4.2zm-198.34,11.64c3.244,2.033 6.841,3.713 10.708,5.122 .505-2.228 6.504-1.965 6.519.466-.414.982-1.985.809-1.863,2.327 2.93,1.04 6.958-3.129 9.312.466-.208,1.344-2.003,1.101-2.328,2.328 3.479,2.235 6.34-2.859 9.777.466 .664,2.061-1.575,1.218-1.396,2.793 2.125.848 7.182-3.893 8.846.466 .031,1.583-2.391.713-2.328,2.328 3.472,2.571 8.5-2.936 10.243,1.862-.189.896-1.805.367-1.396,1.862 2.336.171 11.281-2.975 7.915,2.793 3.63.434 8.056-2.403 10.709,1.397 .404-.703.696.128 1.862-.466 .347-1.434-1.278-.895-.932-2.328 1.144-1.184 2.992-1.664 5.587-1.396 1.503.689-.194,2.406 1.397,2.328 1.876.014 3.591-.134 4.189-1.397-1.454.214-1.488-.994-1.396-2.327 2.903-1.712 5.078-.231 6.983,1.396 1.209-.499 3.119-.296 3.726-1.396-1.394-.004-1.957-.837-2.328-1.862 1.211-1.415 6.739-2.657 6.518.931 2.222-.728 5.414-.483 6.984-1.862-1.082-.625-3.479.064-3.26-1.862 .361-2.399 5.218-2.291 6.053-.466 .128,1.365-1.865,1.729 0,2.328 1.289-1.35 4.397-.88 5.587-2.328-.811-.43-2.498.016-2.327-1.396 .594-2.691 6.23-3.146 6.052.466 1.802.249 2.273-.831 4.19-.466 1.297-1.352-1.528-1.208-.931-3.259 1.802-1.621 5.965-.927 6.518,1.396 1.622-.706 4.427-.229 5.122-1.862-5.6-2.627-15.651.399-23.745-.466 .154,2.638-3.338,1.628-5.587,1.862-.198-.888-1.33-.842-.932-2.328-9.406-.198-17.178-3.581-26.072-2.327-.2-.887-1.003-1.17-.932-2.328h-6.052c-.318-5.477-6.454-.322-7.916-4.656-.138-1.225 1.807-.366 1.397-1.862-2.965-3.283-.235-7.291-2.328-11.174-15.41,4.91-35.629,8.16-52.147,14.44zm54.477-10.71c.16,1.081.301,2.182 1.862,1.862v-2.328c-.81-.03-1.45.11-1.86.47zm-57.736,12.57c-7.097-7.135 6.815-7.475 11.174-10.243-5.984-.44-24.974,5.81-11.174,10.24zm152.25-9.78c.172,1.846-.427,4.461.466,5.587 2.517.446 2.515-5.354.931-6.053-.08.54-.74.5-1.4.46zm-92.65,3.26c.905-.898.487-2.85-1.396-2.328-.22,1.47.58,1.91 1.4,2.33zm-52.612.93c2.775-.794 6.193-.945 7.915-2.793-3.2.37-6.416.72-7.915,2.79zm-63.32,3.26c16.312,6.347 31.65,13.667 48.421,19.555-2.789-3.511-7.599-3.909-11.64-5.588-11.901-4.942-24.575-10.696-36.315-15.829h-1.397c-.339,1.28.925.95.931,1.87zm188.1,7.92c1.547.754 5.454-.12 6.518-1.397-.95-.39-5.48-.64-6.52,1.4zm68.9,16.29c-8.879,4.312-21.125,5.258-29.798,9.777-35.011,7.823-69.796,19.906-105.69,28.4-.837-1.933-2.943-.685-4.19-.931-17.428-3.438-31.135-14.33-47.489-17.227-4.136-4.71-12.842-4.851-17.692-8.847 2.712,5.477 9.594,6.109 14.899,8.381 10.983,4.703 21.842,9.045 33.056,13.502 8.497,3.377 14.744,7.149 26.073,6.053 10.794-1.045 22.508-6.164 33.521-9.312 27.937-7.983 56.313-14.831 82.874-23.279 5.278-1.679 11.692-2.199 15.364-6.519-.29.01-.6.01-.91.01z" />
			<path d="m113.4,56.634c.695,2.392-5.335,5.733-5.122,10.708 3.427-3.091 4.716-8.32 8.846-10.708 20.971,2.722 41.05,13.063 62.854,14.433 17.553,1.103 31.219.349 43.765-7.915 2.975,3.855-2.828,6.13-6.519,7.45-4.392,1.57-10.217,1.541-13.036,3.725 8.636.563 17.784-2.39 21.883-7.915 1.604,1.19 2.541,3.046 3.725,4.656 1.09,2.06-2.978,2.468-3.259,4.656 1.912,1.578 2.413-2.224 4.655-1.862 1.364,2.516 2.152,5.607 2.794,8.846-8.603,6.649-24.806,7.51-35.851,10.243 12.787,2.051 27.868-4.078 36.316-7.915v17.692c0,5.819 1.118,11.998-1.397,15.83-.473-13.125.998-21.441 0-31.66-1.567,11.814-1.627,21.965-.931,33.987-2.417.066-2.688,2.278-5.122,2.328 .652-4.357.852-11.506 0-15.83-2.176,3.584-.262,13.155-.931,16.761-20.865,6.057-45.505,6.461-66.113,2.793-14.781-2.63-27.442-9.832-41.902-11.174-.135-14.155 1.054-24.933 0-39.109-2.077,1.884-.893,5.621-.931,8.38-.122,8.741-.834,19.472-.466,30.729-2.972.131-5.739.469-6.984,2.328 3.317,2.078 6.807-1.741 9.777,0-4.317,2.667-11.932,2.035-17.227,3.725-.948-6.346-1.832-12.756-4.656-17.227 4.586-16.212-7.872-48.533 15.836-47.956zm-2.79,27.004c2.86-2.536.949-7.924 1.396-11.174 .878-6.376 5.143-10.145 7.449-14.434-8.36,3.379-9.99,16.84-8.85,25.608zm6.98-10.242c2.462-.115 1.004-2.413 1.397-3.725 .997-3.329 3.952-6.283 3.725-8.846h-1.397c-1.29,4.143-4.02,6.848-3.73,12.571zm61,.931c-19.472-1.343-35.46-7.888-51.215-12.105-.467-.001-.554.377-.931.466-.02.641.219,1.022.466,1.396 20.219,5.315 39.834,13.686 62.388,11.64-2.87-2.903-7.19-1.154-10.72-1.397zm-54.94-2.794c6.246,1.204 11.338,3.561 17.692,4.656-1.562-3.921-7.936-3.191-12.105-4.656-1.521-.534-2.95-2.125-5.121-1.862h-.932c-.04.81.09,1.448.46,1.862zm-17.23,4.19c1.892.144 2.431-5.696.465-5.121-.86,1-.31,3.41-.46,5.121zm89.86-.931c.632,1.62 6.062,1.492 5.587-.931-1.53-.548-5.26-1.061-5.59.931zm-48.89,2.328c.048,1.814 2.021,1.703 3.725,1.862 .51-2.312-2.83-2.424-3.73-1.862zm-23.74,1.397c.22,7.722.239,18.686 0,28.401-.045,1.851-1.904,5.208.931,6.053 .725-14.065 1.249-23.477.466-35.85h-1.397v1.397zm61.92,3.724c-7.148-.026-13.881-1.7-20.021-.465 4.523,2.034 12.24,2.252 17.227,2.328 11.732.178 26.611-1.334 38.179-5.122 .024-.801-.358-1.194-.932-1.397-10.54,2.976-23.23,4.698-34.46,4.656zm-29.8-.931c1.269-.047 3.564,1.392 4.656-.465-.871-1.146-2.615-1.42-4.656-1.397v1.862zm-49.81.931c-.404,7.619-.465,14.861-.465,25.607 0,2.923-1.168,7.22 1.396,9.312-.942-13.988 1.905-27.85-.931-36.315-.01.465-.01.931-.01,1.396zm21.41,1.397v1.396c8.227,1.208 17.226,6.757 24.211,5.587-7.11-2.989-16.67-5.971-24.21-6.983zm100.1,18.162c-.438-2.277 1.093-10.347-.931-12.571 .21,3.479-1.93,10.104.93,12.571zm-70.77-9.316c4.024.53 8.316.762 12.57.931 3.869.153 8.831,1.912 11.175-.931-8.511-.979-16.663-.796-24.211-1.862-.03.811.11,1.448.47,1.862zm-46.56.466v12.105c0,4.207-1.122,9.039 1.397,11.174 .245-6.542.26-17.306 0-24.21-.103-.363-.39-.541-.931-.465-.03.593-.6.643-.47,1.395zm78.69.466c.596.637 2.198.637 2.794,0 .09-2.281-2.88-2.281-2.79,0zm24.67,33.054c2.489-.917 1.352-4.317 1.397-6.519 .17-8.179-.038-16.554 0-23.279-.103-.362-.391-.541-.932-.465-.81,9.084-.5,21.114-.47,30.264zm-60.52-8.84c-.06,2.084-.417,5.332 1.396,6.052 .245-9.412-.162-15.5.466-25.607h-1.396c-.27,5.287-.29,13.207-.47,19.557zm38.64-10.71c.815-2.672.563-6.476.466-8.846h-1.397c.47,2.786-1.03,7.546.93,8.846zm-.93,20.95c1.659-2.211 2.529-12.052 0-14.898-.28,4.71-.5,9.63 0,14.9z" fill="currentColor" />
			<path d="m222.82,202.36v5.122c-3.782.616-7.745,3.356-12.105,1.862-1.541,1.344 1.891,1.101.466,2.328-2.153.349-1.901-.525-1.397-1.862-4.201,3.559-12.131,3.388-20.02,3.259-.298-2.253.615-3.293 0-4.656-2.525.473-.317,3.345-1.397,4.656-4.222-.278-9.578.577-13.036-.466-.015-1.411 2.343-.451 2.328-1.862-2.959-.522-7.228,2.731-11.174,1.396-.368-1.204.245-4.875 0-7.449 20.83,1.65 38.81,1.44 56.33-2.33z" fill="currentColor" />
			<path d="m247.49,278.25c-.293,2.987-6.498,2.193-6.984,0 .55-1.89 6.51-2.19 6.98,0z" />
			<path d="m200,273.6c.893,1.161 1.785-1.598 3.26-1.396-.282,1.115-.67,2.124-.466,3.725 1.499.103 1.97-.823 3.725-.465 .339,1.27-.925.937-.931,1.862 1.671.385 2.252-1.05 3.259,0 .033,3.007-6.313,2.225-6.519,0-1.11.597-2.522.891-2.793,2.327 5.962,3.588-2.42,15.164-5.587,6.984 1.365-.808 3.247-1.098 5.587-.932 1.028-.058.197-1.975.465-2.793-1.586-1.208-5.115-.472-5.587-2.794-4.17,3.124-10.559,4.029-13.967,7.915-3.49.103-4.905-.582-7.45.466 .062,1.147.071,2.243-.465,2.793-2.871.077-5.82.233-6.053-2.327 .888-.199.842-1.331 2.328-.932 .042,1.271-.776.938 0,1.862h2.327c-.164-2.803 2.661-2.616 4.19-3.725-.22-2.173-3.165.792-4.19-.932 2.415-2.025 9.296-2.104 13.037-4.189 1.081-.315 1.246-1.548 2.327-1.862h3.26c.775.925-.042.592 0,1.862 2.915-1.12 5.027-3.043 7.915-4.19-.362.414-.501,1.051-.466,1.862 2.09.072 2.482-1.553 3.725-2.328-1.411-.762-3.818-.527-4.656-1.862 .193-1.729 3.142-2.456 4.19-1.862 .07.53-.1.81-.47.92zm-20.02,11.17c1.735.487 5.261-.829 6.518-2.328-1.72-.47-5.57.52-6.52,2.33z" />
			<path d="m214.9,286.63c.659.813-.255,2.878 1.396,1.396 .856,2.953-3.325,2.305-5.587,1.396 .35-1.99 1.76-2.9 4.19-2.8z" />
			<path d="m144.6,307.58c-1.785.866-6.04,1.396-6.518-1.396 .82-1.97 7.45-2.44 6.52,1.4z" />
		</g>
	</symbol>
</svg>
