<svg xmlns="http://www.w3.org/2000/svg" width="829" height="896" viewBox="0 0 829.1 896.1">
	<symbol id="logo-v5" class="logo">
		<path d="M371,847.8l-60.9,32c36.2,10.6,74.4,16.3,114,16.3s77.9-5.7,114-16.3l-60.9-32c-29.2-15.4-77-15.4-106.2,0Z" />
		<path d="M657.9,291.5l128.6,18.7c-54.8-109.5-157.7-190.8-281.1-215.9l66.5,134.8c14.6,29.6,53.3,57.7,85.9,62.4Z" />
		<path d="M749.4,572.9c-23.6,23-38.4,68.5-32.8,101l14.1,82c60.6-70,97.5-161,98.5-260.7l-79.7,77.7Z" />
		<path d="M19.1,495.2c1,99.6,37.9,190.6,98.5,260.7l14.1-82c5.6-32.5-9.2-78-32.8-101L19.1,495.2Z" />
		<path d="M793.7,358.7l-177.6-25.8c-32.7-4.7-71.3-32.8-85.9-62.4l-79.4-161c-14.6-29.6-53.2-58.1-85.8-63.4L86.7,.8C54.1-4.5,25.2,18,22.3,50.9L.3,307.6c-2.8,32.9,14.2,78.6,37.8,101.7l128.5,125.3c23.6,23,38.4,68.5,32.8,101l-30.3,176.9c-5.6,32.5,11.7,43.3,38.4,23.9l232.7-169.1,193.4,136.4-66-229,236.7-172c26.7-19.4,21.8-39.1-10.8-43.9Zm-534.8-4.7c-36.5,0-66.7-26.9-71.8-62-.5-3.4-.8-6.9-.8-10.5,0-40.1,32.5-72.5,72.5-72.5s17.3,1.6,25.1,4.4c27.7,10.2,47.5,36.8,47.5,68.1s-32.5,72.5-72.5,72.5Z" />
	</symbol>
</svg>
